ply
format ascii 1.0
comment Created in Blender version 3.6.5
element vertex 814
property float x
property float y
property float z
element face 1624
property list uchar uint vertex_indices
end_header
0.9812003 0.7936882 -0.36655074
0.9988119 0.7455001 -0.37685758
1.0046633 0.7471574 -0.35544693
1.0650423 0.5574412 -0.41359264
1.1470531 0.576753 -0.27563965
1.0534452 0.56270134 -0.10220964
0.98517317 0.748831 -0.128891
1.0787885 0.5437467 -0.0867434
1.1883407 0.5710127 -0.2476543
0.9874719 0.42289522 0.07642765
0.9096285 0.5379971 0.03523186
1.3619266 0.52053976 -0.13291653
1.2592227 0.45812786 0.028843135
1.4586109 0.44224036 -0.07457699
1.310141 0.41654885 0.05952923
1.4191856 0.23906976 0.11543538
1.5612538 0.26340312 -0.023259386
0.8618242 0.72846925 0.023221374
0.73432904 0.90203375 -0.045909658
0.8658082 0.92412037 -0.19219463
0.72967905 0.905519 -0.04874657
0.83704627 0.94399834 -0.20992838
0.55561805 0.9584303 -0.16354318
0.6671754 0.97540593 -0.32420564
0.40472203 0.8924587 -0.27546877
0.5214207 0.88304913 -0.43549407
0.27319676 0.9779583 -0.11728118
0.4459986 0.931509 -0.0026406199
0.36192223 1.0326997 0.08470479
0.25616768 1.007577 -0.10229041
0.11638597 0.9423413 -0.22993983
0.09891537 0.9742135 -0.21500017
0.35042387 0.82058215 -0.32108384
0.49676377 0.84582174 -0.45671684
0.2949573 0.6154009 -0.38229662
0.40338108 0.6484584 -0.5433475
0.18188733 0.7888335 -0.27588475
0.017565753 0.7557698 -0.3191427
0.0551047 0.5631197 -0.3144902
0.293327 0.6078536 -0.38426405
0.16358452 0.38552082 -0.25898892
0.23679033 0.39524382 -0.4470427
0.28650922 0.40787467 -0.651056
0.3908572 0.6227374 -0.5548829
0.26975408 0.39737958 -0.6245739
0.35879275 0.41162747 -0.75301224
0.4222549 0.4229756 -0.79515815
0.5300764 0.5877463 -0.70213366
0.45995438 0.6346724 -0.61819416
0.6312463 0.46342528 -0.8064803
0.58380735 0.6578661 -0.65710664
0.2828719 0.39921203 -0.6545386
0.016743299 0.55555016 -0.3184082
-0.020795647 0.74820024 -0.3230607
-0.26473364 0.70168424 -0.28096223
-0.24012265 0.5062913 -0.28557622
-0.10982768 0.9326105 -0.25343442
-0.22794984 0.91010314 -0.23234202
-0.17531276 1.0094814 -0.18482764
-0.3040578 1.0807128 -0.026295468
-0.4155073 0.8761186 -0.12625276
-0.54225045 0.8732595 0.025448218
-0.4563775 0.86895585 -0.09308232
-0.41544974 1.062888 0.13438743
-0.42394918 0.8556252 -0.13437836
-0.6862166 0.7717237 -0.08561848
-0.5521239 0.67304814 -0.24348785
-0.5633699 0.85055596 0.00828886
-0.8362284 0.7012142 -0.19743444
-0.7301912 0.6100832 -0.31839597
-0.59456676 0.6375137 -0.2768528
-0.9749161 0.57258946 -0.30784696
-0.9645732 0.5643776 -0.31984603
-1.1007634 0.62894976 -0.14895557
-0.9597506 0.74564177 -0.03825499
-1.2160456 0.63108957 0.011245117
-1.0747375 0.7462667 0.12198232
-0.8058323 0.7961032 0.07404518
-0.86512905 0.7953478 0.15699574
-1.0417836 0.7606704 0.1464253
-0.91963613 0.79065645 0.23442915
-1.0140816 0.7715126 0.37185973
-0.89129174 0.7925997 0.25429425
-1.1841426 0.71824497 0.28291148
-1.029918 0.76713383 0.39524966
-0.650023 0.8368598 0.1865797
-0.7567176 0.79492825 0.34784478
-0.6441026 0.839236 0.19094759
-0.5559851 0.8612169 0.39014784
-0.59328246 0.7965491 0.46132445
-0.5095606 0.9563763 0.29721215
-0.3695917 1.0784264 0.40778345
-0.4363745 0.88855696 0.5571557
-0.21234174 1.1117893 0.5204965
-0.27895495 0.9219471 0.66962427
-0.44114244 0.8561362 0.5734042
-0.28334612 0.8866955 0.686185
-0.29864833 0.7201388 0.75683445
-0.46366224 0.68553334 0.6553208
-0.50039464 0.57072985 0.7405492
-0.33550024 0.5648619 0.8542097
-0.5955861 0.46976465 0.90324
-0.3662324 0.51066697 0.9131269
-0.58783025 0.4673721 0.90835136
-0.4275896 0.44797584 1.0172851
-0.6930151 0.38028198 1.0656534
-0.60148203 0.46482247 0.9129284
-0.5236109 0.35126913 1.179873
-0.78264475 0.25077266 1.2290336
-0.56645 0.27997133 1.2607434
-0.75526744 0.24285051 1.2471337
-0.6060308 0.18475959 1.3441466
-0.378584 0.31696114 1.2766056
-0.3513099 0.30739024 1.2944514
-0.40055612 0.116060555 1.4197901
-0.4838951 0.09981191 1.4193927
-0.40774426 0.007522762 1.4619458
-0.6495797 -0.1306451 1.498263
-0.6349115 0.07035917 1.4183017
-0.40473604 -0.083265364 1.4846222
-0.64295596 -0.21522897 1.5140588
-0.3675693 -0.275975 1.4898115
-0.61587745 -0.32361066 1.5208077
-0.61043876 -0.38210768 1.5180889
-0.33625087 -0.35938185 1.4708066
-0.35607305 -0.47491235 1.4442492
-0.5620771 -0.5139571 1.4896454
-0.4410907 -0.69325405 1.373925
-0.42903084 -0.69100624 1.3697001
-0.4334571 -0.70088977 1.3655353
-0.22101136 -0.65268034 1.2782775
-0.30225125 -0.78475004 1.207308
-0.07552068 -0.62655574 1.1861362
-0.05342542 -0.6318663 1.1568823
-0.18530196 -0.7954456 1.0473139
-0.17944135 -0.57463986 1.3157525
0.059345838 -0.6211198 0.99637014
-0.0785526 -0.75379497 0.8860555
0.10653137 -0.5974241 0.9235261
0.115943685 -0.5986162 0.7982209
0.022966962 -0.6853053 0.72414905
0.16336574 -0.5654617 0.8347736
0.27412975 -0.54441446 0.6740129
0.21269566 -0.58389753 0.6270444
0.32264805 -0.56284136 0.6117777
0.13368729 -0.6640337 0.5633829
0.40387195 -0.62076336 0.5156043
0.27001277 -0.7741681 0.40579027
0.5377163 -0.72708327 0.3603441
0.2739579 -0.7774897 0.40126947
0.5399511 -0.52027386 0.6210874
0.55134904 -0.51804477 0.62142265
0.67864054 -0.6010179 0.4683938
0.5421931 -0.7262214 0.3599139
0.5397187 -0.7284407 0.3579523
0.7888365 -0.47327763 0.5589565
0.5470606 -0.5152375 0.62657464
0.6863758 -0.38983268 0.7370649
0.8117276 -0.44365066 0.5781122
0.92540205 -0.43753964 0.41771215
0.91762626 -0.45176154 0.41074395
1.0214475 -0.3409571 0.25512725
0.98012716 -0.44430977 0.21501714
0.7995556 -0.63206595 0.3088912
0.9061343 -0.58953935 0.14761175
0.98181623 -0.4491617 0.0004734248
0.85196644 -0.6721155 0.10090007
0.7549767 -0.6868847 0.27190614
0.66443795 -0.7790119 0.19892119
0.7761825 -0.76299673 0.038281992
0.8599921 -0.6755131 -0.10453884
1.0320798 -0.22686374 0.5150361
1.0617197 -0.22638386 0.2957553
1.0611962 -0.22960234 0.16671136
0.9352656 -0.24159569 0.686168
0.42312503 -0.4686883 0.7857029
0.55891484 -0.32519168 0.8957562
0.7658716 -0.27172655 0.80527633
0.80505055 -0.15850186 0.84499705
0.9358205 -0.2401253 0.68671584
0.8193657 -0.05976236 0.86587423
0.9775477 -0.032010257 0.7387293
0.79893774 0.13651812 0.87348634
0.95550627 0.16392791 0.745185
0.7418365 -0.0738489 0.9081321
0.6749785 0.114109695 0.9457721
0.7080063 0.31805182 0.83932686
0.7149083 0.31930453 0.83551055
0.7108974 0.32469296 0.83332783
0.8034888 0.43900186 0.6703148
0.8755346 0.34757522 0.71011776
0.9196024 0.4325956 0.5102171
0.9735896 0.36257038 0.5398752
0.9994901 0.3646947 0.4188615
1.073419 0.23269638 0.35479227
1.0911275 0.18108469 0.3613432
1.0548279 0.17919183 0.5758504
1.1115848 0.036829054 0.3595225
1.1100535 -0.014927208 0.3769787
1.0769414 -0.016731143 0.5694463
1.0424902 -0.1980663 0.52544767
1.2145218 0.20145592 0.20926328
1.2313019 0.011929274 0.1998714
1.4419217 0.04327905 0.109477624
1.2347724 0.0050302744 0.19707154
1.230314 0.0041918755 0.19832818
1.1097438 -0.015580177 0.35243237
0.9993685 0.36223105 0.31782693
1.0812751 0.3738001 0.13600963
1.1812117 0.2689923 0.1936633
1.2234316 0.40052962 0.0958256
0.5663917 0.48840895 0.75131184
0.72344214 0.51592094 0.6233559
0.50026464 0.5652909 0.7139985
0.6000101 0.642885 0.55187213
0.7226728 0.60286814 0.3925861
0.8120248 0.5289064 0.4463238
0.8162707 0.5258331 0.28480694
0.6329481 0.69152707 0.34022033
0.6972098 0.69935244 0.14575568
0.812417 0.52318084 0.20607892
0.5099243 0.854324 0.27299464
0.6395269 0.77869153 0.11456873
0.5675784 0.68346655 0.5338909
0.4517363 0.85950345 0.47311255
0.5023299 0.8647106 0.28051543
0.4318738 0.6604835 0.67714715
0.33481643 0.8405058 0.62983316
0.2539601 0.9889561 0.5902481
0.365352 1.0067809 0.4295652
0.191132 0.8149131 0.7294185
0.23199409 1.019305 0.578387
0.343386 1.0371299 0.41770414
0.056300152 1.1629772 0.47252667
0.16769207 1.1808021 0.31184375
0.025178503 1.1760404 0.45240098
0.13657042 1.1938652 0.2917181
-0.11543243 1.2039391 0.35801864
-0.004040513 1.2217638 0.19733572
-0.19658262 1.1337852 0.49199957
-0.2726824 1.1705761 0.24530555
-0.35383257 1.1004223 0.37928653
-0.3916879 1.0875956 0.15360095
-0.280296 1.1054204 -0.0070819706
-0.16129048 1.1884009 0.08462265
-0.05853487 1.1476755 -0.046680555
0.0987151 1.1810385 0.066032514
-0.03541592 1.1319008 -0.07426529
0.12183404 1.1652639 0.038447782
0.29643714 1.1095705 0.15331158
0.382086 1.039532 0.20491737
0.50318927 0.86461127 0.26946682
0.18403566 0.75831974 0.75607044
0.25898674 0.6296115 0.7937517
0.42778784 0.46366847 0.8451935
0.3954163 0.45794255 0.8692868
0.40952474 0.4414792 0.87724096
0.13653672 0.60751975 0.86697465
0.07402313 0.5961773 0.90170014
-0.089616284 0.76207316 0.80666184
0.16010217 0.8092462 0.74512815
-0.09670816 0.7692392 0.80254036
-0.07021191 0.9635501 0.7080585
0.047910254 0.98605746 0.6869661
-0.037738662 1.0560962 0.6353603
-0.0979853 0.76044875 0.8069241
0.10725725 0.5628582 0.9210433
0.008377157 0.48082256 1.0832769
-0.15519121 0.55335456 0.9779307
-0.2638069 0.44781318 1.1308079
-0.1764625 0.54923385 0.97893
-0.090372264 0.39811632 1.2455267
-0.1704709 0.5583011 0.9678869
-0.10850334 0.36965165 1.2792475
-0.34395674 0.32377455 1.279343
-0.05894795 0.37896824 1.2651871
0.111379236 0.4092971 1.1467477
0.20540887 0.31002542 1.2009203
0.12913755 0.21722177 1.3347992
0.09711936 0.21146584 1.3547981
0.1171644 0.173408 1.3644723
0.25190228 0.23849672 1.2252167
0.3204897 0.052434027 1.2521242
0.16779855 0.025846958 1.3832047
0.17834543 -0.14057374 1.3720549
0.3311193 -0.14592534 1.2374886
0.19841132 -0.16900724 1.3524766
0.31351328 -0.24476701 1.2143189
0.4706164 -0.12213755 1.096951
0.4342245 -0.27476847 1.054791
0.6328518 -0.09352553 0.97271144
0.5690382 -0.30767912 0.9047169
0.53424925 -0.31392384 0.92683274
0.45799702 0.07579976 1.1101602
0.6172711 0.10378343 0.983798
0.3835487 0.26061887 1.0790519
0.53624886 0.28720784 0.9479777
0.31117135 0.35674068 1.0395399
0.4057465 -0.3365153 1.0281992
0.27070305 -0.35935813 1.1719292
0.10515216 -0.3886736 1.2937924
0.17573407 -0.17308396 1.3666382
0.07375209 -0.4441709 1.2658682
0.194446 -0.47408396 1.106338
0.30728996 -0.46371096 0.9458351
0.019437727 -0.40450352 1.3299024
0.079481214 -0.6005437 1.0126114
-0.045387466 -0.6212277 1.1636347
0.118294746 0.01682967 1.4092424
-0.055785988 -0.21639591 1.4412161
-0.060736183 -0.016831577 1.4599224
-0.10392952 -0.22558755 1.4490572
-0.15843892 -0.035653055 1.4688846
-0.16613936 0.16177177 1.42119
-0.14663479 0.16555828 1.4206069
-0.16360772 0.18447238 1.4109387
-0.071118176 -0.29018456 1.4224018
-0.33062023 -0.26889765 1.4847475
-0.11397794 -0.42935675 1.377251
-0.2821112 -0.4609571 1.4253408
-0.36512432 -0.075603545 1.4822702
0.24084306 0.43095616 0.99901825
0.86161435 0.4793082 0.23531769
0.26659912 -0.77888423 0.4029006
0.13871527 -0.9407194 0.2962937
0.40060216 -0.8548648 0.24748668
0.25777924 -0.96226746 0.13656166
0.5203847 -0.8801008 0.08784369
0.36914268 -0.9442964 -0.024124756
0.6314616 -0.8606594 -0.07287826
0.47351438 -0.89044386 -0.18567775
0.7287398 -0.7704026 -0.23531036
0.56811476 -0.7864446 -0.34844184
0.7618329 -0.6994205 -0.30249047
0.59270906 -0.7346836 -0.39807546
0.63918114 -0.56166905 -0.51412266
0.80459285 -0.57019204 -0.40039802
0.8930891 -0.47976023 -0.55063003
0.6584723 -0.52550334 -0.5517414
0.932209 -0.46609384 -0.30038154
0.90073746 -0.47411734 -0.56297076
0.94482654 -0.44950122 -0.2897939
1.0468264 -0.38347656 -0.45164084
0.93342286 -0.46510583 -0.26926517
1.0833435 -0.320001 -0.17940257
1.1969051 -0.31331116 -0.33981645
1.2371439 -0.26893407 -0.06711705
1.354778 -0.28314507 -0.22702624
1.4553032 -0.2095514 -0.3890561
1.296339 -0.23411685 -0.5019816
1.4816251 -0.16232574 -0.43975753
1.3149244 -0.19720113 -0.5388378
1.5199723 0.042467535 -0.55387586
1.352695 0.0074998736 -0.6521243
1.5196272 0.049825132 -0.5555724
1.3367169 0.20414665 -0.6652541
1.3242949 0.20161244 -0.6699597
1.4706411 0.3012227 -0.5616437
1.409557 0.4221131 -0.5122063
1.2384787 0.38653725 -0.6049721
1.1590493 0.47045508 -0.51899713
1.3119359 0.52621067 -0.4068249
1.4932003 0.2368406 -0.5740597
1.5387886 0.24701926 -0.520414
1.6306453 0.068377435 -0.37397516
1.6054647 0.26300514 -0.39645475
1.6469576 0.075163186 -0.22460957
1.6265645 0.27145106 -0.2169724
1.5846419 0.06775063 -0.028749838
1.5462083 -0.1468268 -0.31907886
0.9880653 -0.4205212 -0.016722485
1.1007737 -0.2239067 0.083222404
1.1274446 -0.21900135 0.07114802
1.1112549 -0.21236116 0.09176923
1.3555425 -0.17566222 0.025308475
1.4128174 -0.16513622 -0.0009557456
1.4973685 -0.17454875 -0.11613001
1.3771126 -0.14688402 0.043454275
1.5155305 -0.14752698 -0.100541756
1.551618 -0.14292544 -0.20117597
0.5962083 -0.5373818 -0.54121894
0.46020257 -0.48352057 -0.62952876
0.7339811 -0.45869404 -0.6768619
0.5668542 -0.44136864 -0.79079914
0.40647432 -0.57402796 -0.5277804
0.16996397 -0.42387408 -0.5842355
0.30501866 -0.59335345 -0.50941074
0.28731996 -0.43665653 -0.74417937
0.38618347 -0.69314307 -0.4642138
0.8518637 -0.67794603 -0.13969956
0.4799155 -0.7568608 -0.4063033
0.3052315 -0.867186 -0.29975826
0.3550224 -0.78091806 -0.39475858
0.20991682 -0.9675191 -0.13708274
0.041313212 -0.94261533 -0.251203
0.18894145 -0.81278676 -0.37434065
0.0982046 -0.83021384 -0.363845
0.12001929 -0.7570465 -0.4159369
-0.14525512 -0.8255163 -0.36754972
-0.09947237 -0.8681696 -0.3405429
0.03788851 -0.64422053 -0.4603573
-0.13230179 -0.6766425 -0.42968798
-0.051084552 -0.462483 -0.50187665
-0.15702167 -0.48194093 -0.4528321
-0.112356305 -0.40486437 -0.537961
0.1671254 -0.42199498 -0.58599496
0.13686536 -0.62537044 -0.4784156
-0.26373234 -0.5017908 -0.41377163
-0.22815473 -0.69485706 -0.41052485
-0.1603662 -0.8797901 -0.33040273
-0.4305569 -0.73199123 -0.31507593
-0.32570216 -0.9103591 -0.26217306
-0.542582 -0.8057813 -0.16104029
-0.4548352 -0.9319479 -0.11420654
-0.47213542 -0.73922247 -0.27902412
-0.47028202 -0.58733624 -0.32656825
-0.6515635 -0.8359758 -5.8591366e-05
-0.524462 -0.9409116 0.07641266
-0.45886818 -0.98451895 0.11704752
-0.33481234 -1.0316851 -0.042065844
-0.28476667 -1.037638 0.23184913
-0.19413093 -1.0756502 0.11665167
-0.19487333 -1.0774076 0.04987353
-0.07162517 -1.056047 -0.06006293
-0.053558353 -1.0452228 -0.08847256
-0.22768506 -0.9919743 -0.2032773
-0.16159576 -1.0802631 0.07262613
-0.014080349 -1.0448582 -0.061064348
-0.57577986 -0.97401613 0.27704632
-0.40705404 -0.99954754 0.3911817
-0.12839183 -0.99978393 0.34445375
-0.027841423 -1.0408406 0.21632518
-0.0048936047 -1.0440886 0.1852713
0.015023466 -1.0328746 0.20032261
0.15532683 -1.0089159 0.060362726
0.106343254 -1.0254679 0.024569169
0.12815885 -1.0158777 -0.008705288
0.009044405 -0.8647366 0.45471114
-0.7529176 -0.9053157 0.16186833
-0.6255085 -0.9565415 0.24451086
-0.850908 -0.99191695 0.3242122
-0.8362693 -0.995449 0.33396852
-0.6801017 -1.0281248 0.43860546
-0.9549507 -1.0474579 0.485806
-0.78307736 -1.0891423 0.6003315
-0.86270756 -1.0003781 0.34317878
-1.0694577 -1.0492966 0.6461028
-0.8956759 -1.100774 0.76086485
-1.1030093 -1.038831 0.68981403
-1.0965154 -1.0332379 0.86900824
-1.0190495 -1.0571094 0.92006284
-1.196025 -0.98924106 0.8049048
-1.3099889 -0.8732948 0.92957956
-1.287325 -0.86729807 0.995021
-1.1578331 -0.9343607 1.0773509
-1.0658762 -1.024689 0.97579575
-1.3428075 -0.82544094 0.9612015
-1.4134406 -0.69119185 1.0200064
-1.309234 -0.6663167 1.2092347
-1.2185639 -0.8504649 1.1372455
-1.4745499 -0.5023133 1.0493543
-1.3665844 -0.47707623 1.2232448
-1.3540347 -0.51694113 1.2275225
-1.5032165 -0.30824357 1.0319033
-1.3877718 -0.28157014 1.2049206
-1.373326 -0.41793793 1.2251315
-1.5010365 -0.10923773 0.96995616
-1.3796152 -0.08160788 1.1343523
-1.493732 -0.05089599 0.94249606
-1.3525566 0.06496161 1.0532169
-1.4733728 0.09384602 0.8712487
-1.3403665 0.1233297 1.0189333
-1.4431134 0.2788188 0.77428114
-1.3937938 0.30799165 0.8117076
-1.2955474 0.3291586 0.8954793
-1.2920988 0.34418067 0.88622147
-1.4396973 0.2978918 0.7638692
-1.3880485 0.5048137 0.63056356
-1.2397255 0.53674823 0.7561536
-1.3775564 0.53186846 0.60791737
-1.2234551 0.58139026 0.7202403
-1.2876816 0.6601181 0.44456774
-1.1344403 0.7140542 0.55678403
-0.96640307 0.69205767 0.67083406
-1.0416007 0.57665205 0.8099048
-1.0988626 0.5653718 0.8048359
-1.0538452 0.551322 0.83448523
-0.86279655 0.74983704 0.50918615
-0.8358454 0.61536634 0.75283444
-1.4277549 0.49559212 0.5690937
-1.1211873 0.36525965 0.98351103
-1.1985762 0.34941018 0.9516351
-0.8716035 0.4564275 0.95029575
-0.8988418 0.4090392 1.0023236
-1.1282408 0.34363198 0.9997535
-0.95572233 0.29863697 1.1143589
-1.0072291 0.19303814 1.217475
-1.1875776 0.15597886 1.1380816
-0.7909144 0.23585266 1.2449871
-1.036467 0.12352997 1.2788401
-0.8594922 0.055665493 1.3939978
-0.8667198 0.025065362 1.4131391
-1.0723591 -0.016040921 1.3702275
-0.8262773 0.032978833 1.4145072
-0.8846734 -0.17646462 1.4978395
-0.67736334 -0.13604128 1.4989905
-0.8632749 -0.3716975 1.5257746
-0.62524563 -0.32540822 1.5219636
-0.8083591 -0.561567 1.5053612
-0.61605376 -0.5242626 1.4984269
-0.7126152 -0.74490327 1.426053
-0.68655795 -0.7398359 1.4256366
-0.70008105 -0.7624336 1.413755
-0.8370278 -0.8999925 1.3035583
-0.9196003 -0.7862249 1.3850828
-0.5577754 -0.9032584 1.2569036
-0.57707566 -0.9230307 1.2413306
-0.77489275 -0.9617259 1.2351446
-0.6996127 -1.0157194 1.1461009
-0.53668267 -0.9154076 1.2310727
-0.43346077 -0.9517526 1.0978223
-0.5766481 -1.0572848 0.98685205
-0.32092884 -0.9397784 0.9372807
-0.4644986 -1.0433486 0.8262631
-0.21778968 -0.87960047 0.7755749
-0.3613492 -0.9832224 0.6645586
-0.24770862 -0.86476773 0.996361
-0.19618478 -0.85964495 0.792766
-0.18376586 -0.8589342 0.7219899
-0.3761223 -0.8862042 1.1448431
-0.73108387 -1.1050906 0.8744879
-0.6189832 -1.0909033 0.7138928
-0.8536928 -1.06535 1.0337807
-0.9465982 -0.99740213 1.1432836
-0.9903839 -0.9533394 1.1913279
-1.0872391 -0.8212504 1.2873557
-1.1600316 -0.67219585 1.3447907
-1.0262889 -0.6054916 1.4449062
-1.0079174 -0.6017 1.4536777
-1.012821 -0.5873105 1.4562594
-1.1743126 -0.63652664 1.3541567
-1.2273338 -0.44635397 1.3718373
-1.061773 -0.41166097 1.4725618
-0.97809654 -0.39465243 1.5017036
-1.0835485 -0.2243365 1.4474936
-1.3631856 -0.47629303 1.2282577
-1.2417306 -0.65120107 1.2904828
-1.326567 -0.26797134 1.2741827
-1.2504978 -0.25140357 1.3464488
-1.2508254 -0.20624089 1.3335378
-1.0931412 -0.21844631 1.4414971
-1.2402208 -0.051102042 1.2728218
-1.0840204 -0.21656394 1.4458511
-1.1991646 0.118124664 1.1654519
-0.8131878 0.42536765 0.9873463
-0.77930456 0.57223743 0.78724647
-1.5168781 0.40649682 0.4974264
-1.555589 0.27114683 0.591497
-1.6163893 0.25495577 0.41163042
-1.5549833 0.35117126 0.22499128
-1.4755576 0.47964132 0.29430383
-1.4775237 0.4822958 0.42008513
-1.6230972 0.25214416 0.3493313
-1.4279392 0.5395512 0.33396077
-1.4054241 0.4887125 0.104047835
-1.324886 0.60017 0.17224424
-1.6416316 0.20636165 0.38874084
-1.6695994 0.099010766 0.11756224
-1.6048048 0.2516049 0.17940804
-1.7217103 0.031995654 0.31388432
-1.720137 0.029758811 0.2085675
-1.562927 0.14105672 -0.043705687
-1.5131893 0.2652338 0.0045496523
-1.4371747 0.0851838 -0.20260875
-1.3850734 0.28660685 -0.14414589
-1.4506397 0.40516856 0.063434735
-1.3389195 0.42130864 -0.09720747
-1.2370595 0.3122016 -0.27857894
-1.2179884 0.39017785 -0.2567081
-1.143239 0.32893053 -0.34286422
-1.1647881 0.5281497 -0.20452197
-1.300437 0.5051784 -0.061225936
-1.6952337 0.031804323 0.09233612
-1.5984353 0.04653293 -0.0788071
-1.7358435 -0.17742622 0.04097353
-1.6366403 -0.16218746 -0.12844606
-1.717201 -0.3740855 0.03208162
-1.6173064 -0.35869998 -0.13684241
-1.7611039 -0.37759155 0.24113889
-1.7768167 -0.18031067 0.25213072
-1.684072 -0.5618625 0.27409905
-1.645721 -0.5595345 0.0610622
-1.6816113 -0.56004745 0.3294018
-1.752466 -0.37272853 0.37280703
-1.6449506 -0.6169757 0.29510581
-1.6505063 -0.54893225 0.5386843
-1.5907961 -0.6440149 0.56953007
-1.5375115 -0.7274458 0.519886
-1.5417453 -0.7322802 0.35386106
-1.4411385 -0.8225704 0.41358972
-1.3169446 -0.8704452 0.25449353
-1.5072972 -0.7307803 0.13802674
-1.3928497 -0.7317807 -0.022626504
-1.5061482 -0.7306271 0.1350986
-1.2064097 -0.8482216 0.09370433
-1.5080504 -0.7300586 0.13758442
-1.4111823 -0.7161967 -0.033606514
-1.5465848 -0.5443099 -0.108405426
-1.2955906 -0.64142674 -0.185061
-1.3921151 -0.5173455 -0.23821114
-1.3489466 -0.7054718 -0.091664895
-1.4658961 -0.33238477 -0.26884115
-1.2476825 -0.49061066 -0.29654056
-1.2510525 -0.29249287 -0.3504821
-1.3059576 -0.102621675 -0.33008397
-1.4835383 -0.13551319 -0.25923216
-1.4271 0.07665026 -0.21413852
-1.4409897 0.07412869 -0.2064798
-1.1588513 -0.47366363 -0.3115391
-1.245535 -0.2914403 -0.35141748
-1.2433368 -0.6863944 -0.15382488
-1.1082826 -0.7623219 -0.068622574
-1.0471792 -0.6489833 -0.18741857
-0.94984037 -0.82473916 0.034291953
-0.9232417 -0.8196079 0.032150567
-0.8477351 -0.6695935 -0.1175956
-0.9326933 -0.62629515 -0.1716889
-1.027667 -0.5865522 -0.23311986
-0.93106776 -0.83141845 0.046564937
-1.0263969 -0.931678 0.20923863
-1.1715441 -0.8659684 0.11590594
-1.1329753 -0.97420496 0.37051815
-1.2928144 -0.885889 0.2695083
-1.2510725 -0.95761937 0.53037
-1.3504235 -0.89230293 0.46874148
-1.357698 -0.8891292 0.658854
-1.0936277 -1.0384343 0.6305521
-1.0108824 -1.0266871 0.44933608
-0.829107 -0.6058875 -0.16244124
-0.713425 -0.78038865 -0.036777094
-1.5286695 -0.72369725 0.6037595
-1.384247 -0.8636562 0.6883533
-1.4912559 -0.7118439 0.7927088
-1.6360997 -0.54456466 0.6032975
-1.5649769 -0.5249836 0.8402489
-1.686734 -0.35401005 0.6175349
-1.6023545 -0.33230764 0.8353638
-1.7003632 -0.15753394 0.5783925
-1.6069275 -0.13438237 0.7831575
-1.6971234 -0.098342836 0.556352
-1.6238536 0.058566272 0.6245519
-1.5870605 0.0674538 0.6956969
-1.5783473 0.13246852 0.6642967
-1.6808146 0.044251204 0.49139124
-1.7538801 -0.05794853 0.2816052
-1.7176515 -0.16194904 0.53506535
-1.7714561 -0.17711025 0.34139803
-1.7202278 -0.36311024 0.51096404
-1.564841 -0.5249483 0.840613
-1.4616586 -0.70367116 0.89231724
-1.5421969 -0.11891478 0.90135276
-1.6019479 -0.3322065 0.8362702
-1.354494 -0.8873579 0.7063499
-0.51579875 -1.0309579 0.5521927
-0.57078993 -0.75593513 -0.17506571
0.034521516 -0.82231444 0.4770789
-0.052576188 -0.83794147 0.5327488
-0.11147645 -0.83571166 0.6142626
-0.12645248 -0.85065883 0.6022225
-0.7079732 0.63823885 0.6681933
-0.65338326 0.64826983 0.64309305
-0.6830726 0.66786355 0.62468463
-0.6440085 0.8389314 0.1775755
-0.98190135 0.5611433 -0.31395918
0.028214902 0.35872877 -0.27615345
-0.15218858 0.32433328 -0.24480163
-0.19176903 0.25356424 -0.28009093
-0.0895651 0.31854182 -0.44191253
0.077935204 0.29930004 -0.32792908
-0.22956207 0.30927947 -0.24385624
-0.35463548 0.2490251 -0.3935001
-0.37688944 0.2775042 -0.3708827
-0.5108009 0.21009582 -0.50607884
-0.53205323 0.24447495 -0.48660523
-0.6441223 0.019684672 -0.6056893
-0.6259255 0.023207963 -0.60661966
-0.7468797 0.20189857 -0.516264
-0.8116654 0.32427442 -0.4621026
-0.6293434 0.42756376 -0.4050666
-0.7940182 0.39458233 -0.44206953
-0.6936538 0.55900955 -0.35425264
-0.8386659 0.3858681 -0.44266486
-0.838247 0.1845839 -0.4960261
-0.40298387 0.06647146 -0.6139853
-0.24147019 0.50603104 -0.28548133
-0.2914623 0.69668835 -0.27217013
-0.44974098 0.46450365 -0.32459682
-0.5341998 0.6496457 -0.26156735
0.92656976 0.5270828 -0.5533921
0.8800013 0.71828806 -0.5450195
1.507812 0.44603586 -0.31439304
0.8796308 0.9250859 -0.2637413
0.7247848 0.90030766 -0.040376022
0.5486658 0.8684511 0.06153734
0.8001604 0.88241565 -0.48221248
0.7846696 0.90169024 -0.46630597
0.65958565 0.76347446 -0.5928587
0.70985895 0.682862 -0.6391354
1.0101609 0.341802 -0.61517006
1.0499648 0.34973088 -0.608011
1.0241878 0.3221938 -0.62893534
0.86351806 0.31017324 -0.7416517
0.56969386 0.85909 -0.49574965
0.79581547 0.49795955 -0.70432514
0.7017066 0.29642797 -0.85535073
0.86263883 0.3108933 -0.74218124
0.7087416 0.277169 -0.85946476
0.8629655 0.31004784 -0.74238676
0.67372006 0.2699046 -0.8776945
0.8404569 -0.2977252 -0.87305677
1.0262786 -0.25979012 -0.8015584
1.0140098 -0.063096344 -0.8426633
0.842102 -0.09880489 -0.93423235
0.6610697 -0.33463067 -0.9538368
0.683832 -0.13233125 -1.0454739
0.4987172 -0.34257096 -1.0669564
0.6566357 -0.33556384 -0.9567033
0.5199788 -0.16675085 -1.148662
0.6318309 0.058004677 -1.0292648
0.47027588 0.023952723 -1.1357678
0.40897286 0.11799747 -1.0780792
0.5569542 0.19892722 -0.96651495
0.53114086 0.24054939 -0.94282186
0.29186475 0.1940606 -0.9372121
0.66097015 -0.33488333 -0.9536233
0.40409902 -0.44647902 -0.9041945
0.48573935 -0.37088698 -1.0404689
0.40542173 0.38710362 -0.8108069
0.15444952 0.24523512 -0.7606472
0.2783875 0.19867337 -0.919775
0.350355 -0.19993162 -1.1539841
0.021136131 0.14306605 -0.8643991
0.26985246 0.19002643 -0.926651
0.0129409395 0.13108748 -0.8714092
0.15327552 0.00037789345 -1.028505
0.0051611327 0.13998252 -0.86318827
-0.024350021 -0.06719911 -0.91925704
0.14635476 -0.036790133 -1.0374259
0.047732677 -0.2525202 -0.8898444
0.17145976 -0.23207825 -1.0416857
0.10010739 -0.31625158 -0.86060584
0.21478699 -0.31529933 -1.0208813
0.26404637 -0.21590513 -1.1190255
-0.10802594 -0.27975816 -0.7609624
-0.21993011 -0.10288578 -0.8189181
0.19379595 -0.02848941 -1.0764917
-0.12627776 0.25606954 -0.714175
0.027271215 0.308426 -0.60192066
0.23733306 -0.41290802 -0.7761977
0.30311492 -0.40476018 -0.9695728
-0.009614158 -0.34264892 -0.69971585
0.18514127 0.33860675 -0.48913074
-0.6702801 -0.40131575 -0.44457942
-0.49094245 -0.5441882 -0.3361044
-0.4642062 -0.5392963 -0.34926456
-0.40264136 -0.3449797 -0.49267364
-0.42005005 -0.33434153 -0.5035619
-0.65492386 -0.37935787 -0.472503
-0.39711335 -0.32990324 -0.50484854
-0.7695688 -0.48125416 -0.2823965
-0.664141 -0.57512635 -0.21972303
-0.68957096 -0.38571578 -0.45622212
-0.8550325 -0.41501242 -0.33429503
-0.8165092 -0.21203321 -0.524954
-0.97642964 -0.24015409 -0.39905506
-0.59980464 -0.17350715 -0.6103335
-0.6006654 -0.17204732 -0.6107683
-0.5997551 -0.1718728 -0.61088634
1.4871237 0.46751574 -0.29188848
1.5116547 0.4476857 -0.27708274
1.5946687 -0.08440572 -0.2785595
1.1582929 -0.23046523 -0.6524429
1.1692271 -0.030058444 -0.72701806
1.1177993 0.16036913 -0.7116358
1.1413321 -0.27899206 -0.61441666
0.9420487 0.12404561 -0.7976618
0.99481505 -0.367436 -0.7257995
0.9780001 -0.4505698 -0.027033523
0.8702572 -0.6562999 -0.12454717
0.33569446 -0.0024274588 -1.1422377
-0.238518 0.2425982 -0.55359733
0.78230613 0.09028369 -0.90677917
0.8262119 -0.3425339 -0.8399198
-0.31784198 -0.19068164 -0.65665233
-0.23215641 -0.3002857 -0.60941017
-0.22051643 -0.10298723 -0.81839216
-0.34910038 -0.12448251 -0.6709783
-0.22386658 0.09689361 -0.7994852
-0.3524401 0.07542348 -0.65111774
-0.3614618 0.033175826 -0.66205853
-0.6298064 -0.019537985 -0.6140519
-0.854351 -0.019447386 -0.5298236
-0.9991327 -0.04532379 -0.43313265
-1.0525898 0.14477903 -0.41482335
-1.0579319 0.14378303 -0.41296494
-1.0319102 -0.0513106 -0.4165678
-0.98522466 -0.21487814 -0.40234834
-1.2636116 -0.094661 -0.34211987
-0.9870747 -0.2420513 -0.39172393
-1.2603899 0.10663706 -0.31755608
-1.0063841 -0.44379824 -0.30506754
-0.25190908 -0.95538133 0.50363386
-1.0594354 0.16597134 -0.41154587
-1.055858 0.3448376 -0.389224
3 2 1 0
3 2 3 1
3 4 6 5
3 8 5 7
3 7 10 9
3 11 7 12
3 14 11 12
3 13 15 16
3 6 10 5
3 19 17 6
3 18 21 20
3 21 22 20
3 23 24 22
3 27 24 26
3 28 26 29
3 31 26 30
3 33 24 25
3 32 35 34
3 36 32 34
3 38 36 34
3 39 38 34
3 36 37 30
3 38 41 40
3 41 43 42
3 44 41 42
3 47 45 42
3 48 42 43
3 49 46 47
3 48 50 47
3 51 44 42
3 37 52 53
3 54 52 55
3 57 53 54
3 56 57 58
3 57 59 58
3 59 62 61
3 63 59 61
3 62 60 64
3 62 66 65
3 67 62 65
3 70 68 66
3 65 66 68
3 68 72 71
3 68 73 74
3 74 75 76
3 78 74 76
3 79 78 76
3 78 79 80
3 79 81 80
3 81 82 80
3 82 78 80
3 79 83 81
3 84 81 83
3 82 85 77
3 78 82 77
3 87 86 88
3 89 88 86
3 87 88 90
3 92 90 88
3 94 91 92
3 94 95 96
3 97 95 98
3 97 99 100
3 102 99 101
3 103 102 101
3 102 103 104
3 104 106 105
3 107 104 105
3 109 105 108
3 110 109 108
3 109 110 111
3 112 111 113
3 114 111 115
3 114 115 116
3 116 118 117
3 119 116 117
3 119 120 121
3 122 121 120
3 121 123 124
3 125 123 126
3 125 127 128
3 128 127 129
3 131 128 129
3 132 131 133
3 134 133 131
3 130 132 135
3 137 133 134
3 138 137 139
3 140 139 137
3 138 139 141
3 139 142 141
3 143 144 142
3 146 143 145
3 147 146 145
3 149 146 147
3 152 150 146
3 153 146 148
3 153 148 154
3 155 151 152
3 155 157 156
3 151 155 156
3 160 158 155
3 162 159 160
3 162 163 164
3 165 162 164
3 166 163 167
3 166 168 169
3 170 166 169
3 172 159 161
3 173 172 161
3 171 158 159
3 157 175 156
3 158 177 157
3 177 179 178
3 181 178 179
3 181 182 180
3 182 184 180
3 182 186 185
3 186 187 188
3 190 188 187
3 190 191 189
3 192 193 191
3 196 194 192
3 193 192 194
3 199 197 196
3 195 196 197
3 198 199 200
3 201 197 202
3 203 201 202
3 204 203 202
3 205 204 202
3 206 202 197
3 198 206 197
3 207 193 194
3 209 207 194
3 210 208 209
3 189 211 188
3 212 213 211
3 212 215 214
3 216 217 215
3 219 215 220
3 217 220 215
3 218 222 221
3 224 218 221
3 225 224 221
3 224 226 223
3 227 229 228
3 230 227 228
3 232 228 229
3 232 233 231
3 236 233 234
3 236 237 235
3 239 235 237
3 239 240 241
3 242 241 240
3 243 240 244
3 245 243 244
3 246 244 238
3 246 247 245
3 238 240 237
3 236 249 248
3 246 236 248
3 250 229 251
3 225 251 229
3 227 252 226
3 253 226 252
3 253 254 213
3 226 253 213
3 254 255 256
3 257 253 252
3 259 257 252
3 260 259 252
3 260 262 261
3 259 260 261
3 262 263 264
3 265 259 261
3 257 258 266
3 258 267 266
3 268 269 267
3 271 267 269
3 270 268 272
3 273 269 274
3 273 275 271
3 275 267 271
3 275 278 277
3 276 275 277
3 278 279 280
3 281 280 282
3 283 282 280
3 282 284 285
3 286 285 284
3 285 286 287
3 288 287 289
3 290 289 291
3 292 291 289
3 290 293 288
3 296 293 294
3 296 297 295
3 295 277 281
3 291 292 176
3 298 292 289
3 300 287 301
3 286 301 287
3 303 300 302
3 304 299 303
3 300 305 302
3 307 303 302
3 288 282 285
3 283 308 284
3 309 284 310
3 308 310 284
3 309 312 311
3 314 312 310
3 313 314 315
3 309 311 316
3 311 124 316
3 318 124 319
3 318 305 316
3 312 317 311
3 308 283 280
3 278 281 277
3 321 267 276
3 230 260 252
3 251 225 221
3 220 217 322
3 218 214 215
3 254 211 213
3 214 226 213
3 185 290 184
3 200 181 179
3 180 184 178
3 323 149 147
3 149 324 325
3 326 325 324
3 327 326 328
3 330 327 328
3 331 330 332
3 334 331 332
3 336 334 335
3 338 336 335
3 337 339 336
3 341 337 340
3 342 341 340
3 343 339 341
3 342 344 341
3 347 344 345
3 348 345 349
3 351 348 349
3 353 350 351
3 354 353 355
3 356 355 353
3 358 355 356
3 359 358 356
3 361 359 360
3 362 355 357
3 355 362 354
3 362 363 354
3 364 354 365
3 363 365 354
3 367 364 365
3 367 368 366
3 350 369 348
3 372 370 346
3 344 346 370
3 371 372 373
3 173 371 373
3 374 372 346
3 375 346 376
3 347 376 346
3 374 375 377
3 378 203 377
3 375 378 377
3 378 375 376
3 379 378 376
3 380 338 335
3 382 380 381
3 383 382 381
3 380 384 381
3 381 386 385
3 387 381 385
3 386 384 388
3 333 389 331
3 390 334 332
3 390 330 391
3 392 390 391
3 390 392 388
3 330 393 391
3 391 394 395
3 396 395 394
3 395 396 397
3 396 398 397
3 401 397 398
3 402 401 403
3 402 403 404
3 402 385 400
3 406 400 385
3 407 401 408
3 400 406 397
3 399 409 398
3 411 408 398
3 409 411 398
3 411 412 410
3 414 410 412
3 410 414 415
3 413 416 412
3 413 418 417
3 421 418 422
3 419 422 418
3 423 419 424
3 425 424 419
3 422 423 426
3 427 423 424
3 418 429 428
3 421 430 420
3 431 426 432
3 433 431 432
3 435 433 432
3 436 434 435
3 427 436 435
3 324 430 433
3 431 433 430
3 417 438 416
3 438 441 440
3 439 442 441
3 442 443 441
3 445 441 443
3 443 447 446
3 450 448 446
3 447 450 446
3 448 449 451
3 453 451 454
3 449 454 451
3 452 453 456
3 459 457 456
3 453 459 456
3 462 460 457
3 458 462 457
3 465 463 460
3 461 465 460
3 467 463 464
3 467 468 466
3 469 470 468
3 471 473 472
3 470 471 472
3 473 474 475
3 478 476 475
3 473 475 476
3 477 480 479
3 480 481 479
3 483 480 484
3 485 484 480
3 484 485 486
3 487 482 483
3 484 488 483
3 489 477 479
3 485 475 486
3 491 486 475
3 493 486 490
3 495 490 494
3 497 495 494
3 498 495 496
3 500 496 499
3 502 500 499
3 501 503 500
3 503 504 505
3 120 504 506
3 507 120 506
3 123 506 508
3 509 123 508
3 511 508 510
3 511 510 512
3 512 514 513
3 516 512 513
3 517 516 513
3 516 517 518
3 519 518 520
3 521 520 518
3 522 521 523
3 525 522 523
3 527 522 524
3 528 527 524
3 522 529 520
3 523 530 531
3 529 519 520
3 521 532 530
3 517 532 518
3 532 455 450
3 516 519 515
3 513 535 534
3 514 537 536
3 535 514 536
3 537 538 539
3 539 541 540
3 537 539 540
3 543 542 539
3 542 543 544
3 541 462 540
3 546 540 462
3 541 547 465
3 545 541 465
3 547 548 549
3 548 550 549
3 502 549 552
3 550 552 549
3 552 550 544
3 540 546 536
3 537 540 536
3 535 454 534
3 508 514 510
3 508 543 539
3 538 508 539
3 504 544 506
3 543 506 544
3 551 499 553
3 493 554 492
3 106 555 492
3 554 106 492
3 476 489 556
3 557 476 556
3 558 557 556
3 561 559 556
3 562 556 559
3 560 561 563
3 565 560 563
3 481 565 563
3 558 562 566
3 566 568 567
3 570 566 567
3 568 571 567
3 574 571 572
3 574 575 576
3 578 574 576
3 579 577 578
3 580 576 581
3 583 567 571
3 583 584 582
3 585 586 584
3 584 588 589
3 588 591 590
3 588 592 593
3 592 590 594
3 595 594 596
3 598 596 594
3 597 598 599
3 598 600 599
3 600 603 602
3 604 600 602
3 603 601 605
3 607 603 605
3 591 607 605
3 607 608 606
3 610 606 608
3 611 607 587
3 611 612 609
3 611 614 613
3 615 616 614
3 616 617 573
3 619 612 613
3 609 612 608
3 620 610 608
3 621 602 620
3 610 620 602
3 620 622 621
3 625 623 621
3 626 621 622
3 626 622 627
3 623 624 628
3 623 629 630
3 632 629 631
3 634 631 633
3 635 634 633
3 637 633 631
3 626 638 625
3 639 624 625
3 621 630 604
3 603 606 602
3 632 599 600
3 640 599 641
3 635 599 634
3 642 640 641
3 642 643 596
3 640 642 596
3 644 645 643
3 648 645 646
3 648 650 649
3 647 648 649
3 650 651 652
3 650 653 649
3 653 654 649
3 656 649 654
3 657 656 593
3 589 656 654
3 655 647 649
3 655 645 647
3 645 595 643
3 658 642 659
3 597 640 596
3 595 593 592
3 583 615 585
3 584 654 582
3 570 582 654
3 569 653 566
3 564 559 560
3 568 562 559
3 474 491 475
3 473 476 472
3 470 652 651
3 553 471 469
3 467 553 469
3 660 466 468
3 660 463 466
3 461 545 465
3 547 464 465
3 463 658 460
3 545 461 462
3 458 546 462
3 460 659 457
3 546 459 536
3 535 536 459
3 457 659 456
3 456 642 641
3 662 456 641
3 459 453 454
3 533 454 455
3 451 635 633
3 448 633 636
3 455 449 450
3 447 532 450
3 448 636 446
3 444 530 447
3 636 443 446
3 663 444 442
3 637 445 443
3 441 445 440
3 664 416 639
3 664 414 412
3 408 401 398
3 399 396 394
3 168 325 327
3 324 665 437
3 665 666 437
3 150 144 146
3 323 145 665
3 150 175 142
3 144 150 142
3 175 141 142
3 303 138 141
3 304 303 141
3 143 140 145
3 137 528 667
3 140 137 667
3 528 668 667
3 668 666 667
3 136 307 133
3 307 132 133
3 526 131 529
3 131 515 529
3 519 529 515
3 125 130 135
3 319 125 135
3 126 511 127
3 125 319 124
3 122 507 123
3 317 121 124
3 317 119 121
3 117 505 120
3 118 505 117
3 312 114 116
3 320 312 116
3 274 112 113
3 118 115 111
3 114 315 113
3 109 112 107
3 269 107 274
3 112 274 107
3 106 554 105
3 106 103 101
3 270 100 102
3 99 669 555
3 101 99 555
3 669 670 671
3 669 488 555
3 272 97 100
3 262 96 261
3 239 91 93
3 262 93 94
3 87 672 85
3 89 487 671
3 92 89 95
3 580 75 73
3 72 673 71
3 90 61 87
3 672 87 61
3 67 672 61
3 243 63 242
3 62 67 61
3 675 52 674
3 674 677 676
3 675 674 676
3 679 675 676
3 679 680 681
3 683 680 682
3 682 684 683
3 686 683 684
3 688 686 687
3 689 688 687
3 688 689 690
3 691 689 687
3 686 692 687
3 693 685 682
3 674 40 678
3 55 679 694
3 54 694 695
3 695 696 697
3 17 220 10
3 699 3 698
3 365 357 700
3 358 700 357
3 6 0 19
3 701 19 0
3 702 18 20
3 17 702 222
3 219 17 222
3 702 703 222
3 701 704 705
3 0 699 704
3 699 706 704
3 3 709 708
3 698 3 708
3 708 709 710
3 711 708 710
3 701 23 21
3 702 22 27
3 703 702 27
3 705 706 712
3 707 50 706
3 712 33 25
3 48 43 35
3 32 30 24
3 26 24 30
3 707 698 713
3 703 221 222
3 713 47 707
3 50 707 47
3 713 714 49
3 715 716 714
3 711 717 715
3 716 718 714
3 722 720 719
3 724 719 723
3 724 726 725
3 727 724 725
3 728 727 729
3 728 730 731
3 732 730 733
3 732 718 731
3 726 723 734
3 726 383 735
3 736 726 735
3 706 48 35
3 712 35 33
3 45 46 737
3 45 739 738
3 51 45 738
3 740 727 725
3 45 51 42
3 742 738 739
3 741 744 743
3 745 741 743
3 744 746 743
3 747 748 746
3 749 750 748
3 749 752 751
3 746 753 754
3 755 747 744
3 741 756 738
3 757 738 756
3 759 750 751
3 758 735 387
3 758 760 750
3 41 44 761
3 250 28 249
3 250 703 27
3 28 250 27
3 368 15 203
3 250 234 232
3 196 181 199
3 231 264 263
3 263 230 228
3 231 263 228
3 28 248 249
3 23 712 25
3 235 93 233
3 264 233 93
3 97 261 96
3 30 53 31
3 56 31 53
3 38 674 52
3 245 58 59
3 243 245 59
3 697 70 66
3 764 762 765
3 767 765 762
3 763 764 415
3 766 768 765
3 762 770 769
3 770 638 769
3 771 769 772
3 773 772 774
3 773 775 771
3 767 771 775
3 776 777 775
3 407 764 765
3 489 481 563
3 561 489 563
3 779 700 778
3 700 367 365
3 364 366 780
3 779 11 13
3 367 13 16
3 368 379 780
3 366 368 780
3 210 14 12
3 15 210 209
3 201 15 209
3 203 204 377
3 700 361 778
3 363 362 357
3 364 369 350
3 352 364 350
3 379 347 369
3 348 369 347
3 210 7 9
3 208 210 9
3 204 373 377
3 372 377 373
3 359 709 360
3 782 351 781
3 359 783 710
3 709 359 710
3 356 782 783
3 781 349 784
3 4 361 360
3 3 4 360
3 784 345 342
3 10 322 9
3 710 785 711
3 717 711 785
3 783 721 785
3 720 784 786
3 786 342 340
3 169 327 329
3 737 733 739
3 392 397 388
3 406 388 397
3 193 322 191
3 217 191 322
3 201 194 195
3 172 198 200
3 171 172 200
3 191 212 189
3 196 190 183
3 171 179 174
3 296 185 186
3 19 701 21
3 162 370 161
3 173 370 371
3 165 787 370
3 160 152 163
3 255 257 266
3 321 255 266
3 292 304 176
3 175 176 304
3 43 34 35
3 11 361 8
3 379 369 780
3 343 787 788
3 207 9 322
3 206 173 373
3 205 206 373
3 164 170 788
3 787 164 788
3 170 389 788
3 188 254 256
3 296 188 256
3 290 177 178
3 184 290 178
3 167 152 153
3 708 715 698
3 713 698 715
3 782 720 721
3 389 336 788
3 343 336 339
3 389 169 329
3 331 389 329
3 148 325 154
3 733 742 739
3 725 759 751
3 752 725 751
3 789 752 755
3 335 390 388
3 380 388 384
3 757 790 677
3 760 402 404
3 395 392 391
3 421 422 426
3 98 670 99
3 696 690 697
3 70 697 690
3 716 785 791
3 785 722 791
3 720 792 719
3 786 382 792
3 791 731 716
3 718 716 731
3 728 722 724
3 719 734 723
3 718 737 714
3 49 737 46
3 792 383 734
3 41 678 40
3 729 789 730
3 789 727 740
3 726 736 725
3 730 755 744
3 733 744 742
3 749 755 752
3 759 736 735
3 753 793 754
3 795 754 793
3 794 768 793
3 796 795 793
3 405 387 385
3 337 382 340
3 735 381 387
3 678 757 677
3 745 797 756
3 797 743 754
3 746 754 743
3 748 760 753
3 797 790 756
3 795 796 799
3 794 760 404
3 676 790 680
3 790 693 682
3 680 790 682
3 693 798 799
3 797 795 799
3 798 797 799
3 684 685 800
3 777 776 800
3 766 767 775
3 801 686 684
3 803 801 802
3 805 803 802
3 805 802 806
3 807 806 619
3 808 619 806
3 774 808 806
3 809 805 807
3 801 800 773
3 776 773 800
3 771 767 762
3 577 616 573
3 574 577 573
3 769 626 627
3 810 769 627
3 618 810 627
3 370 343 341
3 344 370 341
3 150 151 156
3 434 324 433
3 305 135 302
3 132 302 135
3 666 811 437
3 430 437 811
3 44 738 757
3 761 44 757
3 386 406 385
3 393 427 424
3 394 393 424
3 430 429 420
3 429 525 663
3 793 766 775
3 796 775 777
3 408 415 407
3 764 407 415
3 411 409 425
3 770 415 664
3 414 664 415
3 413 425 419
3 604 632 600
3 417 428 439
3 256 321 297
3 190 182 183
3 157 291 176
3 297 276 277
3 295 282 293
3 299 289 287
3 279 273 315
3 314 279 315
3 310 280 314
3 279 314 280
3 301 316 300
3 305 300 316
3 168 153 154
3 258 265 272
3 268 258 272
3 138 306 136
3 273 113 315
3 119 320 116
3 318 319 135
3 695 66 64
3 394 425 399
3 409 399 425
3 429 442 428
3 554 495 105
3 108 105 495
3 549 467 464
3 547 549 464
3 224 225 229
3 665 140 667
3 666 665 667
3 269 102 104
3 301 286 284
3 526 137 134
3 110 500 111
3 118 500 503
3 507 122 120
3 127 512 129
3 515 129 512
3 57 695 64
3 60 57 64
3 427 432 426
3 423 427 426
3 663 523 531
3 499 497 553
3 550 541 544
3 542 544 541
3 579 813 812
3 639 438 628
3 624 639 628
3 572 559 575
3 586 607 591
3 445 631 440
3 629 440 631
3 470 648 468
3 660 468 648
3 658 646 644
3 452 662 451
3 31 58 247
3 242 90 241
3 91 241 90
3 669 487 483
3 488 669 483
3 69 70 690
3 696 683 688
3 404 407 765
3 794 765 768
3 65 74 77
3 482 83 481
3 813 72 691
3 692 812 687
3 813 687 812
3 773 806 801
3 802 801 806
3 673 579 578
3 580 673 578
3 809 579 812
3 804 809 812
3 619 810 618
3 581 575 564
3 582 570 567
3 591 594 590
3 236 246 238
3 555 484 486
3 492 555 486
3 498 110 108
3 509 126 123
3 67 77 672
3 85 672 77
3 694 681 696
3 86 81 84
3 487 86 84
3 478 485 480
3 491 471 494
3 497 494 471
3 673 73 71
3 803 804 812
3 808 772 810
3 581 565 75
3 489 561 556
3 557 566 652
3 653 652 566
3 643 595 596
3 248 31 247
3 434 393 326
3 328 326 393
3 98 89 671
3 670 98 671
3 528 525 668
3 811 668 525
3 490 491 494
3 504 502 552
3 533 513 534
3 69 689 691
3 72 69 691
3 796 800 799
3 693 800 685
3 770 639 625
3 638 770 625
3 83 75 565
3 438 629 628
3 472 557 652
3 661 648 646
3 635 662 641
3 809 614 616
3 807 613 614
3 627 620 608
3 612 627 608
3 573 583 571
3 585 611 587
3 606 610 602
3 569 570 654
3 656 588 593
3 605 598 594
3 2 4 3
3 4 2 6
3 8 4 5
3 7 5 10
3 11 8 7
3 14 13 11
3 13 14 15
3 6 17 10
3 19 18 17
3 18 19 21
3 21 23 22
3 23 25 24
3 27 22 24
3 28 27 26
3 31 29 26
3 33 32 24
3 32 33 35
3 38 37 36
3 38 39 41
3 41 39 43
3 47 46 45
3 48 47 42
3 37 38 52
3 54 53 52
3 57 56 53
3 57 60 59
3 59 60 62
3 62 64 66
3 70 69 68
3 68 69 72
3 68 71 73
3 74 73 75
3 78 77 74
3 79 76 83
3 82 86 85
3 87 85 86
3 92 91 90
3 94 93 91
3 94 92 95
3 97 96 95
3 97 98 99
3 102 100 99
3 104 103 106
3 109 107 105
3 112 109 111
3 114 113 111
3 116 115 118
3 119 117 120
3 121 122 123
3 125 124 123
3 125 126 127
3 131 130 128
3 132 130 131
3 137 136 133
3 138 136 137
3 139 143 142
3 146 144 143
3 149 148 146
3 152 151 150
3 153 152 146
3 155 158 157
3 160 159 158
3 162 161 159
3 162 160 163
3 166 164 163
3 166 167 168
3 172 171 159
3 171 174 158
3 157 176 175
3 158 174 177
3 177 174 179
3 181 180 178
3 181 183 182
3 182 185 184
3 182 187 186
3 190 189 188
3 190 192 191
3 196 195 194
3 199 198 197
3 201 195 197
3 203 15 201
3 206 205 202
3 209 208 207
3 189 212 211
3 212 214 213
3 212 216 215
3 219 218 215
3 218 219 222
3 224 223 218
3 224 227 226
3 227 224 229
3 232 231 228
3 232 234 233
3 236 235 233
3 236 238 237
3 239 237 240
3 243 242 240
3 246 245 244
3 246 248 247
3 238 244 240
3 236 234 249
3 250 232 229
3 227 230 252
3 253 255 254
3 259 258 257
3 260 263 262
3 258 268 267
3 268 270 269
3 273 271 269
3 275 276 267
3 275 279 278
3 281 278 280
3 282 283 284
3 288 285 287
3 290 288 289
3 290 294 293
3 296 295 293
3 296 256 297
3 295 297 277
3 300 299 287
3 303 299 300
3 304 298 299
3 307 306 303
3 288 293 282
3 309 301 284
3 309 310 312
3 314 313 312
3 311 317 124
3 318 316 124
3 312 320 317
3 321 266 267
3 218 223 214
3 214 223 226
3 185 294 290
3 200 199 181
3 149 323 324
3 327 325 326
3 330 329 327
3 331 329 330
3 334 333 331
3 336 333 334
3 338 337 336
3 341 339 337
3 342 345 344
3 347 346 344
3 348 347 345
3 351 350 348
3 353 352 350
3 354 352 353
3 358 357 355
3 361 358 359
3 364 352 354
3 367 366 364
3 367 16 368
3 372 371 370
3 375 374 346
3 378 368 203
3 382 338 380
3 381 384 386
3 390 332 330
3 330 328 393
3 391 393 394
3 396 399 398
3 401 400 397
3 402 400 401
3 402 405 385
3 407 403 401
3 411 410 408
3 411 413 412
3 413 417 416
3 413 419 418
3 421 420 418
3 423 422 419
3 418 420 429
3 421 431 430
3 431 421 426
3 435 434 433
3 324 437 430
3 417 439 438
3 438 439 441
3 439 428 442
3 442 444 443
3 443 444 447
3 450 449 448
3 453 452 451
3 449 455 454
3 459 458 457
3 462 461 460
3 465 464 463
3 467 466 463
3 467 469 468
3 469 471 470
3 471 474 473
3 478 477 476
3 477 478 480
3 480 482 481
3 483 482 480
3 487 84 482
3 485 478 475
3 491 490 486
3 493 492 486
3 495 493 490
3 497 496 495
3 498 108 495
3 500 498 496
3 502 501 500
3 503 501 504
3 120 505 504
3 123 507 506
3 511 509 508
3 512 510 514
3 516 515 512
3 519 516 518
3 522 520 521
3 525 524 522
3 527 526 522
3 522 526 529
3 523 521 530
3 521 518 532
3 517 533 532
3 532 533 455
3 513 514 535
3 514 538 537
3 539 542 541
3 541 545 462
3 541 548 547
3 502 551 549
3 535 459 454
3 508 538 514
3 508 506 543
3 504 552 544
3 551 502 499
3 106 101 555
3 476 477 489
3 561 560 559
3 562 558 556
3 565 564 560
3 481 83 565
3 566 562 568
3 570 569 566
3 568 572 571
3 574 573 571
3 574 572 575
3 578 577 574
3 580 578 576
3 583 582 567
3 583 585 584
3 585 587 586
3 584 586 588
3 588 586 591
3 588 590 592
3 595 592 594
3 598 597 596
3 598 601 600
3 600 601 603
3 607 606 603
3 607 609 608
3 611 609 607
3 611 613 612
3 611 615 614
3 615 617 616
3 619 618 612
3 621 604 602
3 625 624 623
3 626 625 621
3 623 628 629
3 632 630 629
3 634 632 631
3 637 636 633
3 621 623 630
3 632 634 599
3 640 597 599
3 635 641 599
3 642 644 643
3 644 646 645
3 648 647 645
3 648 651 650
3 653 569 654
3 656 655 649
3 657 655 656
3 655 657 645
3 645 657 595
3 658 644 642
3 595 657 593
3 583 617 615
3 584 589 654
3 564 575 559
3 470 472 652
3 553 497 471
3 467 551 553
3 660 661 463
3 463 661 658
3 460 658 659
3 546 458 459
3 456 659 642
3 662 452 456
3 533 534 454
3 451 662 635
3 448 451 633
3 447 530 532
3 444 531 530
3 636 637 443
3 663 531 444
3 664 412 416
3 168 154 325
3 324 323 665
3 323 147 145
3 150 156 175
3 175 304 141
3 303 306 138
3 143 139 140
3 137 527 528
3 136 306 307
3 526 134 131
3 131 129 515
3 125 128 130
3 126 509 511
3 317 320 119
3 118 503 505
3 312 313 114
3 114 313 315
3 269 104 107
3 270 272 100
3 99 670 669
3 272 265 97
3 262 94 96
3 239 241 91
3 262 264 93
3 89 86 487
3 92 88 89
3 580 581 75
3 90 63 61
3 243 59 63
3 675 55 52
3 674 678 677
3 679 676 680
3 683 681 680
3 682 685 684
3 688 683 686
3 55 675 679
3 54 55 694
3 695 694 696
3 17 219 220
3 699 1 3
3 365 363 357
3 6 2 0
3 17 18 702
3 701 0 704
3 0 1 699
3 699 707 706
3 3 360 709
3 701 705 23
3 702 20 22
3 705 704 706
3 32 36 30
3 707 699 698
3 703 251 221
3 713 49 47
3 713 715 714
3 715 717 716
3 722 721 720
3 724 722 719
3 724 723 726
3 728 724 727
3 728 729 730
3 732 731 730
3 726 734 383
3 706 50 48
3 712 706 35
3 45 737 739
3 742 741 738
3 741 742 744
3 744 747 746
3 747 749 748
3 749 751 750
3 746 748 753
3 741 745 756
3 759 758 750
3 758 759 735
3 758 405 760
3 250 251 703
3 368 16 15
3 250 249 234
3 196 183 181
3 231 233 264
3 263 260 230
3 28 29 248
3 23 705 712
3 235 239 93
3 97 265 261
3 30 37 53
3 38 40 674
3 245 247 58
3 764 763 762
3 767 766 765
3 762 763 770
3 771 762 769
3 773 771 772
3 773 776 775
3 489 479 481
3 700 779 367
3 779 778 11
3 367 779 13
3 368 378 379
3 15 14 210
3 700 358 361
3 364 780 369
3 379 376 347
3 210 12 7
3 204 205 373
3 372 374 377
3 782 353 351
3 359 356 783
3 356 353 782
3 781 351 349
3 4 8 361
3 784 349 345
3 10 220 322
3 710 783 785
3 783 782 721
3 720 781 784
3 786 784 342
3 169 168 327
3 737 732 733
3 392 395 397
3 406 386 388
3 193 207 322
3 217 216 191
3 201 209 194
3 172 206 198
3 191 216 212
3 196 192 190
3 171 200 179
3 296 294 185
3 162 165 370
3 173 161 370
3 160 155 152
3 255 253 257
3 292 298 304
3 43 39 34
3 11 778 361
3 207 208 9
3 206 172 173
3 164 166 170
3 787 165 164
3 188 211 254
3 296 186 188
3 290 291 177
3 167 163 152
3 708 711 715
3 782 781 720
3 389 333 336
3 343 788 336
3 389 170 169
3 148 149 325
3 725 736 759
3 752 740 725
3 789 740 752
3 335 334 390
3 380 335 388
3 757 756 790
3 760 405 402
3 696 688 690
3 716 717 785
3 785 721 722
3 720 786 792
3 786 340 382
3 791 728 731
3 728 791 722
3 719 792 734
3 718 732 737
3 49 714 737
3 792 382 383
3 41 761 678
3 789 729 727
3 730 789 755
3 733 730 744
3 749 747 755
3 753 794 793
3 405 758 387
3 337 338 382
3 735 383 381
3 678 761 757
3 797 745 743
3 748 750 760
3 797 798 790
3 794 753 760
3 676 677 790
3 790 798 693
3 797 754 795
3 801 692 686
3 803 692 801
3 805 804 803
3 807 805 806
3 809 804 805
3 801 684 800
3 577 809 616
3 769 638 626
3 810 772 769
3 370 787 343
3 434 326 324
3 305 318 135
3 132 307 302
3 666 668 811
3 44 51 738
3 393 436 427
3 430 811 429
3 429 811 525
3 793 768 766
3 796 793 775
3 408 410 415
3 770 763 415
3 413 411 425
3 604 630 632
3 417 418 428
3 256 255 321
3 190 187 182
3 157 177 291
3 297 321 276
3 295 281 282
3 299 298 289
3 279 275 273
3 310 308 280
3 301 309 316
3 168 167 153
3 258 259 265
3 273 274 113
3 695 697 66
3 394 424 425
3 429 663 442
3 554 493 495
3 549 551 467
3 665 145 140
3 269 270 102
3 526 527 137
3 110 498 500
3 118 111 500
3 127 511 512
3 57 54 695
3 427 435 432
3 663 525 523
3 499 496 497
3 550 548 541
3 639 416 438
3 572 568 559
3 586 587 607
3 445 637 631
3 470 651 648
3 658 661 646
3 31 56 58
3 242 63 90
3 669 671 487
3 696 681 683
3 404 403 407
3 794 404 765
3 65 68 74
3 482 84 83
3 813 673 72
3 692 803 812
3 813 691 687
3 773 774 806
3 673 813 579
3 809 577 579
3 619 808 810
3 581 576 575
3 591 605 594
3 555 488 484
3 67 65 77
3 694 679 681
3 86 82 81
3 491 474 471
3 673 580 73
3 808 774 772
3 581 564 565
3 557 558 566
3 653 650 652
3 248 29 31
3 434 436 393
3 98 95 89
3 528 524 525
3 504 501 502
3 533 517 513
3 69 690 689
3 796 777 800
3 693 799 800
3 770 664 639
3 83 76 75
3 438 440 629
3 472 476 557
3 661 660 648
3 809 807 614
3 807 619 613
3 627 622 620
3 612 618 627
3 573 617 583
3 585 615 611
3 656 589 588
3 605 601 598
