ply
format ascii 1.0
comment Created in Blender version 4.0.2
element vertex 144
property float x
property float y
property float z
property float nx
property float ny
property float nz
element face 284
property list uchar uint vertex_indices
end_header
-1.3559602 1.7534384 1.3559602 -0.21999504 0.3144391 0.2202917
-1.3559602 1.3559602 1.7534384 -0.22061102 0.22061105 0.31378293
-1.7534384 1.3559602 1.3559602 -0.31443906 0.21999504 0.22029175
-1.3559602 0.45198676 2.171318 -0.25961336 0.07764545 0.34981456
-2.171318 0.45198676 1.3559602 -0.35149235 0.08260729 0.2557877
-1.3559602 -0.45198676 2.171318 -0.2557877 -0.082607254 0.35149238
-2.171318 -0.45198676 1.3559602 -0.34981447 -0.07764559 0.25961345
-2.2599337 -0.45198676 1.1982076 -0.39503404 -0.08149287 0.18194829
-2.2599337 0.45198676 1.1982076 -0.39148116 0.09104607 0.18507114
-2.5200734 -0.45198676 0.45198676 -0.43070117 -0.07174502 0.07174506
-2.5200734 0.45198676 0.45198676 -0.43070117 0.07174502 0.07174504
-2.2599337 -1.1982076 0.45198676 -0.39503407 -0.18194829 0.08149279
-2.2599337 -1.1982076 -0.45198676 -0.39500955 -0.18169534 -0.08217309
-2.5200734 -0.45198676 -0.45198676 -0.43070117 -0.07174503 -0.07174507
-2.2599337 -0.45198676 -1.1982076 -0.39148116 -0.091046065 -0.18507116
-2.2599337 0.45198676 -1.1982076 -0.39503404 0.08149288 -0.18194829
-2.5200734 0.45198676 -0.45198676 -0.43070117 0.07174503 -0.071745045
-2.2599337 1.1982076 -0.45198676 -0.3950341 0.1819482 -0.08149278
-2.2599337 1.1982076 0.45198676 -0.39500955 0.18169542 0.0821731
-2.171318 1.3559602 -0.45198676 -0.34981456 0.2596134 -0.07764545
-2.171318 1.3559602 0.45198676 -0.34981453 0.25961345 0.07764546
-1.3559602 2.171318 -0.45198676 -0.25549275 0.3515452 -0.0832923
-1.3559602 2.171318 0.45198676 -0.25961345 0.34981447 0.077645615
-1.1982076 2.2599337 -0.45198676 -0.18507126 0.39148113 -0.09104604
-1.1982076 2.2599337 0.45198676 -0.18169542 0.39500952 0.08217319
-0.45198676 2.5200734 -0.45198676 -0.07174504 0.43070117 -0.07174503
-0.45198676 2.5200734 0.45198676 -0.07174507 0.43070114 0.07174503
-0.45198676 2.2599337 -1.1982076 -0.09104608 0.39148113 -0.18507114
0.45198676 2.5200734 -0.45198676 0.07174503 0.43070117 -0.071745016
0.45198676 2.2599337 -1.1982076 0.08149279 0.39503404 -0.18194827
0.45198676 2.171318 -1.3559602 0.07764546 0.34981453 -0.25961348
-0.45198676 2.171318 -1.3559602 -0.08329231 0.35154527 -0.25549263
-0.45198676 1.3559602 -2.171318 -0.077645585 0.25961348 -0.34981444
0.45198676 1.3559602 -2.171318 0.077645615 0.25961345 -0.34981447
0.45198676 1.1982076 -2.2599337 0.082173176 0.18169542 -0.39500952
-0.45198676 1.1982076 -2.2599337 -0.082173176 0.1816954 -0.39500952
-0.45198676 0.45198676 -2.5200734 -0.07174503 0.071745045 -0.43070117
0.45198676 0.45198676 -2.5200734 0.07174503 0.07174507 -0.43070117
0.45198676 -0.45198676 -2.5200734 0.07174503 -0.07174507 -0.43070117
-0.45198676 -0.45198676 -2.5200734 -0.07174502 -0.07174504 -0.43070117
0.45198676 -1.1982076 -2.2599337 0.081492834 -0.1819483 -0.39503404
-0.45198676 -1.1982076 -2.2599337 -0.08149285 -0.18194829 -0.39503407
-0.45198676 -1.3559602 -2.171318 -0.077645555 -0.25961348 -0.34981447
0.45198676 -1.3559602 -2.171318 0.077645555 -0.25961348 -0.34981447
0.45198676 -2.171318 -1.3559602 0.07764546 -0.34981453 -0.25961348
-0.45198676 -2.171318 -1.3559602 -0.082607254 -0.3514924 -0.25578764
-0.45198676 -2.2599337 -1.1982076 -0.09104593 -0.39148116 -0.18507114
0.45198676 -2.2599337 -1.1982076 0.0814928 -0.39503407 -0.1819483
0.45198676 -2.5200734 -0.45198676 0.071745045 -0.43070117 -0.07174503
-0.45198676 -2.5200734 -0.45198676 -0.07174504 -0.43070117 -0.07174503
-0.45198676 -2.5200734 0.45198676 -0.07174507 -0.43070114 0.07174503
0.45198676 -2.5200734 0.45198676 0.07174507 -0.43070117 0.071745016
-0.45198676 -2.2599337 1.1982076 -0.09104608 -0.39148113 0.18507113
0.45198676 -2.2599337 1.1982076 0.09104629 -0.39148104 0.1850712
0.45198676 -2.171318 1.3559602 0.08329242 -0.35154518 0.2554927
-0.45198676 -2.171318 1.3559602 -0.08329231 -0.35154527 0.25549263
-0.45198676 -1.3559602 2.171318 -0.077645585 -0.25961348 0.34981444
0.45198676 -1.3559602 2.171318 0.0776456 -0.25961345 0.34981447
0.45198676 -1.1982076 2.2599337 0.08149287 -0.1819483 0.39503404
-0.45198676 -1.1982076 2.2599337 -0.082173176 -0.1816954 0.39500952
-0.45198676 -0.45198676 2.5200734 -0.07174502 -0.07174504 0.43070117
0.45198676 -0.45198676 2.5200734 0.07174503 -0.07174507 0.43070117
-0.45198676 0.45198676 2.5200734 -0.07174503 0.071745045 0.43070117
0.45198676 0.45198676 2.5200734 0.07174503 0.07174507 0.43070117
0.45198676 1.1982076 2.2599337 0.09104601 0.18507127 0.39148107
-0.45198676 1.1982076 2.2599337 -0.08149285 0.18194829 0.39503407
-0.45198676 1.3559602 2.171318 -0.077645555 0.25961348 0.34981447
0.45198676 1.3559602 2.171318 0.08329229 0.25549275 0.3515452
0.45198676 2.171318 1.3559602 0.07764546 0.34981453 0.25961348
-0.45198676 2.171318 1.3559602 -0.082607254 0.3514924 0.25578764
-0.45198676 2.2599337 1.1982076 -0.09104593 0.39148116 0.18507114
0.45198676 2.2599337 1.1982076 0.08217311 0.39500952 0.18169542
0.45198676 2.5200734 0.45198676 0.07174507 0.43070117 0.07174502
1.1982076 2.2599337 0.45198676 0.18507114 0.3914811 0.091046065
1.1982076 2.2599337 -0.45198676 0.18194829 0.39503404 -0.08149288
1.3559602 2.171318 -0.45198676 0.2596135 0.34981447 -0.07764562
1.3559602 2.171318 0.45198676 0.2557877 0.35149238 0.082607314
2.171318 1.3559602 -0.45198676 0.34981456 0.2596134 -0.07764545
2.171318 1.3559602 0.45198676 0.34981453 0.25961348 0.07764546
2.2599337 1.1982076 -0.45198676 0.39500955 0.1816953 -0.08217308
2.2599337 1.1982076 0.45198676 0.39503407 0.18194829 0.08149279
2.2599337 0.45198676 1.1982076 0.39503404 0.08149287 0.18194826
2.171318 0.45198676 1.3559602 0.34981447 0.077645585 0.25961345
1.7534384 1.3559602 1.3559602 0.31378293 0.22061105 0.22061102
2.2599337 -0.45198676 1.1982076 0.3914811 -0.09104605 0.18507116
2.171318 -0.45198676 1.3559602 0.35149235 -0.08260729 0.2557877
2.2599337 -1.1982076 0.45198676 0.39500955 -0.18169542 0.0821731
2.171318 -1.3559602 0.45198676 0.34981453 -0.25961345 0.07764545
1.7534384 -1.3559602 1.3559602 0.3144391 -0.21999502 0.2202917
1.3559602 -1.3559602 1.7534384 0.22061102 -0.220611 0.31378296
1.3559602 -0.45198676 2.171318 0.25961345 -0.07764545 0.34981453
1.3559602 -1.7534384 1.3559602 0.2194699 -0.3153793 0.21946995
2.2599337 -1.1982076 -0.45198676 0.3950341 -0.1819482 -0.08149278
2.171318 -1.3559602 -0.45198676 0.34981456 -0.2596134 -0.07764545
1.3559602 -2.171318 -0.45198676 0.25961348 -0.34981447 -0.07764556
1.3559602 -2.171318 0.45198676 0.25549266 -0.35154524 0.08329231
1.3559602 -1.7534384 -1.3559602 0.22061105 -0.31378293 -0.22061105
1.7534384 -1.3559602 -1.3559602 0.31378293 -0.22061102 -0.220611
1.1982076 -2.2599337 -0.45198676 0.18194829 -0.39503407 -0.08149285
1.1982076 -2.2599337 0.45198676 0.18507114 -0.39148116 0.09104605
2.2599337 -0.45198676 -1.1982076 0.39503402 -0.081492856 -0.18194829
2.171318 -0.45198676 -1.3559602 0.34981447 -0.0776456 -0.25961348
2.2599337 0.45198676 -1.1982076 0.39148116 0.09104607 -0.18507114
2.171318 0.45198676 -1.3559602 0.35149235 0.08260729 -0.2557877
1.3559602 -0.45198676 -2.171318 0.25961348 -0.07764546 -0.34981453
1.3559602 0.45198676 -2.171318 0.25578767 0.082607254 -0.35149243
1.1982076 0.45198676 -2.2599337 0.18507114 0.09104593 -0.39148116
1.1982076 -0.45198676 -2.2599337 0.18194826 -0.08149279 -0.39503407
2.5200734 -0.45198676 -0.45198676 0.43070117 -0.07174503 -0.071745075
2.5200734 0.45198676 -0.45198676 0.43070117 0.07174503 -0.071745045
2.5200734 -0.45198676 0.45198676 0.43070117 -0.07174503 0.07174507
2.5200734 0.45198676 0.45198676 0.43070117 0.07174502 0.07174504
1.3559602 -1.3559602 -1.7534384 0.22061102 -0.220611 -0.31378296
1.3559602 0.45198676 2.171318 0.25549263 0.0832923 0.35154527
1.1982076 -0.45198676 2.2599337 0.18194829 -0.0814928 0.39503407
1.1982076 0.45198676 2.2599337 0.18507111 0.09104607 0.39148116
1.3559602 1.3559602 1.7534384 0.21946992 0.21946992 0.31537926
1.3559602 1.7534384 1.3559602 0.2202917 0.31443906 0.21999505
1.7534384 1.3559602 -1.3559602 0.31443906 0.21999505 -0.22029175
1.3559602 1.7534384 -1.3559602 0.22061105 0.3137829 -0.22061107
1.3559602 1.3559602 -1.7534384 0.22029172 0.21999504 -0.3144391
-1.1982076 -0.45198676 2.2599337 -0.18507122 -0.09104594 0.3914811
-1.1982076 0.45198676 2.2599337 -0.18194818 0.08149278 0.3950341
-1.3559602 -1.7534384 1.3559602 -0.2194699 -0.31537926 0.21946995
-1.3559602 -1.3559602 1.7534384 -0.22029172 -0.21999507 0.31443906
-1.7534384 -1.3559602 1.3559602 -0.31378293 -0.22061099 0.22061099
-1.3559602 -2.171318 0.45198676 -0.25549272 -0.3515452 0.08329229
-2.171318 -1.3559602 0.45198676 -0.34981453 -0.25961345 0.07764545
-1.3559602 -2.171318 -0.45198676 -0.25961345 -0.34981444 -0.07764561
-2.171318 -1.3559602 -0.45198676 -0.34981456 -0.2596134 -0.07764545
-1.3559602 -1.7534384 -1.3559602 -0.21999508 -0.31443906 -0.22029175
-1.7534384 -1.3559602 -1.3559602 -0.31443906 -0.21999502 -0.22029172
-1.3559602 -1.3559602 -1.7534384 -0.22061102 -0.22061102 -0.3137829
-1.3559602 -0.45198676 -2.171318 -0.25961345 -0.077645466 -0.34981453
-2.171318 -0.45198676 -1.3559602 -0.35149232 -0.0826073 -0.2557877
-1.3559602 0.45198676 -2.171318 -0.2557876 0.08260724 -0.3514924
-2.171318 0.45198676 -1.3559602 -0.34981444 0.077645585 -0.25961348
-1.3559602 1.3559602 -1.7534384 -0.22029175 0.21999508 -0.31443906
-1.7534384 1.3559602 -1.3559602 -0.31378293 0.22061102 -0.22061105
-1.3559602 1.7534384 -1.3559602 -0.21946996 0.31537923 -0.21946993
-1.1982076 -0.45198676 -2.2599337 -0.18194826 -0.08149279 -0.39503407
-1.1982076 0.45198676 -2.2599337 -0.18507114 0.09104593 -0.39148116
-1.1982076 -2.2599337 0.45198676 -0.18507127 -0.39148107 0.09104603
-1.1982076 -2.2599337 -0.45198676 -0.18169539 -0.39500952 -0.08217319
3 2 1 0
3 2 3 1
3 4 5 3
3 4 7 6
3 10 7 8
3 7 9 11
3 9 12 11
3 13 14 12
3 16 14 13
3 15 16 17
3 10 17 16
3 20 17 18
3 20 21 19
3 24 21 22
3 24 25 23
3 27 23 25
3 27 28 29
3 27 30 31
3 32 30 33
3 32 34 35
3 36 34 37
3 36 38 39
3 39 40 41
3 42 40 43
3 42 44 45
3 46 44 47
3 46 48 49
3 50 48 51
3 52 51 53
3 52 54 55
3 56 54 57
3 56 58 59
3 60 58 61
3 62 61 63
3 62 64 65
3 66 64 67
3 66 68 69
3 70 68 71
3 70 72 26
3 71 73 72
3 73 28 72
3 73 75 74
3 78 75 76
3 78 79 77
3 83 81 80
3 78 83 80
3 82 84 81
3 88 86 85
3 84 85 86
3 85 89 88
3 88 89 91
3 87 92 86
3 87 94 93
3 93 96 97
3 99 94 95
3 97 100 92
3 93 97 92
3 103 100 101
3 103 104 105
3 106 104 107
3 109 100 102
3 109 102 79
3 111 108 109
3 101 112 104
3 100 108 92
3 110 92 108
3 110 84 86
3 82 90 85
3 115 90 113
3 111 84 110
3 83 113 82
3 116 83 117
3 118 79 103
3 102 103 79
3 111 79 80
3 83 76 117
3 77 119 75
3 118 120 119
3 63 115 64
3 122 60 62
3 115 61 114
3 60 121 59
3 114 61 58
3 124 55 56
3 124 125 123
3 125 126 123
3 127 128 126
3 129 130 128
3 131 132 130
3 134 132 131
3 136 133 134
3 138 135 136
3 137 138 139
3 141 133 135
3 142 128 143
3 57 91 89
3 142 55 126
3 123 126 55
3 53 95 54
3 91 54 95
3 99 53 51
3 142 49 50
3 99 48 98
3 143 46 49
3 47 98 48
3 143 130 45
3 46 143 45
3 47 96 98
3 94 98 96
3 43 96 44
3 132 140 41
3 42 132 41
3 107 112 40
3 43 40 112
3 140 39 41
3 38 107 40
3 141 39 140
3 106 38 37
3 106 37 34
3 137 35 135
3 141 135 35
3 34 120 105
3 106 34 105
3 137 31 32
3 33 119 120
3 74 29 28
3 26 28 25
3 24 0 69
3 70 24 69
3 136 14 15
3 127 12 129
3 10 13 9
3 122 5 121
3 2 18 4
3 8 4 18
3 1 122 65
3 66 1 65
3 6 124 5
3 2 22 20
3 10 8 18
3 125 7 11
3 127 125 11
3 19 139 138
3 138 15 17
3 19 138 17
3 131 12 134
3 14 134 12
3 1 69 0
3 122 62 65
3 124 59 5
3 121 5 59
3 24 70 26
3 52 142 50
3 23 31 21
3 139 21 31
3 36 141 35
3 132 45 130
3 67 117 68
3 64 113 67
3 116 67 113
3 58 89 114
3 90 114 89
3 71 117 76
3 73 71 76
3 81 111 80
3 88 95 87
3 74 119 29
3 30 29 119
3 118 105 120
3 112 97 96
3 2 4 3
3 4 6 5
3 4 8 7
3 10 9 7
3 9 13 12
3 16 15 14
3 10 18 17
3 20 19 17
3 20 22 21
3 24 23 21
3 24 26 25
3 27 25 28
3 27 29 30
3 32 31 30
3 32 33 34
3 36 35 34
3 36 37 38
3 39 38 40
3 42 41 40
3 42 43 44
3 46 45 44
3 46 47 48
3 50 49 48
3 52 50 51
3 52 53 54
3 56 55 54
3 56 57 58
3 60 59 58
3 62 60 61
3 62 63 64
3 66 65 64
3 66 67 68
3 70 69 68
3 70 71 72
3 73 74 28
3 73 76 75
3 78 77 75
3 78 80 79
3 83 82 81
3 82 85 84
3 88 87 86
3 85 90 89
3 87 93 92
3 87 95 94
3 93 94 96
3 99 98 94
3 97 101 100
3 103 102 100
3 103 101 104
3 106 105 104
3 109 108 100
3 111 110 108
3 101 97 112
3 110 86 92
3 82 113 90
3 115 114 90
3 111 81 84
3 83 116 113
3 118 77 79
3 111 109 79
3 83 78 76
3 77 118 119
3 122 121 60
3 115 63 61
3 124 123 55
3 125 127 126
3 127 129 128
3 129 131 130
3 134 133 132
3 136 135 133
3 138 137 135
3 141 140 133
3 142 126 128
3 57 54 91
3 142 52 55
3 53 99 95
3 142 143 49
3 99 51 48
3 143 128 130
3 47 44 96
3 43 112 96
3 132 133 140
3 107 104 112
3 141 36 39
3 106 107 38
3 137 32 35
3 34 33 120
3 137 139 31
3 33 30 119
3 26 72 28
3 24 22 0
3 136 134 14
3 127 11 12
3 10 16 13
3 122 3 5
3 2 20 18
3 1 3 122
3 6 125 124
3 2 0 22
3 125 6 7
3 19 21 139
3 138 136 15
3 131 129 12
3 1 66 69
3 124 56 59
3 23 27 31
3 132 42 45
3 67 116 117
3 64 115 113
3 58 57 89
3 71 68 117
3 88 91 95
3 74 75 119
3 118 103 105
