ply
format ascii 1.0
comment Created in Blender version 4.0.2
element vertex 144
property float x
property float y
property float z
property float nx
property float ny
property float nz
element face 284
property list uchar uint vertex_indices
end_header
-1.3559602 1.7534384 1.3559602 0.21999505 -0.31443906 -0.22029172
-1.3559602 1.3559602 1.7534384 0.22061102 -0.22061104 -0.3137829
-1.7534384 1.3559602 1.3559602 0.31443906 -0.21999505 -0.22029175
-1.3559602 0.45198676 2.171318 0.25961336 -0.07764545 -0.34981456
-2.171318 0.45198676 1.3559602 0.35149235 -0.08260731 -0.2557877
-1.3559602 -0.45198676 2.171318 0.2557877 0.082607254 -0.35149238
-2.171318 -0.45198676 1.3559602 0.34981447 0.0776456 -0.25961348
-2.2599337 -0.45198676 1.1982076 0.39503402 0.081492856 -0.18194829
-2.2599337 0.45198676 1.1982076 0.39148116 -0.09104607 -0.18507114
-2.5200734 -0.45198676 0.45198676 0.43070117 0.07174502 -0.07174506
-2.5200734 0.45198676 0.45198676 0.43070117 -0.07174502 -0.07174504
-2.2599337 -1.1982076 0.45198676 0.39503407 0.18194829 -0.08149279
-2.2599337 -1.1982076 -0.45198676 0.39500955 0.18169534 0.08217309
-2.5200734 -0.45198676 -0.45198676 0.43070117 0.07174503 0.07174507
-2.2599337 -0.45198676 -1.1982076 0.39148116 0.091046065 0.18507116
-2.2599337 0.45198676 -1.1982076 0.39503404 -0.08149287 0.18194826
-2.5200734 0.45198676 -0.45198676 0.43070117 -0.07174503 0.071745045
-2.2599337 1.1982076 -0.45198676 0.3950341 -0.1819482 0.08149278
-2.2599337 1.1982076 0.45198676 0.39500955 -0.18169543 -0.0821731
-2.171318 1.3559602 -0.45198676 0.34981456 -0.2596134 0.07764545
-2.171318 1.3559602 0.45198676 0.3498145 -0.25961348 -0.07764546
-1.3559602 2.171318 -0.45198676 0.25549275 -0.3515452 0.08329229
-1.3559602 2.171318 0.45198676 0.25961348 -0.34981447 -0.07764562
-1.1982076 2.2599337 -0.45198676 0.18507127 -0.39148107 0.09104604
-1.1982076 2.2599337 0.45198676 0.1816954 -0.39500952 -0.0821732
-0.45198676 2.5200734 -0.45198676 0.07174504 -0.43070117 0.07174503
-0.45198676 2.5200734 0.45198676 0.07174507 -0.43070114 -0.07174503
-0.45198676 2.2599337 -1.1982076 0.09104622 -0.39148113 0.18507113
0.45198676 2.5200734 -0.45198676 -0.07174503 -0.43070117 0.071745016
0.45198676 2.2599337 -1.1982076 -0.08149279 -0.39503407 0.18194829
0.45198676 2.171318 -1.3559602 -0.07764546 -0.34981453 0.25961348
-0.45198676 2.171318 -1.3559602 0.08329238 -0.35154524 0.2554926
-0.45198676 1.3559602 -2.171318 0.077645615 -0.25961348 0.34981447
0.45198676 1.3559602 -2.171318 -0.077645615 -0.25961345 0.34981447
0.45198676 1.1982076 -2.2599337 -0.08217317 -0.1816954 0.39500952
-0.45198676 1.1982076 -2.2599337 0.082173176 -0.1816954 0.39500952
-0.45198676 0.45198676 -2.5200734 0.07174503 -0.071745045 0.43070117
0.45198676 0.45198676 -2.5200734 -0.07174503 -0.07174507 0.43070117
0.45198676 -0.45198676 -2.5200734 -0.07174503 0.07174507 0.43070117
-0.45198676 -0.45198676 -2.5200734 0.07174502 0.07174504 0.43070117
0.45198676 -1.1982076 -2.2599337 -0.081492834 0.18194827 0.39503404
-0.45198676 -1.1982076 -2.2599337 0.08149285 0.18194829 0.39503407
-0.45198676 -1.3559602 -2.171318 0.07764556 0.25961348 0.34981447
0.45198676 -1.3559602 -2.171318 -0.07764556 0.25961348 0.34981447
0.45198676 -2.171318 -1.3559602 -0.077645466 0.34981453 0.25961345
-0.45198676 -2.171318 -1.3559602 0.082607254 0.3514924 0.25578764
-0.45198676 -2.2599337 -1.1982076 0.09104593 0.39148116 0.18507114
0.45198676 -2.2599337 -1.1982076 -0.08149279 0.39503407 0.18194826
0.45198676 -2.5200734 -0.45198676 -0.071745045 0.43070117 0.07174503
-0.45198676 -2.5200734 -0.45198676 0.07174504 0.43070117 0.07174503
-0.45198676 -2.5200734 0.45198676 0.07174507 0.43070114 -0.07174503
0.45198676 -2.5200734 0.45198676 -0.07174507 0.43070117 -0.071745016
-0.45198676 -2.2599337 1.1982076 0.09104622 0.39148113 -0.18507111
0.45198676 -2.2599337 1.1982076 -0.091046184 0.39148107 -0.18507122
0.45198676 -2.171318 1.3559602 -0.083292365 0.3515452 -0.25549275
-0.45198676 -2.171318 1.3559602 0.08329238 0.35154524 -0.2554926
-0.45198676 -1.3559602 2.171318 0.0776456 0.25961348 -0.34981447
0.45198676 -1.3559602 2.171318 -0.07764561 0.2596135 -0.34981447
0.45198676 -1.1982076 2.2599337 -0.081492856 0.18194829 -0.39503404
-0.45198676 -1.1982076 2.2599337 0.082173176 0.1816954 -0.39500952
-0.45198676 -0.45198676 2.5200734 0.07174502 0.07174504 -0.43070117
0.45198676 -0.45198676 2.5200734 -0.07174503 0.07174507 -0.43070117
-0.45198676 0.45198676 2.5200734 0.07174503 -0.071745045 -0.43070117
0.45198676 0.45198676 2.5200734 -0.07174503 -0.07174507 -0.43070117
0.45198676 1.1982076 2.2599337 -0.09104601 -0.1850713 -0.39148107
-0.45198676 1.1982076 2.2599337 0.08149285 -0.18194829 -0.39503407
-0.45198676 1.3559602 2.171318 0.07764556 -0.25961348 -0.34981447
0.45198676 1.3559602 2.171318 -0.08329229 -0.25549272 -0.3515452
0.45198676 2.171318 1.3559602 -0.07764545 -0.34981453 -0.25961345
-0.45198676 2.171318 1.3559602 0.082607254 -0.3514924 -0.25578764
-0.45198676 2.2599337 1.1982076 0.09104593 -0.39148116 -0.18507114
0.45198676 2.2599337 1.1982076 -0.082173124 -0.39500952 -0.18169545
0.45198676 2.5200734 0.45198676 -0.07174507 -0.43070117 -0.07174502
1.1982076 2.2599337 0.45198676 -0.18507114 -0.3914811 -0.091046065
1.1982076 2.2599337 -0.45198676 -0.18194829 -0.39503404 0.08149288
1.3559602 2.171318 -0.45198676 -0.25961348 -0.34981444 0.077645585
1.3559602 2.171318 0.45198676 -0.2557877 -0.35149238 -0.082607314
2.171318 1.3559602 -0.45198676 -0.34981456 -0.25961342 0.07764545
2.171318 1.3559602 0.45198676 -0.34981453 -0.25961348 -0.07764546
2.2599337 1.1982076 -0.45198676 -0.39500955 -0.18169531 0.08217308
2.2599337 1.1982076 0.45198676 -0.39503407 -0.18194829 -0.08149279
2.2599337 0.45198676 1.1982076 -0.39503404 -0.08149288 -0.18194829
2.171318 0.45198676 1.3559602 -0.34981447 -0.077645615 -0.2596135
1.7534384 1.3559602 1.3559602 -0.3137829 -0.22061105 -0.22061102
2.2599337 -0.45198676 1.1982076 -0.3914811 0.09104605 -0.18507116
2.171318 -0.45198676 1.3559602 -0.35149235 0.08260731 -0.2557877
2.2599337 -1.1982076 0.45198676 -0.39500955 0.18169542 -0.0821731
2.171318 -1.3559602 0.45198676 -0.3498145 0.25961348 -0.07764546
1.7534384 -1.3559602 1.3559602 -0.31443906 0.21999504 -0.2202917
1.3559602 -1.3559602 1.7534384 -0.22061102 0.220611 -0.31378296
1.3559602 -0.45198676 2.171318 -0.25961345 0.07764545 -0.34981453
1.3559602 -1.7534384 1.3559602 -0.21946995 0.31537926 -0.21946996
2.2599337 -1.1982076 -0.45198676 -0.3950341 0.1819482 0.08149278
2.171318 -1.3559602 -0.45198676 -0.34981456 0.2596134 0.07764545
1.3559602 -2.171318 -0.45198676 -0.25961348 0.34981447 0.077645555
1.3559602 -2.171318 0.45198676 -0.25549266 0.35154524 -0.08329231
1.3559602 -1.7534384 -1.3559602 -0.22061105 0.31378293 0.22061102
1.7534384 -1.3559602 -1.3559602 -0.31378293 0.220611 0.22061099
1.1982076 -2.2599337 -0.45198676 -0.18194826 0.39503407 0.08149285
1.1982076 -2.2599337 0.45198676 -0.18507114 0.39148116 -0.09104605
2.2599337 -0.45198676 -1.1982076 -0.39503402 0.081492856 0.18194829
2.171318 -0.45198676 -1.3559602 -0.34981447 0.0776456 0.25961348
2.2599337 0.45198676 -1.1982076 -0.39148116 -0.09104607 0.18507114
2.171318 0.45198676 -1.3559602 -0.35149235 -0.08260731 0.2557877
1.3559602 -0.45198676 -2.171318 -0.25961345 0.077645466 0.34981453
1.3559602 0.45198676 -2.171318 -0.25578767 -0.082607254 0.35149243
1.1982076 0.45198676 -2.2599337 -0.18507114 -0.09104593 0.39148116
1.1982076 -0.45198676 -2.2599337 -0.18194826 0.08149279 0.39503407
2.5200734 -0.45198676 -0.45198676 -0.43070117 0.07174503 0.071745075
2.5200734 0.45198676 -0.45198676 -0.43070117 -0.07174503 0.071745045
2.5200734 -0.45198676 0.45198676 -0.43070117 0.07174503 -0.07174507
2.5200734 0.45198676 0.45198676 -0.43070117 -0.07174502 -0.07174504
1.3559602 -1.3559602 -1.7534384 -0.22061102 0.220611 0.31378293
1.3559602 0.45198676 2.171318 -0.25549263 -0.08329235 -0.35154527
1.1982076 -0.45198676 2.2599337 -0.18194829 0.08149279 -0.39503407
1.1982076 0.45198676 2.2599337 -0.1850711 -0.091046214 -0.39148113
1.3559602 1.3559602 1.7534384 -0.21946995 -0.21946992 -0.3153793
1.3559602 1.7534384 1.3559602 -0.2202917 -0.3144391 -0.21999504
1.7534384 1.3559602 -1.3559602 -0.31443903 -0.21999505 0.22029172
1.3559602 1.7534384 -1.3559602 -0.22061105 -0.31378293 0.22061102
1.3559602 1.3559602 -1.7534384 -0.22029172 -0.21999504 0.3144391
-1.1982076 -0.45198676 2.2599337 0.18507122 0.09104594 -0.3914811
-1.1982076 0.45198676 2.2599337 0.1819482 -0.08149278 -0.3950341
-1.3559602 -1.7534384 1.3559602 0.2194699 0.3153793 -0.21946995
-1.3559602 -1.3559602 1.7534384 0.2202917 0.21999504 -0.3144391
-1.7534384 -1.3559602 1.3559602 0.31378293 0.22061102 -0.220611
-1.3559602 -2.171318 0.45198676 0.25549272 0.3515452 -0.08329229
-2.171318 -1.3559602 0.45198676 0.34981453 0.25961345 -0.07764545
-1.3559602 -2.171318 -0.45198676 0.25961345 0.34981444 0.07764559
-2.171318 -1.3559602 -0.45198676 0.34981456 0.25961342 0.07764545
-1.3559602 -1.7534384 -1.3559602 0.21999508 0.31443906 0.22029172
-1.7534384 -1.3559602 -1.3559602 0.31443906 0.21999502 0.22029172
-1.3559602 -1.3559602 -1.7534384 0.22061102 0.22061102 0.3137829
-1.3559602 -0.45198676 -2.171318 0.25961345 0.077645466 0.34981453
-2.171318 -0.45198676 -1.3559602 0.35149232 0.0826073 0.2557877
-1.3559602 0.45198676 -2.171318 0.2557876 -0.08260724 0.3514924
-2.171318 0.45198676 -1.3559602 0.34981444 -0.07764559 0.25961345
-1.3559602 1.3559602 -1.7534384 0.22029172 -0.21999504 0.3144391
-1.7534384 1.3559602 -1.3559602 0.3137829 -0.22061102 0.22061104
-1.3559602 1.7534384 -1.3559602 0.21946995 -0.31537926 0.21946996
-1.1982076 -0.45198676 -2.2599337 0.18194829 0.08149279 0.39503407
-1.1982076 0.45198676 -2.2599337 0.18507114 -0.09104593 0.39148116
-1.1982076 -2.2599337 0.45198676 0.18507132 0.39148107 -0.09104604
-1.1982076 -2.2599337 -0.45198676 0.18169539 0.39500952 0.0821732
3 2 0 1
3 3 2 1
3 5 4 3
3 7 4 6
3 7 10 8
3 7 11 9
3 12 9 11
3 13 12 14
3 14 16 13
3 15 17 16
3 17 10 16
3 17 20 18
3 21 20 19
3 21 24 22
3 25 24 23
3 27 25 23
3 28 27 29
3 30 27 31
3 30 32 33
3 34 32 35
3 34 36 37
3 38 36 39
3 40 39 41
3 40 42 43
3 44 42 45
3 44 46 47
3 48 46 49
3 48 50 51
3 51 52 53
3 54 52 55
3 54 56 57
3 58 56 59
3 58 60 61
3 61 62 63
3 64 62 65
3 64 66 67
3 68 66 69
3 68 70 71
3 72 70 26
3 71 72 73
3 28 73 72
3 75 73 74
3 75 78 76
3 79 78 77
3 83 81 82
3 78 80 83
3 84 82 81
3 86 88 85
3 84 86 85
3 89 85 88
3 88 91 89
3 92 87 86
3 94 87 93
3 96 93 97
3 94 99 95
3 97 100 101
3 93 92 97
3 100 103 101
3 104 103 105
3 104 106 107
3 100 109 102
3 109 79 102
3 108 111 109
3 112 101 104
3 100 92 108
3 92 110 108
3 110 86 84
3 90 82 85
3 90 115 113
3 84 111 110
3 113 83 82
3 116 117 83
3 79 118 103
3 102 79 103
3 79 111 80
3 76 83 117
3 119 77 75
3 118 119 120
3 63 64 115
3 60 122 62
3 61 115 114
3 60 59 121
3 114 58 61
3 56 123 124
3 124 123 125
3 126 125 123
3 128 127 126
3 130 129 128
3 131 130 132
3 132 134 131
3 133 136 134
3 135 138 136
3 137 139 138
3 133 141 135
3 128 142 143
3 91 57 89
3 55 142 126
3 123 55 126
3 95 53 54
3 91 95 54
3 99 51 53
3 49 142 50
3 48 99 98
3 143 49 46
3 47 48 98
3 143 130 128
3 46 45 143
3 96 47 98
3 94 96 98
3 96 43 44
3 132 140 133
3 42 41 132
3 112 107 40
3 43 112 40
3 140 41 39
3 38 40 107
3 39 141 140
3 38 106 37
3 106 34 37
3 35 137 135
3 141 35 135
3 34 120 33
3 106 105 34
3 32 139 137
3 119 33 120
3 74 28 29
3 28 26 25
3 24 0 22
3 70 69 24
3 14 136 15
3 12 127 129
3 13 10 9
3 5 122 121
3 18 2 4
3 8 18 4
3 1 122 3
3 66 65 1
3 124 6 5
3 20 0 2
3 10 18 8
3 125 7 6
3 127 11 125
3 139 19 138
3 138 15 136
3 19 17 138
3 12 131 134
3 14 12 134
3 69 1 0
3 122 65 62
3 59 124 5
3 121 59 5
3 24 26 70
3 52 50 142
3 31 23 21
3 139 31 21
3 36 35 141
3 45 132 130
3 117 67 68
3 113 64 67
3 116 113 67
3 89 58 114
3 90 89 114
3 71 117 68
3 73 76 71
3 81 80 111
3 87 91 88
3 119 74 29
3 30 119 29
3 105 118 120
3 112 96 97
3 3 4 2
3 5 6 4
3 7 8 4
3 7 9 10
3 12 13 9
3 14 15 16
3 17 18 10
3 17 19 20
3 21 22 20
3 21 23 24
3 25 26 24
3 28 25 27
3 30 29 27
3 30 31 32
3 34 33 32
3 34 35 36
3 38 37 36
3 40 38 39
3 40 41 42
3 44 43 42
3 44 45 46
3 48 47 46
3 48 49 50
3 51 50 52
3 54 53 52
3 54 55 56
3 58 57 56
3 58 59 60
3 61 60 62
3 64 63 62
3 64 65 66
3 68 67 66
3 68 69 70
3 72 71 70
3 28 74 73
3 75 76 73
3 75 77 78
3 79 80 78
3 83 80 81
3 84 85 82
3 86 87 88
3 89 90 85
3 92 93 87
3 94 95 87
3 96 94 93
3 94 98 99
3 97 92 100
3 100 102 103
3 104 101 103
3 104 105 106
3 100 108 109
3 108 110 111
3 112 97 101
3 92 86 110
3 90 113 82
3 90 114 115
3 84 81 111
3 113 116 83
3 79 77 118
3 79 109 111
3 76 78 83
3 119 118 77
3 60 121 122
3 61 63 115
3 56 55 123
3 126 127 125
3 128 129 127
3 130 131 129
3 132 133 134
3 133 135 136
3 135 137 138
3 133 140 141
3 128 126 142
3 91 54 57
3 55 52 142
3 95 99 53
3 49 143 142
3 48 51 99
3 143 45 130
3 96 44 47
3 96 112 43
3 132 41 140
3 112 104 107
3 39 36 141
3 38 107 106
3 35 32 137
3 34 105 120
3 32 31 139
3 119 30 33
3 28 72 26
3 24 69 0
3 14 134 136
3 12 11 127
3 13 16 10
3 5 3 122
3 18 20 2
3 1 65 122
3 124 125 6
3 20 22 0
3 125 11 7
3 139 21 19
3 138 17 15
3 12 129 131
3 69 66 1
3 59 56 124
3 31 27 23
3 45 42 132
3 117 116 67
3 113 115 64
3 89 57 58
3 71 76 117
3 87 95 91
3 119 75 74
3 105 103 118
