ply
format ascii 1.0
comment Created in Blender version 3.6.5
element vertex 489
property float x
property float y
property float z
property uchar red
property uchar green
property uchar blue
property uchar alpha
element face 924
property list uchar uint vertex_indices
end_header
0.13134567 -3.222129 -0.30590934 254 254 254 255
0.12775703 -3.2394876 0.38203397 254 254 254 255
-0.5568165 -3.2219188 -0.30949375 254 254 254 255
-0.5604052 -3.2392771 0.3784495 254 254 254 255
0.2985655 -3.2308602 0.038942736 254 254 254 255
-0.727625 -3.2305465 0.033597566 254 254 254 255
0.14917144 -2.7535632 -0.1889936 254 254 254 255
0.16946198 -2.7339597 0.35565174 254 254 254 255
-0.39582545 -2.7516723 -0.16875803 254 254 254 255
-0.3755349 -2.7320688 0.37588736 254 254 254 255
0.29316914 -2.744226 0.078359246 254 254 254 255
-0.5195327 -2.741406 0.108534634 254 254 254 255
-0.1395888 -2.298476 -0.14675651 254 254 254 255
-0.1075161 -2.2571588 0.1967646 254 254 254 255
-0.48556355 -2.2907314 -0.11538613 254 254 254 255
-0.4534907 -2.2494144 0.228135 254 254 254 255
-0.03858026 -2.2797196 0.01729941 254 254 254 255
-0.5544992 -2.2681708 0.06407907 254 254 254 255
-0.1233766 -1.841948 -0.052229382 254 254 254 255
-0.08784326 -1.8106886 0.23688617 254 254 254 255
-0.41372034 -1.821813 -0.01872204 254 254 254 255
-0.37818697 -1.7905539 0.27039358 254 254 254 255
-0.03430089 -1.8312639 0.08409894 254 254 254 255
-0.46726272 -1.8012381 0.13406526 254 254 254 255
-0.012257915 -1.5942261 -0.12764533 254 254 254 255
0.026641445 -1.5564388 0.15260115 254 254 254 255
-0.29396552 -1.5644048 -0.092564106 254 254 254 255
-0.25506616 -1.5266174 0.18768239 254 254 254 255
0.07637971 -1.5826567 0.0038619111 254 254 254 255
-0.34370387 -1.5381869 0.05617521 254 254 254 255
0.07006537 -1.2551296 -0.22222891 254 254 254 255
0.09450443 -1.2116461 0.05882459 254 254 254 255
-0.21326616 -1.2758073 -0.19439249 254 254 254 255
-0.18882708 -1.2323238 0.08666097 254 254 254 255
0.15187165 -1.2283093 -0.08853876 254 254 254 255
-0.27063346 -1.259144 -0.04702905 254 254 254 255
0.028862897 -0.5826265 -0.12317232 254 254 254 255
0.034400534 -0.5513658 0.13690086 254 254 254 255
-0.2087651 -0.6482407 -0.091174185 254 254 254 255
-0.19954805 -0.64292234 0.15525775 254 254 254 255
0.08231113 -0.5349852 -0.0019258168 254 254 254 255
-0.2496389 -0.6708776 0.03599837 254 254 254 255
-0.2376607 -0.98667014 0.10693581 254 254 254 255
-0.31176725 -1.011642 -0.008320061 254 254 254 255
-0.26674554 -1.0206442 -0.13321437 254 254 254 255
-0.017524501 -0.98413104 -0.14141306 254 254 254 255
0.04157366 -0.94900495 -0.027386665 254 254 254 255
-0.0040962216 -0.94558525 0.08812058 254 254 254 255
0.28857338 -0.31979933 -0.5500542 254 254 254 255
0.31163362 -0.30442515 -0.48208046 254 254 254 255
0.31777015 -0.41966018 -0.56721765 254 254 254 255
0.3452397 -0.40447915 -0.49144256 254 254 254 255
0.44295335 -0.25619748 0.06502503 254 254 254 255
0.42347512 -0.25286183 0.13339224 254 254 254 255
0.4867083 -0.35128245 0.06644714 254 254 254 255
0.46439716 -0.3458221 0.13152972 254 254 254 255
0.7957758 0.0015725176 0.22426346 254 254 254 255
0.77923304 0.008439742 0.29313865 254 254 254 255
0.84600955 -0.0803643 0.23324792 254 254 254 255
0.8277542 -0.06956415 0.29892474 254 254 254 255
1.0143907 0.1901794 0.3080739 254 254 254 255
0.99807805 0.19600232 0.35299683 254 254 254 255
1.0432562 0.13493201 0.31492448 254 254 254 255
1.0316573 0.14663492 0.35630974 254 254 254 255
0.9653439 0.0766992 0.33804336 254 254 254 255
0.9263722 0.13500005 0.33269683 254 254 254 255
0.93889815 0.1341183 0.2781923 254 254 254 255
0.97232276 0.06912055 0.28807962 254 254 254 255
1.1727368 0.32067674 0.13880454 254 254 254 255
1.163873 0.35499963 0.13445625 254 254 254 255
1.127816 0.2939243 0.117507085 254 254 254 255
1.1168017 0.33433768 0.114345565 254 254 254 255
1.0366374 0.47580782 0.0011807645 254 254 254 255
1.038436 0.49855357 -0.0039254753 254 254 254 255
1.0042968 0.46734968 -0.015677132 254 254 254 255
1.0070249 0.49413934 -0.021261917 254 254 254 255
1.1502383 0.37207568 0.11748802 254 254 254 255
1.1036304 0.35263568 0.09907382 254 254 254 255
1.1585046 0.33905968 0.121416844 254 254 254 255
1.113907 0.3137689 0.101829 254 254 254 255
1.2757401 0.38607177 -0.011420563 254 254 254 255
1.2696055 0.40168846 -0.011418793 254 254 254 255
1.2612154 0.40942693 -0.017635666 254 254 254 255
1.266978 0.39439884 -0.017736865 254 254 254 255
1.3696963 0.45556504 -0.16541734 254 254 254 255
1.3658645 0.46240577 -0.16401345 254 254 254 255
1.3609048 0.46565515 -0.16572118 254 254 254 255
1.3645178 0.459066 -0.16710562 254 254 254 255
0.94679254 0.57702416 -0.013986868 254 254 254 255
0.95411915 0.592918 -0.018257136 254 254 254 255
0.9233792 0.57714653 -0.030835718 254 254 254 255
0.93239826 0.5957541 -0.0354585 254 254 254 255
0.9779846 0.6962978 -0.057307027 254 254 254 255
0.9816744 0.70359516 -0.057990428 254 254 254 255
0.96780604 0.6979047 -0.065459594 254 254 254 255
0.97231627 0.7064149 -0.066079244 254 254 254 255
1.0892237 0.28515935 0.42772555 254 254 254 255
1.0831971 0.2860073 0.44385874 254 254 254 255
1.0995871 0.26526314 0.42878836 254 254 254 255
1.0952569 0.26830977 0.44383705 254 254 254 255
1.324343 0.35187358 0.5614966 254 254 254 255
1.3207004 0.35209092 0.5714929 254 254 254 255
1.3309394 0.33968753 0.5617955 254 254 254 255
1.328316 0.3412944 0.5711478 254 254 254 255
0.5713828 -0.28743678 0.10575616 254 254 254 255
0.5500275 -0.28071794 0.17097877 254 254 254 255
0.5345821 -0.20878036 0.10141084 254 254 254 255
0.5164721 -0.20426613 0.17000759 254 254 254 255
0.46885806 0.13117671 0.32856262 254 254 254 255
0.4606237 0.13379684 0.36497527 254 254 254 255
0.51448566 0.1480491 0.38261542 254 254 254 255
0.52188337 0.14497508 0.3460997 254 254 254 255
0.3816495 0.27170435 0.30778345 254 254 254 255
0.37441856 0.26888788 0.34439385 254 254 254 255
0.43015295 0.2823794 0.36287758 254 254 254 255
0.43654653 0.28472188 0.32611892 254 254 254 255
0.3345624 0.438531 0.38194978 254 254 254 255
0.3278179 0.4314195 0.4180676 254 254 254 255
0.38106385 0.44581422 0.43738267 254 254 254 255
0.38700846 0.4524353 0.40107313 254 254 254 255
0.34569383 0.5577394 0.41219267 254 254 254 255
0.3420004 0.5525667 0.43192688 254 254 254 255
0.3713854 0.56027687 0.44311985 254 254 254 255
0.37463945 0.5651792 0.42326295 254 254 254 255
0.36327797 0.3184452 0.36727273 254 254 254 255
0.37045458 0.32256857 0.33083054 254 254 254 255
0.42158705 0.33536783 0.34875363 254 254 254 255
0.41532898 0.33173355 0.38537666 254 254 254 255
0.15610346 0.43077472 0.29237524 254 254 254 255
0.1537536 0.43350855 0.3097244 254 254 254 255
0.15172377 0.4568299 0.29777434 254 254 254 255
0.14938869 0.45894226 0.3151863 254 254 254 255
0.056574892 0.51178986 0.30042273 254 254 254 255
0.055760868 0.51541 0.30919585 254 254 254 255
0.053566344 0.52596587 0.30006433 254 254 254 255
0.05278193 0.52927095 0.30894905 254 254 254 255
0.33301464 0.642134 0.48027158 254 254 254 255
0.33112153 0.6384919 0.49054557 254 254 254 255
0.34670147 0.6425002 0.49684578 254 254 254 255
0.34836373 0.6459975 0.48649472 254 254 254 255
-0.22270909 -3.2393804 0.3802085 254 254 254 255
-0.21912046 -3.222022 -0.30773476 254 254 254 255
-0.1080931 -2.7329967 0.3659573 254 254 254 255
-0.12838367 -2.7526002 -0.1786881 254 254 254 255
-0.2837135 -2.2532148 0.21274084 254 254 254 255
-0.3157862 -2.2945318 -0.13078025 254 254 254 255
-0.23570903 -1.8004344 0.25395074 254 254 254 255
-0.27124238 -1.831694 -0.035164807 254 254 254 255
-0.11682614 -1.5412513 0.17046727 254 254 254 255
-0.15572551 -1.5790386 -0.10977925 254 254 254 255
-0.04979016 -1.2221768 0.073001064 254 254 254 255
-0.07422925 -1.2656603 -0.20805246 254 254 254 255
-0.09880453 -0.56824595 0.1479508 254 254 254 255
-0.09523153 -0.6247851 -0.10967281 254 254 254 255
-0.11920386 -0.56488377 0.01770224 254 254 254 255
-0.12350891 -0.96588445 0.09757134 254 254 254 255
-0.13716379 -1.0023389 -0.13528956 254 254 254 255
0.42129743 -0.1294075 -0.7282002 254 254 254 255
0.4366818 -0.14965391 -0.6591036 254 254 254 255
0.46638292 -0.2370164 -0.71119535 254 254 254 255
0.4494232 -0.213427 -0.78537405 254 254 254 255
0.5169149 0.058097553 -0.80072075 254 254 254 255
0.5231531 0.03422277 -0.76588625 254 254 254 255
0.5364629 -0.0067536323 -0.8099425 254 254 254 255
0.5286441 0.020879194 -0.8480249 254 254 254 255
0.47091895 -0.14572053 -0.8049037 254 254 254 255
0.4866253 -0.17049989 -0.73975754 254 254 254 255
0.46161905 -0.09659924 -0.68994045 254 254 254 255
0.44728994 -0.075015366 -0.7508061 254 254 254 255
0.3087911 -0.0075614066 -0.8889694 254 254 254 255
0.32952487 -0.07163267 -0.93376154 254 254 254 255
0.34689978 -0.019738756 -0.9478395 254 254 254 255
0.32946244 0.034104962 -0.90555656 254 254 254 255
0.1625096 0.050492417 -1.054412 254 254 254 255
0.18676773 0.0010090389 -1.1136082 254 254 254 255
0.19123617 0.057060093 -1.1192033 254 254 254 255
0.17165631 0.097860694 -1.0649534 254 254 254 255
0.07338215 0.15099525 -1.1393656 254 254 254 255
0.08733786 0.13176438 -1.1790369 254 254 254 255
0.08157248 0.16350184 -1.1772165 254 254 254 255
0.07084966 0.17903449 -1.1415039 254 254 254 255
0.57435834 0.20828971 -0.9089357 254 254 254 255
0.57898444 0.19309177 -0.8693129 254 254 254 255
0.61719984 0.15577067 -0.9000363 254 254 254 255
0.61070704 0.17338966 -0.94388145 254 254 254 255
0.6525854 0.37154508 -0.89928967 254 254 254 255
0.6520167 0.36796102 -0.8795121 254 254 254 255
0.67825997 0.35738415 -0.88598436 254 254 254 255
0.6781765 0.36143947 -0.9080816 254 254 254 255
-0.44613603 -0.2074808 0.34608725 254 254 254 255
-0.4962145 -0.25998294 0.34327808 254 254 254 255
-0.5353395 -0.26900315 0.27136436 254 254 254 255
-0.46251553 -0.18858828 0.2736029 254 254 254 255
-0.5926542 -0.008388359 0.37079418 254 254 254 255
-0.64262784 -0.060989134 0.3679664 254 254 254 255
-0.66608894 -0.07027511 0.30251944 254 254 254 255
-0.614714 0.02530072 0.30169404 254 254 254 255
-0.7429703 0.11679751 0.3976363 254 254 254 255
-0.7828476 0.056254145 0.39358038 254 254 254 255
-0.8203702 0.04226901 0.32160676 254 254 254 255
-0.7631263 0.1343594 0.32577178 254 254 254 255
-0.8567609 0.19476166 0.48239353 254 254 254 255
-0.9038205 0.1394823 0.48371124 254 254 254 255
-0.9437727 0.12415012 0.41333735 254 254 254 255
-0.8756057 0.20848379 0.4093471 254 254 254 255
-0.9532628 0.30619344 0.55327606 254 254 254 255
-1.0068123 0.26819882 0.5606845 254 254 254 255
-1.0475749 0.25617993 0.49894515 254 254 254 255
-0.9691434 0.3147342 0.48586982 254 254 254 255
-1.044124 0.46526474 0.5734977 254 254 254 255
-1.0733678 0.4502289 0.57825416 254 254 254 255
-1.0948821 0.44569594 0.54764426 254 254 254 255
-1.0518638 0.46911457 0.53949356 254 254 254 255
-0.73042774 -0.039681513 0.30327356 254 254 254 255
-0.68608236 0.058896195 0.30220386 254 254 254 255
-0.6520691 0.041093647 0.38140392 254 254 254 255
-0.69805205 -0.014646899 0.37809077 254 254 254 255
-0.88617414 -0.1287294 0.20387098 254 254 254 255
-0.8647712 -0.022629209 0.21157932 254 254 254 255
-0.9428076 -0.011133148 0.21085225 254 254 254 255
-0.9566214 -0.11809454 0.20352875 254 254 254 255
-0.8640567 -0.04584462 0.038540874 254 254 254 255
-0.85369045 0.023089273 0.055409387 254 254 254 255
-0.9054414 0.026708048 0.060611323 254 254 254 255
-0.9107649 -0.042448677 0.043471742 254 254 254 255
-0.85169905 -0.007918033 -0.04455367 254 254 254 255
-0.8444667 0.05572309 -0.012283132 254 254 254 255
-0.89523554 0.052561853 -0.00084495026 254 254 254 255
-0.8975006 -0.010701636 -0.03397075 254 254 254 255
-0.88213456 0.1345416 -0.14647129 254 254 254 255
-0.8782836 0.1625968 -0.118199416 254 254 254 255
-0.90468514 0.15465833 -0.10891937 254 254 254 255
-0.9059297 0.12736844 -0.13794948 254 254 254 255
-0.9291133 0.27607337 -0.20305842 254 254 254 255
-0.9274525 0.28541276 -0.19129798 254 254 254 255
-0.9370671 0.28156614 -0.18763714 254 254 254 255
-0.937775 0.27259293 -0.19970067 254 254 254 255
-0.10858938 -0.18379644 -0.33934247 254 254 254 255
-0.036848474 -0.15009685 -0.34441286 254 254 254 255
-0.0074336 -0.12577914 -0.26859438 254 254 254 255
-0.12634166 -0.15736225 -0.25937593 254 254 254 255
-0.13316359 -0.01793599 -0.3566255 254 254 254 255
-0.06200625 0.004925535 -0.3747267 254 254 254 255
-0.03650543 0.026281556 -0.2854227 254 254 254 255
-0.15829653 0.012945745 -0.27567017 254 254 254 255
-0.28255695 0.1773614 -0.45676538 254 254 254 255
-0.2313595 0.18688758 -0.47200567 254 254 254 255
-0.21263921 0.21342951 -0.4218481 254 254 254 255
-0.29713678 0.204565 -0.40462208 254 254 254 255
-0.32426208 0.27317148 -0.4930684 254 254 254 255
-0.27228364 0.29307956 -0.49836344 254 254 254 255
-0.25229368 0.31771734 -0.44772643 254 254 254 255
-0.337396 0.3016322 -0.44121274 254 254 254 255
-0.32239556 0.40069985 -0.5167153 254 254 254 255
-0.28452972 0.41677955 -0.5209689 254 254 254 255
-0.27007687 0.43554056 -0.48364738 254 254 254 255
-0.33252093 0.4214166 -0.47828132 254 254 254 255
-0.39786273 0.5860581 -0.5552676 254 254 254 255
-0.37666896 0.60119045 -0.55911845 254 254 254 255
-0.3687975 0.6146103 -0.535677 254 254 254 255
-0.40547523 0.5973742 -0.5302097 254 254 254 255
-0.10091264 0.10425029 -0.33523706 254 254 254 255
-0.20854396 0.09318528 -0.3248116 254 254 254 255
-0.1955287 0.060614485 -0.38006276 254 254 254 255
-0.13295831 0.07989833 -0.3982386 254 254 254 255
-0.15630731 0.11156181 -0.5947416 254 254 254 255
-0.124162085 0.12961413 -0.60609 254 254 254 255
-0.16220595 0.16455573 -0.59376633 254 254 254 255
-0.19019948 0.14862536 -0.58261466 254 254 254 255
-0.18644494 0.18534555 -0.67756104 254 254 254 255
-0.15579689 0.20588328 -0.68882525 254 254 254 255
-0.19319935 0.23740064 -0.6681408 254 254 254 255
-0.21977012 0.21912001 -0.65711313 254 254 254 255
-0.19824138 0.23831299 -0.77591366 254 254 254 255
-0.17390026 0.25275704 -0.7846496 254 254 254 255
-0.203033 0.2788935 -0.7731963 254 254 254 255
-0.22420272 0.2661093 -0.76462275 254 254 254 255
-0.21305633 0.28936532 -0.83553773 254 254 254 255
-0.20119636 0.29628828 -0.83977485 254 254 254 255
-0.21534553 0.3090752 -0.83450687 254 254 254 255
-0.22566444 0.30295274 -0.830347 254 254 254 255
-0.05285376 0.10699736 -0.17086188 254 254 254 255
0.02024516 0.11486916 -0.17634057 254 254 254 255
-0.08275774 0.15538482 -0.20016216 254 254 254 255
-0.018153679 0.16191597 -0.20609038 254 254 254 255
-0.0024054581 0.13415255 -0.11062019 254 254 254 255
0.05916219 0.15363091 -0.11497551 254 254 254 255
-0.03700618 0.17428601 -0.12925677 254 254 254 255
0.0174385 0.19127896 -0.13410547 254 254 254 255
-0.03475301 0.20153253 -0.00076555414 254 254 254 255
0.0018450042 0.21692683 0.0019679335 254 254 254 255
-0.05826072 0.2267215 -0.0031990376 254 254 254 255
-0.025888609 0.2404217 -0.0014054037 254 254 254 255
-0.004169197 0.29790428 0.09982703 254 254 254 255
0.013870367 0.30405414 0.10150799 254 254 254 255
-0.014736775 0.31069168 0.1005618 254 254 254 255
0.001214972 0.31620955 0.10175622 254 254 254 255
-0.45791337 -0.55908686 -0.020291954 254 254 254 255
-0.42653447 -0.5502616 -0.11874189 254 254 254 255
-0.44644037 -0.6857495 -0.14614178 254 254 254 255
-0.48449954 -0.6674086 -0.032960806 254 254 254 255
-0.5895593 -0.4560082 -0.1974797 254 254 254 255
-0.55821353 -0.44653317 -0.29587978 254 254 254 255
-0.57892376 -0.5816676 -0.32440406 254 254 254 255
-0.6167805 -0.56406367 -0.21103828 254 254 254 255
-0.6470268 -0.37053022 -0.29640812 254 254 254 255
-0.6279595 -0.35237014 -0.36636347 254 254 254 255
-0.6724892 -0.43344623 -0.40606144 254 254 254 255
-0.6895306 -0.43495128 -0.32068437 254 254 254 255
-0.76540303 -0.23638579 -0.32749248 254 254 254 255
-0.7508718 -0.22867471 -0.3634706 254 254 254 255
-0.7754161 -0.27032283 -0.38585794 254 254 254 255
-0.78903615 -0.26908123 -0.34184918 254 254 254 255
-0.94935876 -0.0865886 -0.3648284 254 254 254 255
-0.937309 -0.084430575 -0.38465112 254 254 254 255
-0.945905 -0.11270451 -0.39518845 254 254 254 255
-0.95898765 -0.10885285 -0.3717236 254 254 254 255
0.0041103344 -0.49489576 0.47614786 254 254 254 255
0.063391075 -0.613427 0.52002203 254 254 254 255
-0.08620594 -0.5243526 0.45821208 254 254 254 255
-0.031984247 -0.64901745 0.50186163 254 254 254 255
-0.03831579 -0.3110983 0.6458652 254 254 254 255
-0.010524213 -0.35675287 0.6978828 254 254 254 255
-0.08357291 -0.33395663 0.6342718 254 254 254 255
-0.057715937 -0.38398293 0.6857275 254 254 254 255
-0.12553123 -0.164066 0.76186067 254 254 254 255
-0.1104325 -0.1888828 0.7914241 254 254 254 255
-0.15207055 -0.1745383 0.75872386 254 254 254 255
-0.13852705 -0.20100947 0.7889375 254 254 254 255
-0.04111215 -0.3064343 0.72478545 254 254 254 255
-0.08183537 -0.3293561 0.716572 254 254 254 255
-0.065039985 -0.2671593 0.67929196 254 254 254 255
-0.10404021 -0.28635868 0.67145944 254 254 254 255
0.06399773 -0.07854373 0.70503926 254 254 254 255
0.06751339 -0.11229628 0.7339649 254 254 254 255
0.04642012 -0.0833712 0.74868125 254 254 254 255
0.043537058 -0.054260723 0.7233815 254 254 254 255
0.14389616 -0.04943828 0.77844334 254 254 254 255
0.14080739 -0.086194985 0.8034968 254 254 254 255
0.118535295 -0.05779548 0.81748044 254 254 254 255
0.12140948 -0.026064876 0.7955545 254 254 254 255
0.20040816 -0.01984104 0.8097817 254 254 254 255
0.20169222 -0.039476946 0.8259631 254 254 254 255
0.18951106 -0.023012776 0.8343052 254 254 254 255
0.18849543 -0.006073714 0.82015115 254 254 254 255
-0.19725852 -0.10789394 0.85632825 254 254 254 255
-0.1830768 -0.13265686 0.8863871 254 254 254 255
-0.22155908 -0.12128957 0.8489879 254 254 254 255
-0.20877546 -0.14792512 0.87938744 254 254 254 255
-0.22954589 -0.0546137 0.93367034 254 254 254 255
-0.21837994 -0.0754688 0.95918846 254 254 254 255
-0.24758875 -0.067659095 0.92445326 254 254 254 255
-0.2374284 -0.090221524 0.950032 254 254 254 255
-0.11668218 -0.08831328 -0.35598254 254 254 254 255
-0.095988765 -0.07251944 -0.3598999 254 254 254 255
-0.08813979 -0.05925897 -0.3363603 254 254 254 255
-0.124224246 -0.07762499 -0.3306292 254 254 254 255
0.027350003 0.17465863 -0.82779133 254 254 254 255
0.25561127 0.37996164 -0.66014415 254 254 254 255
-0.021521421 0.25113463 -0.48997337 254 254 254 255
-0.2931848 0.25095335 -0.71033245 254 254 254 255
-0.18394125 0.37967077 -1.0166931 254 254 254 255
0.15523118 0.4594007 -0.9856722 254 254 254 255
0.07615065 0.5831407 -0.43907157 254 254 254 255
-0.2630218 0.5034107 -0.4700925 254 254 254 255
-0.36340192 0.5828503 -0.79562044 254 254 254 255
-0.086269185 0.711677 -0.9657913 254 254 254 255
0.18539424 0.71185786 -0.74543214 254 254 254 255
-0.13514039 0.78815216 -0.62797356 254 254 254 255
-0.38548517 0.9338575 -0.61868054 254 254 254 255
-0.7655613 0.67476916 -0.5864876 254 254 254 255
-0.45534095 0.58897954 -0.9166737 254 254 254 255
-0.035474267 0.65899724 -0.7393815 254 254 254 255
-0.08621311 0.78806126 -0.29961878 254 254 254 255
-0.53742975 0.7978075 -0.20512998 254 254 254 255
-0.6504524 0.2397815 -0.68729407 254 254 254 255
-0.1992358 0.23003525 -0.78178304 254 254 254 255
0.02889573 0.35307357 -0.40042505 254 254 254 255
-0.28132454 0.43886343 -0.070238836 254 254 254 255
-0.70119125 0.36884597 -0.24753164 254 254 254 255
-0.35118046 0.09398575 -0.36823246 254 254 254 255
0.84696823 0.70252895 -1.0361825 254 254 254 255
0.39831787 0.6560986 -1.009712 254 254 254 255
0.6585476 0.2951741 -1.0881739 254 254 254 255
1.0364158 0.33986562 -0.8445264 254 254 254 255
1.0097123 0.728417 -0.61548364 254 254 254 255
0.61534774 0.92385507 -0.7175759 254 254 254 255
0.31048167 0.26473758 -0.801697 254 254 254 255
0.7048462 0.06929954 -0.699605 254 254 254 255
0.92187595 0.33705646 -0.40746883 254 254 254 255
0.66164637 0.69798046 -0.32900676 254 254 254 255
0.2837785 0.65328896 -0.5726546 254 254 254 255
0.4732259 0.29062608 -0.3809986 254 254 254 255
0.6677151 0.72102785 -0.51172173 254 254 254 255
-0.0322901 0.80148065 -0.6691702 254 254 254 255
0.20601632 0.17917877 -0.39129043 254 254 254 255
0.71672404 0.3331646 0.095270395 254 254 254 255
0.79404205 1.0506446 0.11809059 254 254 254 255
0.33112672 1.3400707 -0.3543581 254 254 254 255
-0.41591272 0.4633373 -0.15948775 254 254 254 255
0.047002904 0.17391066 0.3129608 254 254 254 255
0.41041943 0.7125012 0.6277729 254 254 254 255
0.172113 1.3348022 0.34989366 254 254 254 255
-0.33859384 1.1808168 -0.13666807 254 254 254 255
-0.2895852 0.79295355 0.47032392 254 254 254 255
-0.7121332 0.22050725 -0.20042038 254 254 254 255
-0.45955533 0.62868357 -0.3336457 254 254 254 255
-0.95598346 0.61879164 -0.37379515 254 254 254 255
-1.1368964 0.36592856 0.015416448 254 254 254 255
-0.75226724 0.21954513 0.29610777 254 254 254 255
-0.3336532 0.38193792 0.08037338 254 254 254 255
-0.7282171 1.0263743 -0.20014869 254 254 254 255
-1.1468313 0.86398154 0.015585628 254 254 254 255
-1.0209289 0.6172359 0.4296047 254 254 254 255
-0.52450144 0.6271283 0.46975404 254 254 254 255
-0.3435881 0.87999046 0.080542326 254 254 254 255
-0.7683514 1.0254118 0.296379 254 254 254 255
-1.3121957 0.1834656 0.22148545 254 254 254 255
-1.0023 0.68427026 0.058027122 254 254 254 255
-1.6113834 0.6721335 0.008766435 254 254 254 255
-1.8333511 0.3618874 0.48630258 254 254 254 255
-1.3614376 0.18228522 0.8306916 254 254 254 255
-0.8478269 0.38153017 0.5660002 254 254 254 255
-1.3319296 1.1722094 0.22181879 254 254 254 255
-1.8455405 0.97296447 0.48651013 254 254 254 255
-1.691067 0.67022437 0.99448323 254 254 254 255
-1.0819845 0.682362 1.0437438 254 254 254 255
-0.86001635 0.9926063 0.5662075 254 254 254 255
-1.3811716 1.1710285 0.83102435 254 254 254 255
-0.3672273 0.15540765 0.12556085 254 254 254 255
0.29461807 0.6657357 0.31718934 254 254 254 255
-0.4871309 1.0004516 0.20753194 254 254 254 255
-1.0585631 0.45243943 0.5366997 254 254 254 255
-0.62995756 -0.22096592 0.8497915 254 254 254 255
0.2063466 -0.0891343 0.7141241 254 254 254 255
0.012327308 1.2781736 0.84676033 254 254 254 255
-0.823977 1.1463424 0.98242784 254 254 254 255
-0.9122484 0.39147142 1.3793625 254 254 254 255
-0.13050002 0.056757808 1.4890205 254 254 254 255
0.4409322 0.6047677 1.1598512 254 254 254 255
-0.25040308 0.9018004 1.57099 254 254 254 255
0.5296116 0.84646535 -0.28925428 254 254 254 255
1.0779196 1.0180943 -0.10496612 254 254 254 255
0.59592795 1.3565495 0.026145231 254 254 254 255
0.13474269 0.9861076 0.14507906 254 254 254 255
0.33172068 0.41870514 0.08746874 254 254 254 255
0.914632 0.43848032 -0.067066245 254 254 254 255
1.0219265 1.2638125 0.44326437 254 254 254 255
0.439015 1.2440374 0.59779954 254 254 254 255
0.27572715 0.6644229 0.6356991 254 254 254 255
0.7577188 0.32596907 0.5045887 254 254 254 255
1.2189037 0.6964106 0.38565338 254 254 254 255
0.8240352 0.83605283 0.8199869 254 254 254 255
1.2734058 0.8074072 -0.5041769 254 254 254 255
2.0530694 1.0514537 -0.24212945 254 254 254 255
1.3677039 1.5327183 -0.055696417 254 254 254 255
0.7119242 1.0059704 0.11342084 254 254 254 255
0.9920159 0.1991558 0.031502187 254 254 254 255
1.8208834 0.22727492 -0.18823789 254 254 254 255
1.9734503 1.4008516 0.5374237 254 254 254 255
1.1445824 1.3727324 0.7571641 254 254 254 255
0.9123964 0.54855293 0.8110551 254 254 254 255
1.5977615 0.06729038 0.6246235 254 254 254 255
2.2535408 0.59403765 0.45550406 254 254 254 255
1.6920598 0.79260105 1.073102 254 254 254 255
0.12016879 1.1566685 -0.07300046 254 254 254 255
0.727745 1.3468494 0.13120791 254 254 254 255
0.19365352 1.7218891 0.27649143 254 254 254 255
-0.3173825 1.3114051 0.40828115 254 254 254 255
-0.09911274 0.68267065 0.34444356 254 254 254 255
0.5468072 0.70458335 0.17320453 254 254 254 255
0.66569954 1.6191283 0.7386982 254 254 254 255
0.01977933 1.5972157 0.9099377 254 254 254 255
-0.1611587 0.95494866 0.9519338 254 254 254 255
0.3729329 0.57991046 0.8066512 254 254 254 255
0.88396835 0.99039394 0.6748598 254 254 254 255
0.44641763 1.1451304 1.1561415 254 254 254 255
-1.2208996 0.65265656 -0.3013982 254 254 254 255
-0.842089 0.70120746 -0.6832832 254 254 254 255
-0.698184 0.6453866 -0.16572705 254 254 254 255
-1.0423803 0.30027783 0.06691718 254 254 254 255
-1.3990085 0.1428157 -0.3068692 254 254 254 255
-1.2752181 0.39060426 -0.770513 254 254 254 255
-0.42944783 0.37883607 -0.55098695 254 254 254 255
-0.5532384 0.13104703 -0.0873428 254 254 254 255
-0.9863683 -0.17955619 -0.1745728 254 254 254 255
-1.130272 -0.12373527 -0.69212854 254 254 254 255
-0.7860769 0.22137438 -0.92477256 254 254 254 255
-0.60755724 -0.13100433 -0.5564576 254 254 254 255
3 1 142 140
3 141 8 143
3 6 16 10
3 7 16 13
3 4 6 10
3 5 8 2
3 1 10 7
3 3 11 5
3 17 20 14
3 16 18 22
3 11 14 8
3 142 13 144
3 11 15 17
3 8 145 143
3 147 26 149
3 21 29 23
3 13 146 144
3 15 23 17
3 145 20 147
3 13 22 19
3 26 35 32
3 28 30 34
3 22 25 19
3 22 24 28
3 20 29 26
3 19 148 146
3 156 38 153
3 42 41 43
3 25 150 148
3 29 33 35
3 149 32 151
3 28 31 25
3 152 190 39
3 38 154 153
3 40 53 52
3 36 49 48
3 38 299 298
3 37 319 317
3 150 47 155
3 35 44 32
3 34 45 46
3 31 46 47
3 33 43 35
3 32 156 151
3 50 159 51
3 36 50 45
3 45 51 46
3 40 51 49
3 105 58 59
3 40 54 46
3 46 55 47
3 37 55 53
3 65 63 61
3 106 58 104
3 107 59 57
3 107 56 106
3 63 98 99
3 65 60 66
3 64 62 63
3 62 70 68
3 56 67 58
3 59 67 64
3 57 66 56
3 57 64 65
3 77 73 75
3 60 68 69
3 66 70 67
3 60 71 66
3 75 90 74
3 76 72 73
3 77 74 79
3 79 72 78
3 70 78 68
3 71 79 70
3 69 80 81
3 71 76 77
3 83 84 80
3 76 83 78
3 78 80 68
3 76 81 82
3 85 87 86
3 81 84 85
3 83 86 87
3 82 85 86
3 91 93 95
3 74 88 72
3 75 89 91
3 73 88 89
3 95 92 94
3 89 92 93
3 91 94 90
3 90 92 88
3 99 101 97
3 60 98 62
3 61 99 97
3 61 96 60
3 103 100 101
3 97 100 96
3 99 102 103
3 98 100 102
3 107 109 53
3 53 105 107
3 52 104 54
3 55 104 105
3 108 115 111
3 53 108 52
3 107 111 110
3 106 108 111
3 124 116 125
3 108 113 112
3 111 114 110
3 109 114 113
3 119 122 118
3 127 119 118
3 127 117 124
3 126 116 119
3 123 136 139
3 118 121 117
3 119 120 123
3 116 121 120
3 115 125 126
3 114 124 113
3 114 126 127
3 113 128 112
3 130 132 134
3 125 131 124
3 125 128 130
3 124 129 113
3 133 134 132
3 131 133 129
3 129 132 128
3 131 134 135
3 137 139 136
3 121 136 120
3 122 139 138
3 122 137 121
3 151 45 30
3 33 155 42
3 155 39 42
3 153 240 237
3 154 37 40
3 24 151 30
3 148 33 27
3 45 153 36
3 146 27 21
3 145 18 12
3 144 21 15
3 18 149 24
3 143 12 6
3 9 144 15
3 0 143 6
3 140 9 3
3 165 163 166
3 49 159 158
3 48 160 50
3 48 158 157
3 164 181 184
3 167 163 162
3 168 164 165
3 168 162 161
3 157 167 168
3 157 170 160
3 158 166 167
3 160 166 159
3 171 176 172
3 165 170 171
3 168 171 172
3 168 169 157
3 176 177 173
3 171 174 175
3 172 173 169
3 170 173 174
3 177 179 178
3 173 178 174
3 176 179 180
3 175 178 179
3 182 187 186
3 161 182 181
3 164 183 163
3 162 183 182
3 187 185 186
3 181 188 184
3 181 186 185
3 184 187 183
3 192 193 189
3 39 191 41
3 154 191 192
3 152 192 189
3 214 199 200
3 191 194 195
3 192 195 196
3 189 194 190
3 199 204 200
3 215 198 216
3 214 197 215
3 213 198 199
3 201 208 205
3 198 201 202
3 197 204 201
3 198 203 199
3 208 211 212
3 202 207 203
3 204 207 208
3 201 206 202
3 212 210 209
3 205 210 206
3 208 209 205
3 206 211 207
3 195 216 213
3 196 215 193
3 194 215 216
3 195 218 196
3 217 224 221
3 214 218 219
3 213 217 195
3 213 219 220
3 223 228 224
3 218 221 222
3 219 224 220
3 218 223 219
3 226 231 227
3 222 227 223
3 221 228 225
3 222 225 226
3 229 236 233
3 225 232 229
3 226 229 230
3 227 232 228
3 233 235 234
3 230 233 234
3 231 236 232
3 230 235 231
3 239 242 243
3 36 237 238
3 40 240 154
3 36 239 40
3 262 247 248
3 239 244 240
3 238 241 242
3 240 241 237
3 248 249 245
3 263 246 264
3 262 245 263
3 264 247 261
3 251 256 252
3 247 250 251
3 248 251 252
3 245 250 246
3 256 257 253
3 250 253 254
3 252 253 249
3 251 254 255
3 257 356 353
3 255 258 259
3 256 259 260
3 254 257 258
3 242 261 243
3 244 263 241
3 264 266 267
3 261 283 284
3 267 270 271
3 264 268 263
3 242 265 266
3 263 265 241
3 272 273 269
3 268 269 265
3 266 269 270
3 267 272 268
3 275 280 276
3 270 273 274
3 271 276 272
3 271 274 275
3 277 279 278
3 275 278 279
3 276 277 273
3 274 277 278
3 282 288 286
3 243 281 244
3 244 283 262
3 243 284 282
3 287 292 288
3 282 285 281
3 284 287 288
3 281 287 283
3 292 294 290
3 287 289 291
3 288 290 286
3 285 290 289
3 293 296 295
3 290 293 289
3 292 295 296
3 291 293 295
3 297 304 300
3 43 299 44
3 41 298 297
3 41 300 43
3 301 308 304
3 298 301 297
3 299 304 303
3 298 303 302
3 305 312 308
3 302 305 301
3 303 308 307
3 302 307 306
3 312 315 311
3 306 309 305
3 308 311 307
3 306 311 310
3 316 314 315
3 310 315 314
3 309 316 312
3 309 314 313
3 318 324 320
3 152 320 319
3 37 318 47
3 47 320 155
3 329 328 330
3 317 322 318
3 319 324 323
3 317 323 321
3 328 347 327
3 331 326 329
3 332 328 327
3 331 327 325
3 321 332 331
3 323 330 332
3 321 334 322
3 322 330 324
3 336 337 333
3 331 335 336
3 331 333 321
3 329 334 335
3 340 343 344
3 334 337 338
3 335 340 336
3 335 338 339
3 341 343 342
3 339 342 343
3 337 344 341
3 337 342 338
3 346 349 350
3 327 345 325
3 328 346 348
3 326 345 346
3 352 349 351
3 348 351 347
3 345 351 349
3 346 352 348
3 354 356 355
3 258 355 259
3 260 355 356
3 257 354 258
3 357 358 359
3 358 357 362
3 357 359 360
3 357 360 361
3 357 361 362
3 358 362 367
3 359 358 363
3 360 359 364
3 361 360 365
3 362 361 366
3 358 367 363
3 359 363 364
3 360 364 365
3 361 365 366
3 362 366 367
3 363 367 368
3 364 363 368
3 365 364 368
3 366 365 368
3 367 366 368
3 369 370 371
3 370 369 374
3 369 371 372
3 369 372 373
3 369 373 374
3 370 374 379
3 371 370 375
3 372 371 376
3 373 372 377
3 374 373 378
3 370 379 375
3 371 375 376
3 372 376 377
3 373 377 378
3 374 378 379
3 375 379 380
3 376 375 380
3 377 376 380
3 378 377 380
3 379 378 380
3 381 382 383
3 382 381 386
3 381 383 384
3 381 384 385
3 381 385 386
3 382 386 391
3 383 382 387
3 384 383 388
3 385 384 389
3 386 385 390
3 382 391 387
3 383 387 388
3 384 388 389
3 385 389 390
3 386 390 391
3 387 391 392
3 388 387 392
3 389 388 392
3 390 389 392
3 391 390 392
3 393 394 395
3 394 393 398
3 393 395 396
3 393 396 397
3 393 397 398
3 394 398 403
3 395 394 399
3 396 395 400
3 397 396 401
3 398 397 402
3 394 403 399
3 395 399 400
3 396 400 401
3 397 401 402
3 398 402 403
3 399 403 404
3 400 399 404
3 401 400 404
3 402 401 404
3 403 402 404
3 405 406 407
3 406 405 410
3 405 407 408
3 405 408 409
3 405 409 410
3 406 410 415
3 407 406 411
3 408 407 412
3 409 408 413
3 410 409 414
3 406 415 411
3 407 411 412
3 408 412 413
3 409 413 414
3 410 414 415
3 411 415 416
3 412 411 416
3 413 412 416
3 414 413 416
3 415 414 416
3 417 418 419
3 418 417 422
3 417 419 420
3 417 420 421
3 417 421 422
3 418 422 427
3 419 418 423
3 420 419 424
3 421 420 425
3 422 421 426
3 418 427 423
3 419 423 424
3 420 424 425
3 421 425 426
3 422 426 427
3 423 427 428
3 424 423 428
3 425 424 428
3 426 425 428
3 427 426 428
3 429 430 431
3 430 429 434
3 429 431 432
3 429 432 433
3 429 433 434
3 430 434 439
3 431 430 435
3 432 431 436
3 433 432 437
3 434 433 438
3 430 439 435
3 431 435 436
3 432 436 437
3 433 437 438
3 434 438 439
3 435 439 440
3 436 435 440
3 437 436 440
3 438 437 440
3 439 438 440
3 441 442 443
3 442 441 446
3 441 443 444
3 441 444 445
3 441 445 446
3 442 446 451
3 443 442 447
3 444 443 448
3 445 444 449
3 446 445 450
3 442 451 447
3 443 447 448
3 444 448 449
3 445 449 450
3 446 450 451
3 447 451 452
3 448 447 452
3 449 448 452
3 450 449 452
3 451 450 452
3 453 454 455
3 454 453 458
3 453 455 456
3 453 456 457
3 453 457 458
3 454 458 463
3 455 454 459
3 456 455 460
3 457 456 461
3 458 457 462
3 454 463 459
3 455 459 460
3 456 460 461
3 457 461 462
3 458 462 463
3 459 463 464
3 460 459 464
3 461 460 464
3 462 461 464
3 463 462 464
3 465 466 467
3 466 465 470
3 465 467 468
3 465 468 469
3 465 469 470
3 466 470 475
3 467 466 471
3 468 467 472
3 469 468 473
3 470 469 474
3 466 475 471
3 467 471 472
3 468 472 473
3 469 473 474
3 470 474 475
3 471 475 476
3 472 471 476
3 473 472 476
3 474 473 476
3 475 474 476
3 477 478 479
3 478 477 482
3 477 479 480
3 477 480 481
3 477 481 482
3 478 482 487
3 479 478 483
3 480 479 484
3 481 480 485
3 482 481 486
3 478 487 483
3 479 483 484
3 480 484 485
3 481 485 486
3 482 486 487
3 483 487 488
3 484 483 488
3 485 484 488
3 486 485 488
3 487 486 488
3 1 7 142
3 141 2 8
3 6 12 16
3 7 10 16
3 4 0 6
3 5 11 8
3 1 4 10
3 3 9 11
3 17 23 20
3 16 12 18
3 11 17 14
3 142 7 13
3 11 9 15
3 8 14 145
3 147 20 26
3 21 27 29
3 13 19 146
3 15 21 23
3 145 14 20
3 13 16 22
3 26 29 35
3 28 24 30
3 22 28 25
3 22 18 24
3 20 23 29
3 19 25 148
3 156 44 38
3 42 39 41
3 25 31 150
3 29 27 33
3 149 26 32
3 28 34 31
3 152 189 190
3 38 41 154
3 40 37 53
3 36 40 49
3 38 44 299
3 37 152 319
3 150 31 47
3 35 43 44
3 34 30 45
3 31 34 46
3 33 42 43
3 32 44 156
3 50 160 159
3 36 48 50
3 45 50 51
3 40 46 51
3 105 104 58
3 40 52 54
3 46 54 55
3 37 47 55
3 65 64 63
3 106 56 58
3 107 105 59
3 107 57 56
3 63 62 98
3 65 61 60
3 64 67 62
3 62 67 70
3 56 66 67
3 59 58 67
3 57 65 66
3 57 59 64
3 77 76 73
3 60 62 68
3 66 71 70
3 60 69 71
3 75 91 90
3 76 78 72
3 77 75 74
3 79 74 72
3 70 79 78
3 71 77 79
3 69 68 80
3 71 69 76
3 83 87 84
3 76 82 83
3 78 83 80
3 76 69 81
3 85 84 87
3 81 80 84
3 83 82 86
3 82 81 85
3 91 89 93
3 74 90 88
3 75 73 89
3 73 72 88
3 95 93 92
3 89 88 92
3 91 95 94
3 90 94 92
3 99 103 101
3 60 96 98
3 61 63 99
3 61 97 96
3 103 102 100
3 97 101 100
3 99 98 102
3 98 96 100
3 107 110 109
3 53 55 105
3 52 106 104
3 55 54 104
3 108 112 115
3 53 109 108
3 107 106 111
3 106 52 108
3 124 117 116
3 108 109 113
3 111 115 114
3 109 110 114
3 119 123 122
3 127 126 119
3 127 118 117
3 126 125 116
3 123 120 136
3 118 122 121
3 119 116 120
3 116 117 121
3 115 112 125
3 114 127 124
3 114 115 126
3 113 129 128
3 130 128 132
3 125 130 131
3 125 112 128
3 124 131 129
3 133 135 134
3 131 135 133
3 129 133 132
3 131 130 134
3 137 138 139
3 121 137 136
3 122 123 139
3 122 138 137
3 151 156 45
3 33 150 155
3 155 152 39
3 153 154 240
3 154 152 37
3 24 149 151
3 148 150 33
3 45 156 153
3 146 148 27
3 145 147 18
3 144 146 21
3 18 147 149
3 143 145 12
3 9 142 144
3 0 141 143
3 140 142 9
3 165 164 163
3 49 51 159
3 48 157 160
3 48 49 158
3 164 161 181
3 167 166 163
3 168 161 164
3 168 167 162
3 157 158 167
3 157 169 170
3 158 159 166
3 160 165 166
3 171 175 176
3 165 160 170
3 168 165 171
3 168 172 169
3 176 180 177
3 171 170 174
3 172 176 173
3 170 169 173
3 177 180 179
3 173 177 178
3 176 175 179
3 175 174 178
3 182 183 187
3 161 162 182
3 164 184 183
3 162 163 183
3 187 188 185
3 181 185 188
3 181 182 186
3 184 188 187
3 192 196 193
3 39 190 191
3 154 41 191
3 152 154 192
3 214 213 199
3 191 190 194
3 192 191 195
3 189 193 194
3 199 203 204
3 215 197 198
3 214 200 197
3 213 216 198
3 201 204 208
3 198 197 201
3 197 200 204
3 198 202 203
3 208 207 211
3 202 206 207
3 204 203 207
3 201 205 206
3 212 211 210
3 205 209 210
3 208 212 209
3 206 210 211
3 195 194 216
3 196 214 215
3 194 193 215
3 195 217 218
3 217 220 224
3 214 196 218
3 213 220 217
3 213 214 219
3 223 227 228
3 218 217 221
3 219 223 224
3 218 222 223
3 226 230 231
3 222 226 227
3 221 224 228
3 222 221 225
3 229 232 236
3 225 228 232
3 226 225 229
3 227 231 232
3 233 236 235
3 230 229 233
3 231 235 236
3 230 234 235
3 239 238 242
3 36 153 237
3 40 239 240
3 36 238 239
3 262 261 247
3 239 243 244
3 238 237 241
3 240 244 241
3 248 252 249
3 263 245 246
3 262 248 245
3 264 246 247
3 251 255 256
3 247 246 250
3 248 247 251
3 245 249 250
3 256 260 257
3 250 249 253
3 252 256 253
3 251 250 254
3 257 260 356
3 255 254 258
3 256 255 259
3 254 253 257
3 242 264 261
3 244 262 263
3 264 242 266
3 261 262 283
3 267 266 270
3 264 267 268
3 242 241 265
3 263 268 265
3 272 276 273
3 268 272 269
3 266 265 269
3 267 271 272
3 275 279 280
3 270 269 273
3 271 275 276
3 271 270 274
3 277 280 279
3 275 274 278
3 276 280 277
3 274 273 277
3 282 284 288
3 243 282 281
3 244 281 283
3 243 261 284
3 287 291 292
3 282 286 285
3 284 283 287
3 281 285 287
3 292 296 294
3 287 285 289
3 288 292 290
3 285 286 290
3 293 294 296
3 290 294 293
3 292 291 295
3 291 289 293
3 297 301 304
3 43 300 299
3 41 38 298
3 41 297 300
3 301 305 308
3 298 302 301
3 299 300 304
3 298 299 303
3 305 309 312
3 302 306 305
3 303 304 308
3 302 303 307
3 312 316 315
3 306 310 309
3 308 312 311
3 306 307 311
3 316 313 314
3 310 311 315
3 309 313 316
3 309 310 314
3 318 322 324
3 152 155 320
3 37 317 318
3 47 318 320
3 329 326 328
3 317 321 322
3 319 320 324
3 317 319 323
3 328 348 347
3 331 325 326
3 332 330 328
3 331 332 327
3 321 323 332
3 323 324 330
3 321 333 334
3 322 329 330
3 336 340 337
3 331 329 335
3 331 336 333
3 329 322 334
3 340 339 343
3 334 333 337
3 335 339 340
3 335 334 338
3 341 344 343
3 339 338 342
3 337 340 344
3 337 341 342
3 346 345 349
3 327 347 345
3 328 326 346
3 326 325 345
3 352 350 349
3 348 352 351
3 345 347 351
3 346 350 352
3 354 353 356
3 258 354 355
3 260 259 355
3 257 353 354
