ply
format ascii 1.0
comment Created in Blender version 4.0.2
element vertex 489
property float x
property float y
property float z
property float nx
property float ny
property float nz
element face 924
property list uchar uint vertex_indices
end_header
-0.13134567 -3.222129 0.30590934 -1.0026084 0.42767516 1.7815076
-0.12775703 -3.2394876 -0.38203397 -1.0530498 0.004562458 -1.8035977
0.5568165 -3.2219188 0.30949375 1.0733172 0.840919 1.5820065
0.5604052 -3.2392771 -0.3784495 1.218385 0.4382358 -1.6387149
-0.2985655 -3.2308602 -0.038942736 -2.0876133 0.04853091 0.03761424
0.727625 -3.2305465 -0.033597566 1.9223232 0.81554985 0.038088687
-0.14917144 -2.7535632 0.1889936 -1.1437137 0.5649484 1.6536779
-0.16946198 -2.7339597 -0.35565174 -1.2182416 0.54507905 -1.6064482
0.39582545 -2.7516723 0.16875803 1.0254616 0.44463986 1.7642628
0.3755349 -2.7320688 -0.37588736 0.84655833 0.39260867 -1.8684477
-0.29316914 -2.744226 -0.078359246 -2.0040853 0.58715093 0.028186388
0.5195327 -2.741406 -0.108534634 2.0500844 0.36758593 -0.15470539
0.1395888 -2.298476 0.14675651 -0.68407726 0.48539692 1.9126755
0.1075161 -2.2571588 -0.1967646 -1.1754795 0.46788958 -1.6616937
0.48556355 -2.2907314 0.11538613 1.300166 0.21497004 1.6202639
0.4534907 -2.2494144 -0.228135 1.0895164 0.1603761 -1.7745795
0.03858026 -2.2797196 -0.01729941 -1.9421288 0.69758266 0.3215789
0.5544992 -2.2681708 -0.06407907 2.0821147 0.11925601 -0.1116911
0.1233766 -1.841948 0.052229382 -0.8343736 -0.25391906 1.8976947
0.08784326 -1.8106886 -0.23688617 -1.1441199 -0.05063702 -1.7465178
0.41372034 -1.821813 0.01872204 1.3637259 0.40203655 1.5298748
0.37818697 -1.7905539 -0.27039358 0.87535554 0.44582587 -1.8430655
0.03430089 -1.8312639 -0.08409894 -2.0336645 -0.46980178 0.07344686
0.46726272 -1.8012381 -0.13406526 1.9733962 0.6208863 -0.28654373
0.012257915 -1.5942261 0.12764533 -0.8246226 -0.8086138 1.7401265
-0.026641445 -1.5564388 -0.15260115 -1.363463 0.03640379 -1.5816264
0.29396552 -1.5644048 0.092564106 1.2909437 -0.069975734 1.6402643
0.25506616 -1.5266174 -0.18768239 0.7008992 0.8257593 -1.7857105
-0.07637971 -1.5826567 -0.0038619111 -1.9692334 -0.6771066 0.15983117
0.34370387 -1.5381869 -0.05617521 1.9372993 0.7616247 -0.16940692
-0.07006537 -1.2551296 0.22222891 -0.981591 0.02459491 1.8433049
-0.09450443 -1.2116461 -0.05882459 -1.4294589 0.23825008 -1.5039227
0.21326616 -1.2758073 0.19439249 1.0642743 -0.045964126 1.7964147
0.18882708 -1.2323238 -0.08666097 0.854898 0.23156472 -1.8914087
-0.15187165 -1.2283093 0.08853876 -2.057888 0.1824982 0.3060901
0.27063346 -1.259144 0.04702905 2.0853288 0.11179974 -0.028325723
-0.028862897 -0.5826265 0.12317232 0.6720041 0.3348279 1.9488972
-0.034400534 -0.5513658 -0.13690086 -0.35076362 1.8620342 -0.87846047
0.2087651 -0.6482407 0.091174185 0.15388729 1.4073218 1.5354682
0.19954805 -0.64292234 -0.15525775 0.54378545 -0.7260335 -1.881242
-0.08231113 -0.5349852 0.0019258168 -0.6161562 1.9637971 0.35461506
0.2496389 -0.6708776 -0.03599837 1.6904937 0.8262388 -0.9063443
0.2376607 -0.98667014 -0.10693581 1.0081137 -0.17336178 -1.8208655
0.31176725 -1.011642 0.008320061 1.9713622 -0.4646119 -0.5096722
0.26674554 -1.0206442 0.13321437 1.1578227 -0.121569686 1.7339453
0.017524501 -0.98413104 0.14141306 -0.6733457 0.16236767 1.970315
-0.04157366 -0.94900495 0.027386665 -2.0681496 -0.29095736 -6.9632674e-06
0.0040962216 -0.94558525 -0.08812058 -1.263332 -0.7527041 -1.4830134
-0.28857338 -0.31979933 0.5500542 1.8613448 0.6834927 0.6558442
-0.31163362 -0.30442515 0.48208046 -0.20572768 1.7283932 -1.1542238
-0.31777015 -0.41966018 0.56721765 0.12990795 -1.4915916 1.4560832
-0.3452397 -0.40447915 0.49144256 -1.958671 -0.5151502 -0.5100265
-0.44295335 -0.25619748 -0.06502503 0.43904957 0.9623512 1.8008373
-0.42347512 -0.25286183 -0.13339224 1.5917637 0.5461587 -1.2368904
-0.4867083 -0.35128245 -0.06644714 -1.3547649 -0.93956214 1.282082
-0.46439716 -0.3458221 -0.13152972 -0.681611 -1.0545305 -1.668913
-0.7957758 0.0015725176 -0.22426346 0.35357115 1.2398012 1.6431005
-0.77923304 0.008439742 -0.29313865 1.3325261 1.039961 -1.2266841
-0.84600955 -0.0803643 -0.23324792 -1.4710563 -1.1150292 0.9770371
-0.8277542 -0.06956415 -0.29892474 -0.45100725 -1.1655948 -1.6732844
-1.0143907 0.1901794 -0.3080739 0.23452835 2.0750659 -0.031586397
-0.99807805 0.19600232 -0.35299683 1.5699623 1.0714564 -0.8655053
-1.0432562 0.13493201 -0.31492448 -1.8226175 -1.002934 -0.1846308
-1.0316573 0.14663492 -0.35630974 -0.5731602 -1.1522287 -1.644918
-0.9653439 0.0766992 -0.33804336 -0.6100243 -1.0831563 -1.6782556
-0.9263722 0.13500005 -0.33269683 1.2426279 1.1342461 -1.2374412
-0.93889815 0.1341183 -0.2781923 1.1812761 1.0585595 1.3586528
-0.97232276 0.06912055 -0.28807962 -1.242174 -1.3678888 0.97354186
-1.1727368 0.32067674 -0.13880454 -1.9468724 -0.69684243 -0.29325497
-1.163873 0.35499963 -0.13445625 -0.5179517 1.2629018 -1.5807292
-1.127816 0.2939243 -0.117507085 -0.28415015 -1.214457 1.6751872
-1.1168017 0.33433768 -0.114345565 1.734207 0.6246065 -0.9819834
-1.0366374 0.47580782 -0.0011807645 -0.97710353 -0.33818203 1.8146076
-1.038436 0.49855357 0.0039254753 2.0481303 -0.22953422 0.33819404
-1.0042968 0.46734968 0.015677132 0.28588527 2.062196 0.1658804
-1.0070249 0.49413934 0.021261917 0.6112617 0.14907554 -1.9914907
-1.1502383 0.37207568 -0.11748802 0.15703608 2.0007794 -0.57803166
-1.1036304 0.35263568 -0.09907382 1.4416102 0.20264818 -1.4975288
-1.1585046 0.33905968 -0.121416844 -0.21345201 -0.9964895 1.8230046
-1.113907 0.3137689 -0.101829 1.0595154 -1.4962881 1.0002238
-1.2757401 0.38607177 0.011420563 -1.3707026 -1.564535 -0.18789156
-1.2696055 0.40168846 0.011418793 -1.2085788 1.171587 -1.2363738
-1.2612154 0.40942693 0.017635666 1.2255856 1.6517861 0.36254963
-1.266978 0.39439884 0.017736865 1.1503092 -1.1573982 1.3035021
-1.3696963 0.45556504 0.16541734 -1.7177414 -0.8730704 0.80561304
-1.3658645 0.46240577 0.16401345 -1.5457551 1.4043907 -0.015058563
-1.3609048 0.46565515 0.16572118 0.5766206 1.7124491 1.0473424
-1.3645178 0.459066 0.16710562 0.17241973 -0.2993912 2.0597417
-0.94679254 0.57702416 0.013986868 -0.7509664 -0.19572249 1.9389795
-0.95411915 0.592918 0.018257136 1.0639563 -1.6219416 0.77408093
-0.9233792 0.57714653 0.030835718 -2.044638 0.21946539 -0.36495155
-0.93239826 0.5957541 0.0354585 0.7409036 0.5470893 -1.8744743
-0.9779846 0.6962978 0.057307027 -1.2438986 -0.8074371 1.4705987
-0.9816744 0.70359516 0.057990428 -1.4997427 1.4051105 -0.3719346
-0.96780604 0.6979047 0.065459594 1.4078392 0.29194823 1.5148115
-0.97231627 0.7064149 0.066079244 0.10924641 1.8387132 0.9844278
-1.0892237 0.28515935 -0.42772555 -0.0057125967 1.6658556 1.2596792
-1.0831971 0.2860073 -0.44385874 1.3916004 1.1121521 -1.0901675
-1.0995871 0.26526314 -0.42878836 -1.7765187 -0.7402734 0.8110954
-1.0952569 0.26830977 -0.44383705 0.27091742 -1.3743964 -1.5490439
-1.324343 0.35187358 -0.5614966 -1.0215027 1.6627195 0.7441743
-1.3207004 0.35209092 -0.5714929 -0.022498561 1.3461155 -1.5966736
-1.3309394 0.33968753 -0.5617955 -1.8659425 -0.76385576 0.544685
-1.328316 0.3412944 -0.5711478 -1.1713055 -0.6157899 -1.6157802
-0.5713828 -0.28743678 -0.10575616 -1.3576066 -1.1417569 1.1023582
-0.5500275 -0.28071794 -0.17097877 -0.25591046 -1.3010226 -1.6136136
-0.5345821 -0.20878036 -0.10141084 -0.48458666 0.9298846 1.8062085
-0.5164721 -0.20426613 -0.17000759 0.05741779 -0.16690448 -2.0810442
-0.46885806 0.13117671 -0.32856262 1.0624466 0.3803432 1.7573973
-0.4606237 0.13379684 -0.36497527 1.3809977 -0.7898424 -1.353105
-0.51448566 0.1480491 -0.38261542 -1.1583529 0.058852937 -1.7368518
-0.52188337 0.14497508 -0.3460997 -1.8661934 0.61016035 0.7119866
-0.3816495 0.27170435 -0.30778345 0.5779047 -0.49973783 1.9437561
-0.37441856 0.26888788 -0.34439385 1.3004265 -1.2948157 -0.99711716
-0.43015295 0.2823794 -0.36287758 -1.0814784 0.20412299 -1.7750036
-0.43654653 0.28472188 -0.32611892 -1.4611439 0.82887596 1.2409364
-0.3345624 0.438531 -0.38194978 1.293967 0.41141918 1.5869098
-0.3278179 0.4314195 -0.4180676 1.7424877 -0.46663 -1.0525649
-0.38106385 0.44581422 -0.43738267 -0.9713377 -0.22580044 -1.8350523
-0.38700846 0.4524353 -0.40107313 -1.7298495 0.64169073 0.97864825
-0.34569383 0.5577394 -0.41219267 0.97886574 0.7445236 1.6880182
-0.3420004 0.5525667 -0.43192688 1.8475881 -0.26780838 -0.936267
-0.3713854 0.56027687 -0.44311985 -1.3259115 -0.30611184 -1.5843464
-0.37463945 0.5651792 -0.42326295 -1.606235 0.83678156 1.0400506
-0.36327797 0.3184452 -0.36727273 1.0463367 -0.6127713 -1.7004678
-0.37045458 0.32256857 -0.33083054 -0.37835455 1.2460061 1.6328549
-0.42158705 0.33536783 -0.34875363 -1.6155736 0.907935 0.96305484
-0.41532898 0.33173355 -0.38537666 -1.2112514 -0.39175957 -1.6556857
-0.15610346 0.43077472 -0.29237524 0.67762595 -1.0099452 1.6978613
-0.1537536 0.43350855 -0.3097244 1.1889805 -1.3057102 -1.1150539
-0.15172377 0.4568299 -0.29777434 -0.88612735 1.3378013 1.3367741
-0.14938869 0.45894226 -0.3151863 -0.5658467 1.1157949 -1.6723394
-0.056574892 0.51178986 -0.30042273 1.4228575 -1.0023148 1.1544441
-0.055760868 0.51541 -0.30919585 1.4197723 -0.67845345 -1.3732616
-0.053566344 0.52596587 -0.30006433 0.9732807 1.2185258 1.389179
-0.05278193 0.52927095 -0.30894905 0.9554651 1.6599017 -0.8328935
-0.33301464 0.642134 -0.48027158 1.2354432 1.4745673 0.813161
-0.33112153 0.6384919 -0.49054557 1.6215743 0.33289418 -1.2734118
-0.34670147 0.6425002 -0.49684578 -0.5515709 0.74102 -1.8731146
-0.34836373 0.6459975 -0.48649472 -1.0000237 1.8274033 0.14982946
0.22270909 -3.2393804 -0.3802085 -0.0036525016 0.038934734 -2.0881498
0.21912046 -3.222022 0.30773476 0.0034201937 0.5713318 2.0088472
0.1080931 -2.7329967 -0.3659573 -0.07456417 0.3798028 -2.0523374
0.12838367 -2.7526002 0.1786881 0.07244615 0.35315308 2.0571663
0.2837135 -2.2532148 -0.21274084 -0.18474033 0.2307268 -2.0674949
0.3157862 -2.2945318 0.13078025 0.17294249 0.30839628 2.0583687
0.23570903 -1.8004344 -0.25395074 -0.2497796 0.1558314 -2.067662
0.27124238 -1.831694 0.035164807 0.24311393 -0.012366573 2.0742812
0.11682614 -1.5412513 -0.17046727 -0.29265967 0.54640174 -1.9944158
0.15572551 -1.5790386 0.10977925 0.2908968 -0.52395946 2.0006862
0.04979016 -1.2221768 -0.073001064 -0.19674435 0.20421861 -2.069175
0.07422925 -1.2656603 0.20805246 0.20947722 -0.020499324 2.077883
0.09880453 -0.56824595 -0.1479508 0.19920707 1.8039889 -1.0333635
0.09523153 -0.6247851 0.10967281 0.84419227 0.23265168 1.8960781
0.11920386 -0.56488377 -0.01770224 0.7934044 1.9065592 0.31215405
0.12350891 -0.96588445 -0.09757134 0.0058262506 -0.52846247 -2.0205426
0.13716379 -1.0023389 0.13528956 0.14196911 0.3488227 2.05428
-0.42129743 -0.1294075 0.7282002 1.9377462 0.58644944 -0.5129482
-0.4366818 -0.14965391 0.6591036 -0.43119794 1.1699761 -1.6754472
-0.46638292 -0.2370164 0.71119535 -1.8687698 -0.9233552 -0.13043596
-0.4494232 -0.213427 0.78537405 -0.15023471 -1.4679472 1.4779918
-0.5169149 0.058097553 0.80072075 1.8579636 0.9300864 -0.21168245
-0.5231531 0.03422277 0.76588625 -0.4246353 0.7868897 -1.8874292
-0.5364629 -0.0067536323 0.8099425 -1.962517 -0.7144396 0.0016920528
-0.5286441 0.020879194 0.8480249 0.5300795 -0.7013771 1.8944618
-0.47091895 -0.14572053 0.8049037 -1.4799094 -0.45500606 1.4016905
-0.4866253 -0.17049989 0.73975754 -2.0113251 -0.52053607 -0.21333632
-0.46161905 -0.09659924 0.68994045 -0.20671605 0.9925716 -1.8259159
-0.44728994 -0.075015366 0.7508061 1.3548934 1.5248543 -0.4483097
-0.3087911 -0.0075614066 0.8889694 1.582831 0.12872738 -1.3564565
-0.32952487 -0.07163267 0.93376154 0.47725677 -1.8487415 0.84633344
-0.34689978 -0.019738756 0.9478395 -1.6507701 0.29001236 1.2460939
-0.32946244 0.034104962 0.90555656 -0.50175184 1.949291 -0.5571436
-0.1625096 0.050492417 1.054412 1.6765465 -0.51660347 -1.1332307
-0.18676773 0.0010090389 1.1136082 0.24435236 -1.6743609 1.2242166
-0.19123617 0.057060093 1.1192033 -1.4580626 0.5475099 1.3914686
-0.17165631 0.097860694 1.0649534 -0.31414315 1.7995402 -1.0123577
-0.07338215 0.15099525 1.1393656 1.9232416 -0.5029948 -0.6403416
-0.08733786 0.13176438 1.1790369 0.75600314 -0.75764585 1.7934134
-0.08157248 0.16350184 1.1772165 0.46529076 1.2189833 1.6307923
-0.07084966 0.17903449 1.1415039 1.0180784 1.7863101 -0.366759
-0.57435834 0.20828971 0.9089357 1.7961239 0.68044645 0.82026285
-0.57898444 0.19309177 0.8693129 0.5251464 0.8263002 -1.8448167
-0.61719984 0.15577067 0.9000363 -1.9217736 -0.7432296 -0.34102103
-0.61070704 0.17338966 0.94388145 -0.44148389 -0.5031935 1.9783294
-0.6525854 0.37154508 0.89928967 0.6852591 1.7985681 0.81084585
-0.6520167 0.36796102 0.8795121 0.51790404 1.4378039 -1.4235148
-0.67825997 0.35738415 0.88598436 -1.697407 0.5561691 -1.0823053
-0.6781765 0.36143947 0.9080816 -1.3787812 0.9162337 1.2733331
0.44613603 -0.2074808 -0.34608725 -1.278742 0.6160844 -1.5320439
0.4962145 -0.25998294 -0.34327808 0.5823383 -0.9899745 -1.7443427
0.5353395 -0.26900315 -0.27136436 1.7102038 -0.84376854 0.85156125
0.46251553 -0.18858828 -0.2736029 -0.90748847 1.2718294 1.3859341
0.5926542 -0.008388359 -0.37079418 -1.2264295 0.82856816 -1.4735144
0.64262784 -0.060989134 -0.3679664 0.7226311 -0.9338448 -1.7226833
0.66608894 -0.07027511 -0.30251944 0.8463103 -1.5459559 1.1205702
0.614714 0.02530072 -0.30169404 -1.1817595 1.2653594 1.167994
0.7429703 0.11679751 -0.3976363 -1.3615743 0.94912463 -1.2677448
0.7828476 0.056254145 -0.39358038 0.27736306 -1.2932392 -1.6163231
0.8203702 0.04226901 -0.32160676 1.3794044 -1.0008115 1.2072777
0.7631263 0.1343594 -0.32577178 -0.45570028 1.4858321 1.3951843
0.8567609 0.19476166 -0.48239353 -1.5101671 0.5818832 -1.3201159
0.9038205 0.1394823 -0.48371124 0.12614608 -1.3611436 -1.5790106
0.9437727 0.12415012 -0.41333735 1.5934042 -1.0838115 0.80517995
0.8756057 0.20848379 -0.4093471 -0.3056683 1.5598645 1.3547285
0.9532628 0.30619344 -0.55327606 -1.4777253 0.5400021 -1.3735445
1.0068123 0.26819882 -0.5606845 0.5412679 -0.86356753 -1.822959
1.0475749 0.25617993 -0.49894515 1.8840349 -0.694598 0.5743219
0.9691434 0.3147342 -0.48586982 -0.6652665 1.2547193 1.5313389
1.044124 0.46526474 -0.5734977 -0.73901534 1.5469332 -1.1927922
1.0733678 0.4502289 -0.57825416 1.017796 0.6969605 -1.6853
1.0948821 0.44569594 -0.54764426 1.9540075 0.62354535 0.3936306
1.0518638 0.46911457 -0.53949356 -0.21500364 1.7939571 1.0475638
0.73042774 -0.039681513 -0.30327356 1.0462414 -1.0907972 -1.4413326
0.68608236 0.058896195 -0.30220386 -0.60194045 1.5521716 1.2610829
0.6520691 0.041093647 -0.38140392 -0.9921819 1.0380921 -1.5165218
0.69805205 -0.014646899 -0.37809077 0.5141453 -1.0694433 -1.7186753
0.88617414 -0.1287294 -0.20387098 -0.65200543 -1.9794352 -0.13647163
0.8647712 -0.022629209 -0.21157932 -1.2020154 1.0720848 1.3295457
0.9428076 -0.011133148 -0.21085225 1.4311814 1.2277306 -0.89794
0.9566214 -0.11809454 -0.20352875 1.5772731 -1.2667103 -0.5191853
0.8640567 -0.04584462 -0.038540874 -1.2903069 -1.5471892 0.5506472
0.85369045 0.023089273 -0.055409387 -1.6481357 1.1319443 -0.6035316
0.9054414 0.026708048 -0.060611323 1.3367902 1.5851092 -0.2496391
0.9107649 -0.042448677 -0.043471742 1.5449897 -1.11131 0.86017174
0.85169905 -0.007918033 0.04455367 -1.2879868 -1.2477965 1.0705107
0.8444667 0.05572309 0.012283132 -1.734703 0.998773 -0.59595114
0.89523554 0.052561853 0.00084495026 1.4218283 1.3195041 -0.7740879
0.8975006 -0.010701636 0.03397075 1.4024248 -1.1993642 0.9780742
0.88213456 0.1345416 0.14647129 -1.1641932 -0.56130505 1.640576
0.8782836 0.1625968 0.118199416 -1.6358938 1.1078442 -0.6770762
0.90468514 0.15465833 0.10891937 1.3920896 0.8352861 -1.3138808
0.9059297 0.12736844 0.13794948 1.5293356 -0.88368094 1.1145133
0.9291133 0.27607337 0.20305842 -0.48953956 0.69280076 1.9084752
0.9274525 0.28541276 0.19129798 -0.7307563 1.9564371 0.015754811
0.9370671 0.28156614 0.18763714 1.4278715 1.344336 -0.718222
0.937775 0.27259293 0.19970067 1.6664885 0.06442887 1.2572045
0.10858938 -0.18379644 0.33934247 1.1445342 -0.644572 1.6237203
0.036848474 -0.15009685 0.34441286 -1.1618164 -0.3151372 1.706684
0.0074336 -0.12577914 0.26859438 -1.7999903 0.58395255 -0.88370436
0.12634166 -0.15736225 0.25937593 1.7296385 0.28768983 -1.134674
0.13316359 -0.01793599 0.3566255 1.305316 -1.1971478 1.1067455
0.06200625 0.004925535 0.3747267 -1.5217289 -0.053288803 1.4294757
0.03650543 0.026281556 0.2854227 -2.0354505 -0.10330044 -0.45625582
0.15829653 0.012945745 0.27567017 1.4759921 -0.7306727 -1.2843144
0.28255695 0.1773614 0.45676538 1.2868941 -1.2291778 1.093126
0.2313595 0.18688758 0.47200567 -0.8062531 -0.36123773 1.8924489
0.21263921 0.21342951 0.4218481 -1.5420396 1.2982277 -0.546459
0.29713678 0.204565 0.40462208 1.4505653 -0.1707663 -1.4928491
0.32426208 0.27317148 0.4930684 1.3599375 -0.7111517 1.4165919
0.27228364 0.29307956 0.49836344 -1.0228562 -0.18664321 1.811306
0.25229368 0.31771734 0.44772643 -1.64206 0.7773574 -1.0301715
0.337396 0.3016322 0.44121274 1.6795216 0.17556274 -1.2289362
0.32239556 0.40069985 0.5167153 1.2370803 -0.49616152 1.607904
0.28452972 0.41677955 0.5209689 -1.1841671 -0.016707685 1.7202814
0.27007687 0.43554056 0.48364738 -1.6964147 0.84743565 -0.87517405
0.33252093 0.4214166 0.47828132 1.4720807 0.13690427 -1.4751726
0.39786273 0.5860581 0.5552676 1.8005303 1.0190154 0.28565297
0.37666896 0.60119045 0.55911845 0.72781724 1.5358921 1.2137614
0.3687975 0.6146103 0.535677 0.42397097 1.993175 -0.45760384
0.40547523 0.5973742 0.5302097 0.13827978 1.9198768 -0.8104637
0.10091264 0.10425029 0.33523706 -1.1167448 1.5840691 0.77814215
0.20854396 0.09318528 0.3248116 1.7093244 0.22665429 -1.1784469
0.1955287 0.060614485 0.38006276 1.6832267 -1.1506556 0.45236897
0.13295831 0.07989833 0.3982386 -1.366886 1.4404266 0.64706475
0.15630731 0.11156181 0.5947416 0.5666379 -1.7040596 1.0663028
0.124162085 0.12961413 0.60609 -1.8842028 -0.26622686 0.8606982
0.16220595 0.16455573 0.59376633 -0.6709073 1.6952584 -1.0187644
0.19019948 0.14862536 0.58261466 2.0152035 0.30667806 -0.45475554
0.18644494 0.18534555 0.67756104 0.7038774 -1.6565248 1.0594251
0.15579689 0.20588328 0.68882525 -2.0207376 -0.087430365 0.520456
0.19319935 0.23740064 0.6681408 -0.37608635 1.803496 -0.9837989
0.21977012 0.21912001 0.65711313 1.9042162 0.3792554 -0.76943123
0.19824138 0.23831299 0.77591366 0.5478808 -1.7368789 1.0222411
0.17390026 0.25275704 0.7846496 -1.9067891 -0.23158222 0.8200147
0.203033 0.2788935 0.7731963 -0.48930785 1.876081 -0.77639985
0.22420272 0.2661093 0.76462275 2.036847 0.4068427 -0.21824807
0.21305633 0.28936532 0.83553773 0.771697 -1.1095096 1.5922848
0.20119636 0.29628828 0.83977485 -1.2430798 0.40673038 1.6282575
0.21534553 0.3090752 0.83450687 0.090214066 1.877696 0.9099553
0.22566444 0.30295274 0.830347 1.8643147 0.7638514 0.55023754
0.05285376 0.10699736 0.17086188 0.8199194 -1.2050267 -1.4958415
-0.02024516 0.11486916 0.17634057 -1.7650317 -1.0713321 0.31434092
0.08275774 0.15538482 0.20016216 1.3469125 1.5068123 -0.5265383
0.018153679 0.16191597 0.20609038 -0.823287 1.5870602 1.0795077
0.0024054581 0.13415255 0.11062019 0.3278907 -1.7625371 -1.0713775
-0.05916219 0.15363091 0.11497551 -2.0495546 -0.37992275 -0.12993938
0.03700618 0.17428601 0.12925677 1.843997 0.96056885 -0.19718254
-0.0174385 0.19127896 0.13410547 -0.75373226 1.7398871 0.8755452
0.03475301 0.20153253 0.00076555414 0.6422664 -1.648499 -1.1098847
-0.0018450042 0.21692683 -0.0019679335 -1.9078914 -0.27655357 -0.80334765
0.05826072 0.2267215 0.0031990376 2.0556877 0.3525406 -0.10845617
0.025888609 0.2404217 0.0014054037 -0.2122377 1.8069818 1.0255103
0.004169197 0.29790428 -0.09982703 0.3191485 -1.0670465 -1.766764
-0.013870367 0.30405414 -0.10150799 -1.8184031 0.25380632 -0.9954351
0.014736775 0.31069168 -0.1005618 1.4640728 1.0969293 -1.0075395
-0.001214972 0.31620955 -0.10175622 -0.43466786 1.8612047 -0.84195036
0.45791337 -0.55908686 0.020291954 0.36798978 1.2930769 -1.5982599
0.42653447 -0.5502616 0.11874189 -1.3288243 1.4939407 0.60354453
0.44644037 -0.6857495 0.14614178 0.51608646 -1.0216477 1.7469372
0.48449954 -0.6674086 0.032960806 1.5473161 -0.65781 -1.2389503
0.5895593 -0.4560082 0.1974797 0.5194132 1.4788396 -1.3802688
0.55821353 -0.44653317 0.29587978 -1.7352853 0.9740725 0.6339301
0.57892376 -0.5816676 0.32440406 -0.07545324 -1.3936536 1.5536844
0.6167805 -0.56406367 0.21103828 1.793967 -0.8796343 -0.60813236
0.6470268 -0.37053022 0.29640812 -0.2582855 1.2180765 -1.6767459
0.6279595 -0.35237014 0.36636347 -1.5427563 1.0994436 0.8792188
0.6724892 -0.43344623 0.40606144 0.39945373 -0.77328897 1.8985152
0.6895306 -0.43495128 0.32068437 1.8605964 -0.7212398 -0.6163547
0.76540303 -0.23638579 0.32749248 -0.40560484 0.8408758 -1.8682375
0.7508718 -0.22867471 0.3634706 -1.3316869 1.4592595 0.67754763
0.7754161 -0.27032283 0.38585794 0.70540786 -0.46574754 1.9098109
0.78903615 -0.26908123 0.34184918 1.4864403 -1.0434452 -1.0313178
0.94935876 -0.0865886 0.3648284 0.9321879 1.5142279 -1.0954626
0.937309 -0.084430575 0.38465112 -0.07565152 1.8791169 0.9083477
0.945905 -0.11270451 0.39518845 1.0299838 -0.2543101 1.7989882
0.95898765 -0.10885285 0.3717236 2.0112653 -0.3084207 -0.47073242
-0.0041103344 -0.49489576 -0.47614786 -1.1191598 1.5975496 0.74646896
-0.063391075 -0.613427 -0.52002203 -1.6876149 -0.6234737 -1.0607238
0.08620594 -0.5243526 -0.45821208 1.9688824 0.66014564 0.22273049
0.031984247 -0.64901745 -0.50186163 0.9833512 -1.3462276 -1.2580107
0.03831579 -0.3110983 -0.6458652 -0.840253 0.9168573 1.6778698
0.010524213 -0.35675287 -0.6978828 -1.6067021 -0.6248741 -1.178957
0.08357291 -0.33395663 -0.6342718 1.706987 0.53618085 1.0773135
0.057715937 -0.38398293 -0.6857275 1.0308137 -1.1290447 -1.4228776
0.12553123 -0.164066 -0.76186067 -0.8493375 1.6930965 0.879744
0.1104325 -0.1888828 -0.7914241 -1.6554542 0.17952976 -1.260611
0.15207055 -0.1745383 -0.75872386 1.529978 0.39631316 1.3652844
0.13852705 -0.20100947 -0.7889375 0.9399115 -1.6002039 -0.9580256
0.04111215 -0.3064343 -0.72478545 -0.4368179 -0.38449192 -2.0058053
0.08183537 -0.3293561 -0.716572 1.1419823 -1.2036916 -1.2684249
0.065039985 -0.2671593 -0.67929196 0.4362337 1.5698493 1.306588
0.10404021 -0.28635868 -0.67145944 1.6539596 0.24661307 1.2511985
-0.06399773 -0.07854373 -0.70503926 -0.73251307 0.47728816 1.896713
-0.06751339 -0.11229628 -0.7339649 -1.5497419 -1.32777 -0.4441016
-0.04642012 -0.0833712 -0.74868125 1.3306426 0.098973855 -1.6067027
-0.043537058 -0.054260723 -0.7233815 1.0986414 1.6935693 0.53545284
-0.14389616 -0.04943828 -0.77844334 -1.1497432 0.2549722 1.7248125
-0.14080739 -0.086194985 -0.8034968 -0.7173912 -1.8889798 -0.5282086
-0.118535295 -0.05779548 -0.81748044 0.98380965 -0.13464403 -1.8373591
-0.12140948 -0.026064876 -0.7955545 0.7072297 1.9623682 -0.10409556
-0.20040816 -0.01984104 -0.8097817 -1.7143679 0.6651536 0.9901578
-0.20169222 -0.039476946 -0.8259631 -1.7181183 -0.9474883 -0.7157058
-0.18951106 -0.023012776 -0.8343052 -0.47602597 0.55013746 -1.9577147
-0.18849543 -0.006073714 -0.82015115 -0.44523486 2.018691 -0.29757643
0.19725852 -0.10789394 -0.85632825 -0.7037154 1.8201632 0.74410325
0.1830768 -0.13265686 -0.8863871 -1.6556573 -0.31303126 -1.2339815
0.22155908 -0.12128957 -0.8489879 1.7285832 0.25795084 1.1433989
0.20877546 -0.14792512 -0.87938744 0.90115005 -1.7434703 -0.71424013
0.22954589 -0.0546137 -0.93367034 -0.06008184 2.060429 -0.33603716
0.21837994 -0.0754688 -0.95918846 -0.7165331 0.5153841 -1.8928441
0.24758875 -0.067659095 -0.92445326 1.8762566 0.89123094 0.2174127
0.2374284 -0.090221524 -0.950032 1.2386612 -0.81935716 -1.4684248
0.11668218 -0.08831328 0.35598254 -0.2076184 1.9924563 -0.5906873
0.095988765 -0.07251944 0.3598999 1.472871 1.0410386 -1.0529903
0.08813979 -0.05925897 0.3363603 1.7669319 0.11589767 1.1074377
0.124224246 -0.07762499 0.3306292 -0.75461805 1.1815909 1.5479966
-0.027350003 0.17465863 0.82779133 -0.51004744 -1.9257088 0.6272129
-0.25561127 0.37996164 0.66014415 -1.9430565 -0.6368491 -0.42526898
0.021521421 0.25113463 0.48997337 -0.20323963 -1.4456105 -1.4935873
0.2931848 0.25095335 0.71033245 1.5022327 -1.44674 -0.11017977
0.18394125 0.37967077 1.0166931 0.8164243 -0.63866556 1.8131344
-0.15523118 0.4594007 0.9856722 -1.3128722 -0.13813144 1.6183897
-0.07615065 0.5831407 0.43907157 -0.8164237 0.63866735 -1.8131342
0.2630218 0.5034107 0.4700925 1.3128718 0.13813293 -1.61839
0.36340192 0.5828503 0.79562044 1.9430559 0.6368518 0.42526788
0.086269185 0.711677 0.9657913 0.20323889 1.4456122 1.4935857
-0.18539424 0.71185786 0.74543214 -1.5022323 1.4467404 0.11017889
0.13514039 0.78815216 0.62797356 0.51004606 1.925709 -0.6272134
0.38548517 0.9338575 0.61868054 -0.08168823 -1.9998941 -0.5963635
0.7655613 0.67476916 0.5864876 -1.8917774 -0.76601195 -0.44306064
0.45534095 0.58897954 0.9166737 -0.41437498 -0.35744143 -2.0155466
0.035474267 0.65899724 0.7393815 1.5852048 -0.6908979 -1.1711897
0.08621311 0.78806126 0.29961878 1.34358 -1.3055592 0.92315066
0.53742975 0.7978075 0.20512998 -0.8053062 -1.3519795 1.373147
0.6504524 0.2397815 0.68729407 -1.34358 1.3055595 -0.9231504
0.1992358 0.23003525 0.78178304 0.8053058 1.3519797 -1.373147
-0.02889573 0.35307357 0.40042505 1.8917773 0.7660128 0.44306123
0.28132454 0.43886343 0.070238836 0.41437408 0.35744128 2.0155468
0.70119125 0.36884597 0.24753164 -1.5852052 0.69089764 1.1711892
0.35118046 0.09398575 0.36823246 0.081687294 1.9998941 0.59636384
-0.84696823 0.70252895 1.0361825 0.90824 -1.0009785 -1.5921812
-0.39831787 0.6560986 1.009712 -1.2723365 -0.77530956 -1.4635415
-0.6585476 0.2951741 1.0881739 -0.0075422516 0.9788946 -1.8448869
-1.0364158 0.33986562 0.8445264 1.8290071 0.76166695 -0.6606777
-1.0097123 0.728417 0.61548364 1.6992353 -1.1268101 0.45254537
-0.61534774 0.92385507 0.7175759 -0.21749441 -2.0767016 -0.04365589
-0.31048167 0.26473758 0.801697 -1.6992356 1.1268104 -0.45254406
-0.7048462 0.06929954 0.699605 0.217494 2.0767016 0.043656953
-0.92187595 0.33705646 0.40746883 1.2723358 0.77530885 1.4635425
-0.66164637 0.69798046 0.32900676 0.0075412267 -0.9788939 1.8448871
-0.2837785 0.65328896 0.5726546 -1.8290071 -0.7616665 0.6606782
-0.4732259 0.29062608 0.3809986 -0.90824044 1.0009779 1.5921816
-0.6677151 0.72102785 0.51172173 1.4558395 0.10938215 -1.4934747
0.0322901 0.80148065 0.6691702 -0.67328346 -0.13531114 -1.972379
-0.20601632 0.17917877 0.39129043 0.051543705 1.7574713 -1.1271807
-0.71672404 0.3331646 -0.095270395 1.604903 1.2890942 0.35273528
-0.79404205 1.0506446 -0.11809059 1.8400844 -0.89318156 0.42215496
-0.33112672 1.3400707 0.3543581 0.43209147 -1.7734979 -1.0148406
0.41591272 0.4633373 0.15948775 -1.8400855 0.8931799 -0.4221543
-0.047002904 0.17391066 -0.3129608 -0.43209168 1.7734973 1.0148412
-0.41041943 0.7125012 -0.6277729 0.6732826 0.1353106 1.9723796
-0.172113 1.3348022 -0.34989366 -0.05154532 -1.7574707 1.1271818
0.33859384 1.1808168 0.13666807 -1.604902 -1.2890949 -0.35273534
0.2895852 0.79295355 -0.47032392 -1.45584 -0.10938245 1.493474
0.7121332 0.22050725 0.20042038 0.12391414 1.7741169 -1.0950134
0.45955533 0.62868357 0.3336457 1.2373515 -0.025247354 -1.6823267
0.95598346 0.61879164 0.37379515 -0.9510581 0.018356455 -1.8593146
1.1368964 0.36592856 -0.015416448 -1.7485642 1.133057 -0.14354137
0.75226724 0.21954513 -0.29610777 -0.053008184 1.778369 1.0938436
0.3336532 0.38193792 -0.08037338 1.7923739 1.0624958 0.14281864
0.7282171 1.0263743 0.20014869 0.053009264 -1.7783695 -1.0938419
1.1468313 0.86398154 -0.015585628 -1.7923738 -1.0624962 -0.14281714
1.0209289 0.6172359 -0.4296047 -1.2373506 0.02524672 1.6823274
0.52450144 0.6271283 -0.46975404 0.9510572 -0.018359024 1.8593152
0.3435881 0.87999046 -0.080542326 1.7485646 -1.1330566 0.14354208
0.7683514 1.0254118 -0.296379 -0.123913966 -1.7741168 1.095013
1.3121957 0.1834656 -0.22148545 0.12391463 1.7741168 -1.0950133
1.0023 0.68427026 -0.058027122 1.2373519 -0.025247922 -1.6823263
1.6113834 0.6721335 -0.008766435 -0.9510581 0.018355768 -1.8593144
1.8333511 0.3618874 -0.48630258 -1.7485638 1.1330575 -0.14354132
1.3614376 0.18228522 -0.8306916 -0.053007454 1.7783687 1.0938436
0.8478269 0.38153017 -0.5660002 1.792374 1.0624956 0.14281881
1.3319296 1.1722094 -0.22181879 0.053009544 -1.7783697 -1.0938419
1.8455405 0.97296447 -0.48651013 -1.7923737 -1.0624963 -0.14281718
1.691067 0.67022437 -0.99448323 -1.2373507 0.025247037 1.6823274
1.0819845 0.682362 -1.0437438 0.9510572 -0.018359086 1.859315
0.86001635 0.9926063 -0.5662075 1.7485646 -1.1330564 0.14354225
1.3811716 1.1710285 -0.83102435 -0.12391389 -1.7741174 1.0950128
0.3672273 0.15540765 -0.12556085 -0.14959618 0.9557909 -1.8509414
-0.29461807 0.6657357 -0.31718934 1.5454676 -0.35122618 -1.3601729
0.4871309 1.0004516 -0.20753194 -0.45668572 -1.2084746 -1.6410137
1.0585631 0.45243943 -0.5366997 -1.9201812 0.1950599 -0.79796934
0.62995756 -0.22096592 -0.8497915 -0.8224833 1.9197409 0.0039003252
-0.2063466 -0.0891343 -0.7141241 1.319392 1.5821087 -0.3435631
-0.012327308 1.2781736 -0.84676033 0.8224851 -1.91974 -0.003899053
0.823977 1.1463424 -0.98242784 -1.3193916 -1.5821086 0.34356508
0.9122484 0.39147142 -1.3793625 -1.5454669 0.35122702 1.3601733
0.13050002 0.056757808 -1.4890205 0.456686 1.2084714 1.641016
-0.4409322 0.6047677 -1.1598512 1.9201813 -0.19505878 0.7979691
0.25040308 0.9018004 -1.57099 0.14959723 -0.9557921 1.8509406
-0.5296116 0.84646535 0.28925428 -0.53577334 -0.018948112 -2.0185359
-1.0779196 1.0180943 0.10496612 1.459806 -0.6436082 -1.3478259
-0.59592795 1.3565495 -0.026145231 -0.2944145 -1.8754222 -0.8706379
-0.13474269 0.9861076 -0.14507906 -1.9729005 -0.52717644 -0.43777567
-0.33172068 0.41870514 -0.08746874 -1.2560084 1.5379053 -0.6474483
-0.914632 0.43848032 0.067066245 0.86551064 1.4659353 -1.2098858
-1.0219265 1.2638125 -0.44326437 1.2560099 -1.5379039 0.64744836
-0.439015 1.2440374 -0.59779954 -0.8655099 -1.465934 1.209888
-0.27572715 0.6644229 -0.6356991 -1.4598057 0.64360934 1.3478258
-0.7577188 0.32596907 -0.5045887 0.29441577 1.8754208 0.87064105
-1.2189037 0.6964106 -0.38565338 1.9729004 0.52717674 0.43777522
-0.8240352 0.83605283 -0.8199869 0.5357743 0.018947497 2.0185359
-1.2734058 0.8074072 0.5041769 -0.53577334 -0.01894859 -2.018536
-2.0530694 1.0514537 0.24212945 1.4598061 -0.6436076 -1.347826
-1.3677039 1.5327183 0.055696417 -0.29441434 -1.8754221 -0.870638
-0.7119242 1.0059704 -0.11342084 -1.9729007 -0.52717626 -0.43777582
-0.9920159 0.1991558 -0.031502187 -1.2560084 1.5379053 -0.6474481
-1.8208834 0.22727492 0.18823789 0.8655106 1.4659353 -1.2098857
-1.9734503 1.4008516 -0.5374237 1.2560104 -1.5379037 0.6474483
-1.1445824 1.3727324 -0.7571641 -0.8655099 -1.4659339 1.209888
-0.9123964 0.54855293 -0.8110551 -1.4598054 0.64360946 1.3478259
-1.5977615 0.06729038 -0.6246235 0.29441556 1.8754207 0.87064123
-2.2535408 0.59403765 -0.45550406 1.9729005 0.52717656 0.43777537
-1.6920598 0.79260105 -1.073102 0.53577423 0.018947704 2.0185359
-0.12016879 1.1566685 0.07300046 -0.5357733 -0.018948056 -2.0185359
-0.727745 1.3468494 -0.13120791 1.4598061 -0.6436076 -1.3478259
-0.19365352 1.7218891 -0.27649143 -0.29441428 -1.8754221 -0.87063855
0.3173825 1.3114051 -0.40828115 -1.9729005 -0.5271764 -0.43777615
0.09911274 0.68267065 -0.34444356 -1.2560085 1.5379052 -0.64744824
-0.5468072 0.70458335 -0.17320453 0.86551076 1.4659352 -1.2098858
-0.66569954 1.6191283 -0.7386982 1.2560107 -1.5379037 0.6474481
-0.01977933 1.5972157 -0.9099377 -0.8655099 -1.4659342 1.2098879
0.1611587 0.95494866 -0.9519338 -1.4598053 0.64361 1.3478258
-0.3729329 0.57991046 -0.8066512 0.294416 1.8754209 0.8706407
-0.88396835 0.99039394 -0.6748598 1.9729004 0.5271769 0.437775
-0.44641763 1.1451304 -1.1561415 0.53577477 0.01894842 2.0185354
1.2208996 0.65265656 0.3013982 -1.2469203 -1.5931773 0.5185314
0.842089 0.70120746 0.6832832 0.29333514 -1.7906009 -1.0342159
0.698184 0.6453866 0.16572705 0.8784573 -1.5636268 1.070179
1.0423803 0.30027783 -0.06691718 -0.5210594 -0.16040392 2.0161018
1.3990085 0.1428157 0.3068692 -1.9711273 0.47984853 0.49628785
1.2752181 0.39060426 0.770513 -1.4677967 -0.52766716 -1.3888985
0.42944783 0.37883607 0.55098695 1.9711268 -0.4798485 -0.49629
0.5532384 0.13104703 0.0873428 1.4677966 0.5276695 1.3888979
0.9863683 -0.17955619 0.1745728 -0.29333696 1.7906011 1.0342146
1.130272 -0.12373527 0.69212854 -0.8784551 1.563628 -1.0701791
0.7860769 0.22137438 0.92477256 0.5210577 0.16040294 -2.0161026
0.60755724 -0.13100433 0.5564576 1.2469203 1.5931767 -0.51853293
3 1 142 140
3 141 8 143
3 6 16 10
3 7 16 13
3 4 6 10
3 5 8 2
3 1 10 7
3 3 11 5
3 17 20 14
3 16 18 22
3 11 14 8
3 142 13 144
3 11 15 17
3 8 145 143
3 147 26 149
3 21 29 23
3 13 146 144
3 15 23 17
3 145 20 147
3 13 22 19
3 26 35 32
3 28 30 34
3 22 25 19
3 22 24 28
3 20 29 26
3 19 148 146
3 156 38 153
3 42 41 43
3 25 150 148
3 29 33 35
3 149 32 151
3 28 31 25
3 152 190 39
3 38 154 153
3 40 53 52
3 36 49 48
3 38 299 298
3 37 319 317
3 150 47 155
3 35 44 32
3 34 45 46
3 31 46 47
3 33 43 35
3 32 156 151
3 50 159 51
3 36 50 45
3 45 51 46
3 40 51 49
3 105 58 59
3 40 54 46
3 46 55 47
3 37 55 53
3 65 63 61
3 106 58 104
3 107 59 57
3 107 56 106
3 63 98 99
3 65 60 66
3 64 62 63
3 62 70 68
3 56 67 58
3 59 67 64
3 57 66 56
3 57 64 65
3 77 73 75
3 60 68 69
3 66 70 67
3 60 71 66
3 75 90 74
3 76 72 73
3 77 74 79
3 79 72 78
3 70 78 68
3 71 79 70
3 69 80 81
3 71 76 77
3 83 84 80
3 76 83 78
3 78 80 68
3 76 81 82
3 85 87 86
3 81 84 85
3 83 86 87
3 82 85 86
3 91 93 95
3 74 88 72
3 75 89 91
3 73 88 89
3 95 92 94
3 89 92 93
3 91 94 90
3 90 92 88
3 99 101 97
3 60 98 62
3 61 99 97
3 61 96 60
3 103 100 101
3 97 100 96
3 99 102 103
3 98 100 102
3 107 109 53
3 53 105 107
3 52 104 54
3 55 104 105
3 108 115 111
3 53 108 52
3 107 111 110
3 106 108 111
3 124 116 125
3 108 113 112
3 111 114 110
3 109 114 113
3 119 122 118
3 127 119 118
3 127 117 124
3 126 116 119
3 123 136 139
3 118 121 117
3 119 120 123
3 116 121 120
3 115 125 126
3 114 124 113
3 114 126 127
3 113 128 112
3 130 132 134
3 125 131 124
3 125 128 130
3 124 129 113
3 133 134 132
3 131 133 129
3 129 132 128
3 131 134 135
3 137 139 136
3 121 136 120
3 122 139 138
3 122 137 121
3 151 45 30
3 33 155 42
3 155 39 42
3 153 240 237
3 154 37 40
3 24 151 30
3 148 33 27
3 45 153 36
3 146 27 21
3 145 18 12
3 144 21 15
3 18 149 24
3 143 12 6
3 9 144 15
3 0 143 6
3 140 9 3
3 165 163 166
3 49 159 158
3 48 160 50
3 48 158 157
3 164 181 184
3 167 163 162
3 168 164 165
3 168 162 161
3 157 167 168
3 157 170 160
3 158 166 167
3 160 166 159
3 171 176 172
3 165 170 171
3 168 171 172
3 168 169 157
3 176 177 173
3 171 174 175
3 172 173 169
3 170 173 174
3 177 179 178
3 173 178 174
3 176 179 180
3 175 178 179
3 182 187 186
3 161 182 181
3 164 183 163
3 162 183 182
3 187 185 186
3 181 188 184
3 181 186 185
3 184 187 183
3 192 193 189
3 39 191 41
3 154 191 192
3 152 192 189
3 214 199 200
3 191 194 195
3 192 195 196
3 189 194 190
3 199 204 200
3 215 198 216
3 214 197 215
3 213 198 199
3 201 208 205
3 198 201 202
3 197 204 201
3 198 203 199
3 208 211 212
3 202 207 203
3 204 207 208
3 201 206 202
3 212 210 209
3 205 210 206
3 208 209 205
3 206 211 207
3 195 216 213
3 196 215 193
3 194 215 216
3 195 218 196
3 217 224 221
3 214 218 219
3 213 217 195
3 213 219 220
3 223 228 224
3 218 221 222
3 219 224 220
3 218 223 219
3 226 231 227
3 222 227 223
3 221 228 225
3 222 225 226
3 229 236 233
3 225 232 229
3 226 229 230
3 227 232 228
3 233 235 234
3 230 233 234
3 231 236 232
3 230 235 231
3 239 242 243
3 36 237 238
3 40 240 154
3 36 239 40
3 262 247 248
3 239 244 240
3 238 241 242
3 240 241 237
3 248 249 245
3 263 246 264
3 262 245 263
3 264 247 261
3 251 256 252
3 247 250 251
3 248 251 252
3 245 250 246
3 256 257 253
3 250 253 254
3 252 253 249
3 251 254 255
3 257 356 353
3 255 258 259
3 256 259 260
3 254 257 258
3 242 261 243
3 244 263 241
3 264 266 267
3 261 283 284
3 267 270 271
3 264 268 263
3 242 265 266
3 263 265 241
3 272 273 269
3 268 269 265
3 266 269 270
3 267 272 268
3 275 280 276
3 270 273 274
3 271 276 272
3 271 274 275
3 277 279 278
3 275 278 279
3 276 277 273
3 274 277 278
3 282 288 286
3 243 281 244
3 244 283 262
3 243 284 282
3 287 292 288
3 282 285 281
3 284 287 288
3 281 287 283
3 292 294 290
3 287 289 291
3 288 290 286
3 285 290 289
3 293 296 295
3 290 293 289
3 292 295 296
3 291 293 295
3 297 304 300
3 43 299 44
3 41 298 297
3 41 300 43
3 301 308 304
3 298 301 297
3 299 304 303
3 298 303 302
3 305 312 308
3 302 305 301
3 303 308 307
3 302 307 306
3 312 315 311
3 306 309 305
3 308 311 307
3 306 311 310
3 316 314 315
3 310 315 314
3 309 316 312
3 309 314 313
3 318 324 320
3 152 320 319
3 37 318 47
3 47 320 155
3 329 328 330
3 317 322 318
3 319 324 323
3 317 323 321
3 328 347 327
3 331 326 329
3 332 328 327
3 331 327 325
3 321 332 331
3 323 330 332
3 321 334 322
3 322 330 324
3 336 337 333
3 331 335 336
3 331 333 321
3 329 334 335
3 340 343 344
3 334 337 338
3 335 340 336
3 335 338 339
3 341 343 342
3 339 342 343
3 337 344 341
3 337 342 338
3 346 349 350
3 327 345 325
3 328 346 348
3 326 345 346
3 352 349 351
3 348 351 347
3 345 351 349
3 346 352 348
3 354 356 355
3 258 355 259
3 260 355 356
3 257 354 258
3 357 358 359
3 358 357 362
3 357 359 360
3 357 360 361
3 357 361 362
3 358 362 367
3 359 358 363
3 360 359 364
3 361 360 365
3 362 361 366
3 358 367 363
3 359 363 364
3 360 364 365
3 361 365 366
3 362 366 367
3 363 367 368
3 364 363 368
3 365 364 368
3 366 365 368
3 367 366 368
3 369 370 371
3 370 369 374
3 369 371 372
3 369 372 373
3 369 373 374
3 370 374 379
3 371 370 375
3 372 371 376
3 373 372 377
3 374 373 378
3 370 379 375
3 371 375 376
3 372 376 377
3 373 377 378
3 374 378 379
3 375 379 380
3 376 375 380
3 377 376 380
3 378 377 380
3 379 378 380
3 381 382 383
3 382 381 386
3 381 383 384
3 381 384 385
3 381 385 386
3 382 386 391
3 383 382 387
3 384 383 388
3 385 384 389
3 386 385 390
3 382 391 387
3 383 387 388
3 384 388 389
3 385 389 390
3 386 390 391
3 387 391 392
3 388 387 392
3 389 388 392
3 390 389 392
3 391 390 392
3 393 394 395
3 394 393 398
3 393 395 396
3 393 396 397
3 393 397 398
3 394 398 403
3 395 394 399
3 396 395 400
3 397 396 401
3 398 397 402
3 394 403 399
3 395 399 400
3 396 400 401
3 397 401 402
3 398 402 403
3 399 403 404
3 400 399 404
3 401 400 404
3 402 401 404
3 403 402 404
3 405 406 407
3 406 405 410
3 405 407 408
3 405 408 409
3 405 409 410
3 406 410 415
3 407 406 411
3 408 407 412
3 409 408 413
3 410 409 414
3 406 415 411
3 407 411 412
3 408 412 413
3 409 413 414
3 410 414 415
3 411 415 416
3 412 411 416
3 413 412 416
3 414 413 416
3 415 414 416
3 417 418 419
3 418 417 422
3 417 419 420
3 417 420 421
3 417 421 422
3 418 422 427
3 419 418 423
3 420 419 424
3 421 420 425
3 422 421 426
3 418 427 423
3 419 423 424
3 420 424 425
3 421 425 426
3 422 426 427
3 423 427 428
3 424 423 428
3 425 424 428
3 426 425 428
3 427 426 428
3 429 430 431
3 430 429 434
3 429 431 432
3 429 432 433
3 429 433 434
3 430 434 439
3 431 430 435
3 432 431 436
3 433 432 437
3 434 433 438
3 430 439 435
3 431 435 436
3 432 436 437
3 433 437 438
3 434 438 439
3 435 439 440
3 436 435 440
3 437 436 440
3 438 437 440
3 439 438 440
3 441 442 443
3 442 441 446
3 441 443 444
3 441 444 445
3 441 445 446
3 442 446 451
3 443 442 447
3 444 443 448
3 445 444 449
3 446 445 450
3 442 451 447
3 443 447 448
3 444 448 449
3 445 449 450
3 446 450 451
3 447 451 452
3 448 447 452
3 449 448 452
3 450 449 452
3 451 450 452
3 453 454 455
3 454 453 458
3 453 455 456
3 453 456 457
3 453 457 458
3 454 458 463
3 455 454 459
3 456 455 460
3 457 456 461
3 458 457 462
3 454 463 459
3 455 459 460
3 456 460 461
3 457 461 462
3 458 462 463
3 459 463 464
3 460 459 464
3 461 460 464
3 462 461 464
3 463 462 464
3 465 466 467
3 466 465 470
3 465 467 468
3 465 468 469
3 465 469 470
3 466 470 475
3 467 466 471
3 468 467 472
3 469 468 473
3 470 469 474
3 466 475 471
3 467 471 472
3 468 472 473
3 469 473 474
3 470 474 475
3 471 475 476
3 472 471 476
3 473 472 476
3 474 473 476
3 475 474 476
3 477 478 479
3 478 477 482
3 477 479 480
3 477 480 481
3 477 481 482
3 478 482 487
3 479 478 483
3 480 479 484
3 481 480 485
3 482 481 486
3 478 487 483
3 479 483 484
3 480 484 485
3 481 485 486
3 482 486 487
3 483 487 488
3 484 483 488
3 485 484 488
3 486 485 488
3 487 486 488
3 1 7 142
3 141 2 8
3 6 12 16
3 7 10 16
3 4 0 6
3 5 11 8
3 1 4 10
3 3 9 11
3 17 23 20
3 16 12 18
3 11 17 14
3 142 7 13
3 11 9 15
3 8 14 145
3 147 20 26
3 21 27 29
3 13 19 146
3 15 21 23
3 145 14 20
3 13 16 22
3 26 29 35
3 28 24 30
3 22 28 25
3 22 18 24
3 20 23 29
3 19 25 148
3 156 44 38
3 42 39 41
3 25 31 150
3 29 27 33
3 149 26 32
3 28 34 31
3 152 189 190
3 38 41 154
3 40 37 53
3 36 40 49
3 38 44 299
3 37 152 319
3 150 31 47
3 35 43 44
3 34 30 45
3 31 34 46
3 33 42 43
3 32 44 156
3 50 160 159
3 36 48 50
3 45 50 51
3 40 46 51
3 105 104 58
3 40 52 54
3 46 54 55
3 37 47 55
3 65 64 63
3 106 56 58
3 107 105 59
3 107 57 56
3 63 62 98
3 65 61 60
3 64 67 62
3 62 67 70
3 56 66 67
3 59 58 67
3 57 65 66
3 57 59 64
3 77 76 73
3 60 62 68
3 66 71 70
3 60 69 71
3 75 91 90
3 76 78 72
3 77 75 74
3 79 74 72
3 70 79 78
3 71 77 79
3 69 68 80
3 71 69 76
3 83 87 84
3 76 82 83
3 78 83 80
3 76 69 81
3 85 84 87
3 81 80 84
3 83 82 86
3 82 81 85
3 91 89 93
3 74 90 88
3 75 73 89
3 73 72 88
3 95 93 92
3 89 88 92
3 91 95 94
3 90 94 92
3 99 103 101
3 60 96 98
3 61 63 99
3 61 97 96
3 103 102 100
3 97 101 100
3 99 98 102
3 98 96 100
3 107 110 109
3 53 55 105
3 52 106 104
3 55 54 104
3 108 112 115
3 53 109 108
3 107 106 111
3 106 52 108
3 124 117 116
3 108 109 113
3 111 115 114
3 109 110 114
3 119 123 122
3 127 126 119
3 127 118 117
3 126 125 116
3 123 120 136
3 118 122 121
3 119 116 120
3 116 117 121
3 115 112 125
3 114 127 124
3 114 115 126
3 113 129 128
3 130 128 132
3 125 130 131
3 125 112 128
3 124 131 129
3 133 135 134
3 131 135 133
3 129 133 132
3 131 130 134
3 137 138 139
3 121 137 136
3 122 123 139
3 122 138 137
3 151 156 45
3 33 150 155
3 155 152 39
3 153 154 240
3 154 152 37
3 24 149 151
3 148 150 33
3 45 156 153
3 146 148 27
3 145 147 18
3 144 146 21
3 18 147 149
3 143 145 12
3 9 142 144
3 0 141 143
3 140 142 9
3 165 164 163
3 49 51 159
3 48 157 160
3 48 49 158
3 164 161 181
3 167 166 163
3 168 161 164
3 168 167 162
3 157 158 167
3 157 169 170
3 158 159 166
3 160 165 166
3 171 175 176
3 165 160 170
3 168 165 171
3 168 172 169
3 176 180 177
3 171 170 174
3 172 176 173
3 170 169 173
3 177 180 179
3 173 177 178
3 176 175 179
3 175 174 178
3 182 183 187
3 161 162 182
3 164 184 183
3 162 163 183
3 187 188 185
3 181 185 188
3 181 182 186
3 184 188 187
3 192 196 193
3 39 190 191
3 154 41 191
3 152 154 192
3 214 213 199
3 191 190 194
3 192 191 195
3 189 193 194
3 199 203 204
3 215 197 198
3 214 200 197
3 213 216 198
3 201 204 208
3 198 197 201
3 197 200 204
3 198 202 203
3 208 207 211
3 202 206 207
3 204 203 207
3 201 205 206
3 212 211 210
3 205 209 210
3 208 212 209
3 206 210 211
3 195 194 216
3 196 214 215
3 194 193 215
3 195 217 218
3 217 220 224
3 214 196 218
3 213 220 217
3 213 214 219
3 223 227 228
3 218 217 221
3 219 223 224
3 218 222 223
3 226 230 231
3 222 226 227
3 221 224 228
3 222 221 225
3 229 232 236
3 225 228 232
3 226 225 229
3 227 231 232
3 233 236 235
3 230 229 233
3 231 235 236
3 230 234 235
3 239 238 242
3 36 153 237
3 40 239 240
3 36 238 239
3 262 261 247
3 239 243 244
3 238 237 241
3 240 244 241
3 248 252 249
3 263 245 246
3 262 248 245
3 264 246 247
3 251 255 256
3 247 246 250
3 248 247 251
3 245 249 250
3 256 260 257
3 250 249 253
3 252 256 253
3 251 250 254
3 257 260 356
3 255 254 258
3 256 255 259
3 254 253 257
3 242 264 261
3 244 262 263
3 264 242 266
3 261 262 283
3 267 266 270
3 264 267 268
3 242 241 265
3 263 268 265
3 272 276 273
3 268 272 269
3 266 265 269
3 267 271 272
3 275 279 280
3 270 269 273
3 271 275 276
3 271 270 274
3 277 280 279
3 275 274 278
3 276 280 277
3 274 273 277
3 282 284 288
3 243 282 281
3 244 281 283
3 243 261 284
3 287 291 292
3 282 286 285
3 284 283 287
3 281 285 287
3 292 296 294
3 287 285 289
3 288 292 290
3 285 286 290
3 293 294 296
3 290 294 293
3 292 291 295
3 291 289 293
3 297 301 304
3 43 300 299
3 41 38 298
3 41 297 300
3 301 305 308
3 298 302 301
3 299 300 304
3 298 299 303
3 305 309 312
3 302 306 305
3 303 304 308
3 302 303 307
3 312 316 315
3 306 310 309
3 308 312 311
3 306 307 311
3 316 313 314
3 310 311 315
3 309 313 316
3 309 310 314
3 318 322 324
3 152 155 320
3 37 317 318
3 47 318 320
3 329 326 328
3 317 321 322
3 319 320 324
3 317 319 323
3 328 348 347
3 331 325 326
3 332 330 328
3 331 332 327
3 321 323 332
3 323 324 330
3 321 333 334
3 322 329 330
3 336 340 337
3 331 329 335
3 331 336 333
3 329 322 334
3 340 339 343
3 334 333 337
3 335 339 340
3 335 334 338
3 341 344 343
3 339 338 342
3 337 340 344
3 337 341 342
3 346 345 349
3 327 347 345
3 328 326 346
3 326 325 345
3 352 350 349
3 348 352 351
3 345 347 351
3 346 350 352
3 354 353 356
3 258 354 355
3 260 259 355
3 257 353 354
